<?xml version="1.0" encoding="UTF-8" standalone="no"?>
<svg
   id="a"
   data-name="Слой 1"
   viewBox="0 0 511.99998 511.99998"
   version="1.1"
   width="512"
   height="512"
   xmlns="http://www.w3.org/2000/svg"
   xmlns:svg="http://www.w3.org/2000/svg">
  <defs
     id="defs6">
    <style
       id="style1">
      .c {
        fill: #80b1d3;
      }

      .d {
        fill: #8dd3c7;
      }

      .e {
        fill: #222;
      }

      .f {
        fill: #e2b8ce;
      }

      .g {
        fill: none;
        stroke: #b2b2b2;
        stroke-miterlimit: 10;
        stroke-width: 8px;
      }

      .h {
        fill: #bc80bd;
      }

      .i {
        fill: url(#b);
      }

      .j {
        fill: #bebada;
      }
    </style>
    <linearGradient
       id="b"
       data-name="Безымянный градиент 65"
       x1="133.30582"
       y1="132.37422"
       x2="774.71527"
       y2="773.78369"
       gradientUnits="userSpaceOnUse"
       gradientTransform="matrix(0.56386122,0,0,0.56502446,0.91052612,1.2559868)">
      <stop
         offset="0"
         stop-color="#bc80bd"
         id="stop1" />
      <stop
         offset=".0868561772"
         stop-color="#bc96c8"
         id="stop2" />
      <stop
         offset=".2374301676"
         stop-color="#bebada"
         id="stop3" />
      <stop
         offset=".5055865922"
         stop-color="#8dd3c7"
         id="stop4" />
      <stop
         offset=".751396648"
         stop-color="#80b1d3"
         id="stop5" />
      <stop
         offset="1"
         stop-color="#e2b8ce"
         id="stop6" />
    </linearGradient>
  </defs>
  <ellipse
     class="e"
     cx="257.4364"
     cy="257.6911"
     rx="248.4955"
     ry="247.21992"
     id="ellipse6"
     style="stroke-width:0.564442" />
  <g
     id="g36"
     transform="matrix(0.56386122,0,0,0.56502446,0.91052612,1.2559868)">
    <line
       class="g"
       x1="363.43262"
       y1="858.63068"
       x2="361.85019"
       y2="867.86139"
       id="line6" />
    <line
       class="g"
       x1="254.6414"
       y1="748.8349"
       x2="363.43262"
       y2="858.63068"
       id="line7" />
    <line
       class="g"
       x1="333.21072"
       y1="720.68628"
       x2="363.43262"
       y2="858.63068"
       id="line8" />
    <line
       class="g"
       x1="826.28973"
       y1="482.80649"
       x2="869.80621"
       y2="613.94934"
       id="line9" />
    <line
       class="g"
       x1="444.53149"
       y1="684.5647"
       x2="363.43262"
       y2="858.63068"
       id="line10" />
    <line
       class="g"
       x1="476.57547"
       y1="801.76392"
       x2="363.43262"
       y2="858.63068"
       id="line11" />
    <line
       class="g"
       x1="259.55173"
       y1="720.23816"
       x2="469.45459"
       y2="699.99329"
       id="line12" />
    <line
       class="g"
       x1="355.12491"
       y1="848.21307"
       x2="360.00403"
       y2="878.27899"
       id="line13" />
    <line
       class="g"
       x1="373.49756"
       y1="853.5719"
       x2="358.9491"
       y2="878.01526"
       id="line14" />
    <line
       class="g"
       x1="364.50314"
       y1="662.86072"
       x2="454.14285"
       y2="686.93835"
       id="line15" />
    <line
       class="g"
       x1="773.27875"
       y1="482.80649"
       x2="773.27875"
       y2="745.09216"
       id="line16" />
    <line
       class="g"
       x1="662.90515"
       y1="594.31317"
       x2="773.27875"
       y2="745.09216"
       id="line17" />
    <line
       class="g"
       x1="585.76227"
       y1="787.73792"
       x2="773.27875"
       y2="745.09216"
       id="line18" />
    <line
       class="g"
       x1="799.38867"
       y1="474.49878"
       x2="656.79553"
       y2="594.31317"
       id="line19" />
    <line
       class="g"
       x1="668.83917"
       y1="415.15811"
       x2="773.27875"
       y2="745.09216"
       id="line20" />
    <line
       class="g"
       x1="18.441303"
       y1="453.88077"
       x2="125.27876"
       y2="638.78308"
       id="line21" />
    <line
       class="g"
       x1="215.47656"
       y1="638.78308"
       x2="264.53149"
       y2="534.40601"
       id="line22" />
    <g
       id="g23">
      <path
         class="h"
         d="m 766.20302,524.96806 c -1.50098,-0.21582 -3.00293,-0.45312 -4.49414,-0.70996 -1.45996,-0.25976 -2.93457,-0.55176 -4.53321,-0.89551 l -2.70019,-0.583 -2.81348,-10.69043 -4.46777,-17.04395 c -1.2832,-0.47363 -2.56836,-0.97461 -3.84766,-1.50097 l -24.16113,15.51855 -2.39063,-1.4209 c -2.64453,-1.57129 -5.23046,-3.22265 -7.68652,-4.90722 l -2.29199,-1.57227 3.92578,-28.44434 c -0.99902,-0.92871 -1.99316,-1.88574 -2.97461,-2.86523 l -28.24707,5.07031 -1.66602,-2.21875 c -1.7998,-2.39941 -3.56347,-4.9209 -5.24023,-7.49414 l -1.51758,-2.32812 14.48242,-24.78565 c -0.58007,-1.25537 -1.13574,-2.51758 -1.66308,-3.7793 l -28.06836,-6.09716 -0.68457,-2.69922 c -0.7334,-2.88721 -1.38965,-5.87842 -1.95313,-8.89063 l -0.51074,-2.7334 22.87891,-17.34082 c -0.0547,-1.37548 -0.084,-2.76025 -0.0859,-4.14697 l -23.5332,-16.37744 0.37695,-2.73291 c 0.21191,-1.53223 0.45313,-3.06201 0.71875,-4.5459 0.24609,-1.38574 0.53711,-2.85693 0.88965,-4.49463 l 0.58105,-2.7041 27.73633,-7.28857 c 0.46973,-1.27491 0.96875,-2.55225 1.50195,-3.84815 l -9.69043,-15.08447 3.94434,-2.39551 c 6.82129,-4.14306 13.21777,-9.01074 19.01074,-14.46875 l 1.56836,-1.47754 5.98731,0.8291 c 0.93164,-1.00781 1.88769,-2.00341 2.86133,-2.98095 l -1.11329,-6.21582 1.29297,-1.59912 c 4.93164,-6.09913 9.24707,-12.76368 12.82715,-19.80909 l 2.16211,-4.25439 16.59082,9.69434 c 1.26465,-0.58692 2.5293,-1.14405 3.78711,-1.66749 l 6.09277,-28.05126 2.68848,-0.69092 c 2.93066,-0.75293 5.93164,-1.41211 8.9209,-1.9585 l 2.72265,-0.49756 17.3379,22.86377 c 1.38378,-0.0527 2.7666,-0.0801 4.13476,-0.082 l 16.38672,-23.53125 2.73145,0.37598 c 1.51562,0.20898 3.04492,0.45019 4.54589,0.71777 1.45801,0.25147 2.8877,0.54541 4.46875,0.875 l 2.72559,0.56885 7.29687,27.76123 c 1.27344,0.46777 2.55762,0.96728 3.84473,1.4956 l 17.53516,-11.26074 0.69433,-0.44043 5.91309,-3.80566 2.38965,1.41113 c 2.65332,1.56738 5.24707,3.22315 7.70801,4.92139 l 2.28125,1.57373 -3.92383,28.42578 c 0.98535,0.91211 1.97363,1.86328 2.97461,2.86475 l 16.75,-3.00196 1.21191,3.73145 c 2.53125,7.79297 4.87305,15.77197 6.96289,23.71533 l 0.14746,0.5625 v 1.7998 l -0.61426,1.06202 -2.2705,3.8872 c 0.57715,1.24756 1.13281,2.50928 1.66601,3.77735 l 4.0752,0.8833 0.63867,2.78613 c 2.20898,9.62598 4.12988,19.56934 5.70898,29.55322 l 0.42188,2.66602 -2.50586,1.89355 c 0.0527,1.37891 0.0801,2.75684 0.082,4.12549 l 3.9375,2.73438 v 2.07812 c 1.08691,8.5459 1.94043,17.31446 2.53906,26.06836 l 0.0108,0.15332 v 3.62549 l -3.3584,0.8916 -9.89746,2.5957 c -0.43555,1.18311 -0.89649,2.37061 -1.37696,3.54981 -0.043,0.10498 -0.0869,0.20947 -0.12988,0.31348 l 15.52148,24.15332 -1.41796,2.38964 c -1.55957,2.63086 -3.20801,5.21485 -4.89942,7.68067 l -1.57324,2.29297 -28.44727,-3.93457 c -0.93066,1.00586 -1.88671,2.00097 -2.8623,2.97949 l 5.07031,28.25195 -2.21875,1.66407 c -2.37207,1.77929 -4.89941,3.54101 -7.51074,5.23535 l -2.3252,1.50879 -24.77246,-14.47364 c -1.25,0.58106 -2.51562,1.13867 -3.78906,1.6709 l -6.09473,28.04688 -2.68847,0.69043 c -2.88672,0.74121 -5.88281,1.40332 -8.90528,1.96582 l -2.73242,0.50879 -17.33886,-22.87696 c -1.37696,0.0547 -2.76075,0.084 -4.1377,0.0859 l -16.3877,23.54785 z m 18.83789,-194.34033 c -29.84961,0 -55.30469,21.36914 -60.52637,50.81152 -2.11719,11.9209 -0.70605,24.07129 4.08008,35.13819 8.2373,19.05029 25.3457,32.58887 45.7666,36.21582 3.58399,0.63672 7.22949,0.95947 10.83691,0.95947 29.84375,0 55.29395,-21.37109 60.51465,-50.81494 5.59278,-31.51367 -13.43457,-61.64746 -44.25879,-70.09424 -1.83496,-0.50537 -3.71093,-0.92822 -5.58105,-1.2583 -3.58496,-0.63574 -7.22754,-0.95752 -10.83203,-0.95752 z"
         id="path22" />
      <path
         class="e"
         d="m 803.39375,263.8737 c 1.45008,0.20002 2.91016,0.43 4.37012,0.69001 1.44995,0.25 2.8999,0.55001 4.33997,0.85 l 6.76001,25.71994 0.43005,1.65006 c 2.72998,0.92999 5.40991,1.98001 8.02991,3.11999 l 14.81994,-9.52005 3.6001,-2.30993 h 0.01 l 0.56995,-0.37 1.22009,-0.78 3.58984,-2.31 c 2.54004,1.5 5.02002,3.08005 7.44007,4.75 l -2.55994,18.54999 -1.31006,9.48999 c 2.16004,1.9 4.21997,3.9 6.20996,5.97 l 0.5,-0.09 14.72998,-2.63999 c 2.51001,7.72998 4.81006,15.56 6.89014,23.47 v 0.01 l -3.46997,5.94001 c 1.25989,2.58001 2.41992,5.20999 3.47998,7.88989 l 3.59985,0.78006 c 2.20996,9.63009 4.09009,19.39017 5.65015,29.25 l -2.25,1.70004 c 0.16992,2.85001 0.22998,5.72 0.16992,8.62 l 3.95996,2.75 v 0.01 c 1.1001,8.61001 1.94995,17.31994 2.55005,26.08999 v 0.01 l -12.19995,3.20004 c -0.65002,1.89997 -1.3501,3.76008 -2.1001,5.59992 -0.33996,0.82004 -0.67993,1.6301 -1.03003,2.44003 l 1.2201,1.91001 14.07995,21.90994 c -1.5,2.53 -3.07983,5.01001 -4.73999,7.43002 l -9.10998,-1.25995 -6.29993,-0.87002 -12.64014,-1.75 c -1.90991,2.16 -3.8999,4.22995 -5.96997,6.21994 l 5,27.8601 c -2.35998,1.77002 -4.78003,3.44996 -7.26001,5.05994 l -24.43994,-14.28003 c -2.57007,1.27002 -5.19995,2.43006 -7.89001,3.4801 l -6.01001,27.65992 c -2.83997,0.72998 -5.70996,1.35998 -8.60999,1.90002 l -17.09997,-22.55994 c -2.13752,0.13495 -4.29145,0.20246 -6.45423,0.20246 -0.72095,0 -1.4433,-0.008 -2.16577,-0.0225 l -9.72998,13.97998 -6.43005,9.23999 c -1.46009,-0.20996 -2.92005,-0.43994 -4.37,-0.68994 -1.45996,-0.26001 -2.90991,-0.55005 -4.34997,-0.86011 l -2.10999,-8.0199 -5.07007,-19.33997 c -2.73999,-0.94006 -5.41992,-1.98999 -8.03003,-3.13012 l -23.81994,15.30005 c -2.53992,-1.51001 -5.02002,-3.08997 -7.44007,-4.75 l 3.87012,-28.04004 c -2.15002,-1.90991 -4.21997,-3.90991 -6.20996,-5.97998 l -23.36011,4.19006 -4.5,0.80994 c -1.77002,-2.35999 -3.45996,-4.78 -5.07007,-7.25 l 4.88013,-8.34995 9.3999,-16.08999 c -1.26001,-2.58005 -2.41992,-5.20993 -3.46997,-7.88999 l -3.78003,-0.81994 -10.72998,-2.33008 -13.15991,-2.85999 c -0.71997,-2.83993 -1.3501,-5.71994 -1.89014,-8.61001 l 22.56006,-17.1001 c -0.17993,-2.85983 -0.23999,-5.72995 -0.17993,-8.62982 L 656.7939,373.91371 c 0.19995,-1.45004 0.42993,-2.91006 0.68994,-4.36999 0.26001,-1.45996 0.55005,-2.9 0.85999,-4.34012 l 27.35998,-7.18988 c 0.93994,-2.74002 1.98999,-5.40994 3.13001,-8.03006 l -8.47998,-13.19995 c 7.07995,-4.29999 13.71008,-9.33994 19.76001,-15.04001 l 6.20996,0.86001 c 1.91003,-2.15994 3.90002,-4.23001 5.97009,-6.22006 l -1.17004,-6.52994 c 5.10998,-6.32 9.58996,-13.22006 13.33996,-20.59994 l 14.53003,8.48993 c 2.57996,-1.26999 5.19995,-2.42999 7.88989,-3.47 l 6.01001,-27.66999 c 2.84009,-0.73001 5.71009,-1.36001 8.61011,-1.89001 l 17.09998,22.55002 c 2.13,-0.12708 4.27648,-0.19266 6.43164,-0.19266 0.72851,0 1.45825,0.008 2.18835,0.0226 l 16.16992,-23.22 m -18.1958,194.37863 c 31.41828,0 59.26874,-22.51544 64.9458,-54.52868 6.01001,-33.86987 -14.94995,-66.29993 -47.5,-75.21988 -1.95996,-0.54007 -3.94995,-0.99005 -5.98999,-1.35007 -3.9024,-0.69205 -7.78271,-1.02621 -11.61273,-1.02606 -31.42346,0.001 -59.2793,22.50851 -64.95721,54.52606 -2.34998,13.22995 -0.57996,26.24002 4.38,37.71005 8.51001,19.67997 26.41992,34.83002 49.10999,38.8599 3.90686,0.69394 7.78991,1.02868 11.62414,1.02868 m 13.96198,-204.04779 -3.1518,4.52597 -13.28259,19.0737 -14.05042,-18.52856 -3.34442,-4.41037 -5.44482,0.99506 c -3.09436,0.56552 -6.20062,1.24737 -9.23261,2.0267 l -5.37628,1.38187 -1.17816,5.42453 -4.93597,22.72525 -10.15857,-5.93567 -8.24048,-4.81494 -4.32355,8.50863 c -3.43707,6.76401 -7.58038,13.16275 -12.315,19.01837 l -2.58563,3.19794 0.72534,4.04807 0.27832,1.55319 -1.19483,-0.16547 -4.26928,-0.59125 -3.13703,2.95557 c -5.56469,5.24289 -11.70831,9.91888 -18.26031,13.89816 l -7.88892,4.79135 4.98877,7.7656 5.74683,8.94546 -22.47211,5.90543 -5.34772,1.4053 -1.16339,5.40549 c -0.36218,1.68268 -0.66375,3.20563 -0.92199,4.65585 -0.27716,1.55594 -0.52784,3.14362 -0.745,4.71857 l -0.7536,5.46512 4.52808,3.15137 19.08136,13.27975 -18.53699,14.05072 -4.43164,3.35913 1.02136,5.46628 c 0.57904,3.09921 1.25629,6.18396 2.01294,9.16864 l 1.36896,5.4 5.44378,1.18304 13.15992,2.86002 9.56616,2.07733 -6.84583,11.71808 -4.87933,8.34854 -2.80487,4.79928 3.03558,4.6568 c 1.72693,2.64923 3.547,5.25177 5.40961,7.73523 l 3.33081,4.44104 5.46344,-0.9834 4.5,-0.80993 18.36975,-3.29493 -3.1795,23.03669 -0.7602,5.50738 4.58466,3.1449 c 2.53113,1.73621 5.19977,3.44006 7.93182,5.06433 l 4.78217,2.84308 4.68103,-3.00671 19.56323,-12.56586 3.78699,14.44574 2.11206,8.02752 1.40625,5.34516 5.4032,1.16327 c 1.65063,0.35547 3.177,0.6571 4.66638,0.92236 1.55798,0.26874 3.11182,0.5141 4.66693,0.73773 l 5.49646,0.79035 3.17187,-4.55793 6.43006,-9.23999 6.84466,-9.83441 14.04554,18.53022 3.35681,4.42871 5.46325,-1.0174 c 3.13178,-0.58319 6.22809,-1.2666 9.20295,-2.03131 l 5.37567,-1.38177 1.17853,-5.42389 4.93774,-22.72516 20.06702,11.72497 4.78881,2.7981 4.6521,-3.02002 c 2.70429,-1.75555 5.31495,-3.57532 7.75953,-5.40875 l 4.43853,-3.32892 -0.98004,-5.46088 -4.10638,-22.8808 7.62372,1.05548 6.30297,0.87043 9.10822,1.25976 5.50861,0.76184 3.14587,-4.58575 c 1.74847,-2.54871 3.45093,-5.21723 5.06012,-7.93137 l 2.83417,-4.7803 -3.0044,-4.67517 -12.5758,-19.56937 7.31787,-1.91946 6.71655,-1.76181 v -7.25131 l -0.021,-0.31684 c -0.59814,-8.74087 -1.44866,-17.5 -2.52905,-26.04519 v -4.13764 l -3.65765,-2.54956 2.51092,-1.89719 -0.84369,-5.33258 c -1.5971,-10.09362 -3.53753,-20.13879 -5.76757,-29.85647 l -1.27875,-5.57215 -4.24622,-0.9201 0.91425,-1.565 1.22882,-2.10355 v -3.59973 l -0.2959,-1.13532 c -2.10852,-8.01803 -4.4751,-16.07959 -7.03418,-23.96063 l -2.42352,-7.46368 -7.72424,1.38437 -10.24469,1.83612 0.61798,-4.47653 2.55999,-18.55039 0.75763,-5.4902 -4.56158,-3.14774 c -2.54956,-1.75928 -5.23279,-3.47247 -7.9751,-5.09201 l -4.77923,-2.8223 -4.66742,3.00342 -3.58985,2.31 -0.33282,0.21274 -1.45734,0.93088 -3.6001,2.30996 -10.56897,6.78928 -5.90637,-22.47217 -1.41589,-5.38705 -5.45294,-1.13602 c -1.33002,-0.27704 -2.98529,-0.62189 -4.64624,-0.9083 -1.508,-0.26864 -3.09546,-0.51931 -4.66968,-0.73641 z m -13.96198,195.04779 c -3.34411,0 -6.72546,-0.2994 -10.05011,-0.88998 -18.92798,-3.36169 -34.78711,-15.91147 -42.42328,-33.57068 -4.43487,-10.25586 -5.74182,-21.51626 -3.77942,-32.56402 4.83979,-27.29148 28.43152,-47.09882 56.09626,-47.09998 3.34155,0 6.71899,0.29868 10.04083,0.88779 1.74255,0.30746 3.47967,0.699 5.17071,1.16494 28.57874,7.83167 46.21222,35.76163 41.02924,64.97083 -4.83997,27.29263 -28.4267,47.1011 -56.08423,47.1011 z"
         id="path23" />
    </g>
    <g
       id="g25">
      <path
         class="h"
         d="m 523.0331,887.29521 c -0.96778,-0.13867 -1.9375,-0.29004 -2.90625,-0.46191 -0.97461,-0.17285 -1.93653,-0.36426 -2.89258,-0.56641 l -2.71485,-0.57519 -4.64648,-17.69043 c -0.29297,-0.11231 -0.58496,-0.22657 -0.87793,-0.34278 l -15.39648,9.89063 -2.38965,-1.41602 c -1.70606,-1.01074 -3.37207,-2.07422 -4.95313,-3.16113 l -2.28906,-1.57227 2.50391,-18.13378 c -0.22559,-0.21485 -0.45118,-0.43165 -0.67481,-0.64942 l -18.00781,3.23047 -1.66504,-2.21973 c -1.17188,-1.56347 -2.30762,-3.18847 -3.375,-4.83007 l -1.51172,-2.32618 9.22949,-15.79785 c -0.12793,-0.28515 -0.2539,-0.57129 -0.37793,-0.85742 l -17.88574,-3.8877 -0.69043,-2.68847 c -0.47558,-1.85059 -0.90137,-3.7793 -1.26562,-5.73145 l -0.51026,-2.7334 14.59033,-11.05957 c -0.009,-0.31445 -0.0156,-0.62793 -0.0195,-0.94043 l -15.00097,-10.44336 0.38037,-2.73535 c 0.13574,-0.97558 0.28857,-1.95215 0.46191,-2.92871 0.17237,-0.97461 0.36524,-1.94531 0.57324,-2.90722 l 0.58399,-2.69922 17.67822,-4.64453 c 0.11133,-0.292 0.22559,-0.58301 0.34082,-0.87403 l -9.89258,-15.40039 1.41602,-2.38965 c 1.0166,-1.71582 2.08105,-3.38281 3.16406,-4.9541 l 1.57324,-2.2832 18.12989,2.5 c 0.21386,-0.22559 0.43066,-0.45117 0.64941,-0.67578 l -3.23047,-18.00782 2.21973,-1.66503 c 1.56836,-1.17579 3.19433,-2.31055 4.83496,-3.37403 l 2.32422,-1.50683 15.79492,9.22461 c 0.28613,-0.12891 0.57129,-0.25391 0.85742,-0.37793 l 3.8877,-17.88672 2.68847,-0.69043 c 1.87891,-0.48242 3.81348,-0.90821 5.74805,-1.26367 l 2.72461,-0.50098 11.05469,14.5791 c 0.31445,-0.009 0.62695,-0.0146 0.93847,-0.0195 l 10.45118,-15.01563 2.75,0.39747 c 0.96582,0.13964 1.93457,0.2871 2.90332,0.45898 0.97363,0.17285 1.93457,0.36816 2.89062,0.57031 l 2.71484,0.5752 4.64747,17.69043 c 0.29101,0.11133 0.583,0.22558 0.875,0.34082 l 15.39648,-9.8877 2.3877,1.41114 c 1.71386,1.01269 3.38476,2.0791 4.96484,3.16992 l 2.28027,1.57422 -2.50293,18.125 c 0.22461,0.21289 0.44922,0.42968 0.67383,0.64843 l 18.00488,-3.22656 1.66407,2.21191 c 1.16992,1.55469 2.30664,3.18067 3.38086,4.83399 l 1.50976,2.32617 -9.22754,15.79688 c 0.12696,0.28515 0.25293,0.57129 0.37696,0.85742 l 17.88574,3.8916 0.6914,2.68555 c 0.47559,1.85156 0.90235,3.78222 1.26563,5.7373 l 0.50879,2.73145 -14.58887,11.05859 c 0.009,0.3125 0.0146,0.625 0.0195,0.93652 l 15.00391,10.44532 -0.38379,2.7373 c -0.13574,0.97363 -0.28809,1.94824 -0.46094,2.92285 -0.17383,0.98047 -0.36621,1.94824 -0.57422,2.91016 l -0.58398,2.69824 -17.67676,4.64453 c -0.1123,0.29297 -0.22656,0.58496 -0.34277,0.87696 l 9.89355,15.40136 -1.41601,2.38965 c -0.99903,1.68652 -2.0625,3.35156 -3.16016,4.94922 l -1.57324,2.28906 -18.13281,-2.5039 c -0.21582,0.22656 -0.43262,0.45312 -0.65137,0.67773 l 3.23047,18.01074 -2.22071,1.66406 c -1.54101,1.1543 -3.16406,2.28711 -4.82617,3.36817 l -2.32715,1.51465 -15.79882,-9.23047 c -0.28516,0.12793 -0.57129,0.2539 -0.85743,0.37695 l -3.88769,17.88672 -2.68848,0.69043 c -1.85742,0.47754 -3.78808,0.90332 -5.73828,1.26563 l -2.73144,0.50878 -11.05567,-14.58593 c -0.31445,0.009 -0.62793,0.0156 -0.94141,0.0195 l -10.45019,15.01269 z M 535.16981,764.5247 c -18.05273,0 -33.44921,12.92481 -36.60937,30.7334 -3.58594,20.21485 9.94043,39.5791 30.15332,43.16504 2.16797,0.38477 4.37305,0.58008 6.55371,0.58008 18.05274,0 33.44824,-12.92676 36.60938,-30.7373 3.58593,-20.2129 -9.94141,-39.5752 -30.1543,-43.16211 -2.16699,-0.38477 -4.37207,-0.57911 -6.55274,-0.57911 z"
         id="path24" />
      <path
         class="e"
         d="m 546.76485,720.68626 c 0.919,0.1319 1.84045,0.27204 2.76172,0.43549 0.9212,0.16345 1.83459,0.34888 2.74291,0.5412 l 4.54169,17.29047 c 1.72931,0.59112 3.42261,1.25372 5.07434,1.97521 l 15.04871,-9.66326 c 1.60394,0.94659 3.17145,1.94519 4.698,2.99878 l -2.44648,17.7174 c 1.36365,1.20386 2.66987,2.46759 3.92585,3.77307 l 17.60125,-3.15466 c 1.1186,1.48749 2.18696,3.01666 3.20252,4.57935 l -9.02112,15.44098 c 0.79743,1.62908 1.53021,3.29345 2.19586,4.98492 l 17.47693,3.80188 c 0.46106,1.79138 0.85938,3.60675 1.2002,5.43915 l -14.2544,10.80499 c 0.10852,1.80286 0.14881,3.617 0.11267,5.44482 l 14.66889,10.21216 c -0.12812,0.91974 -0.2721,1.84052 -0.43555,2.76172 -0.16345,0.9212 -0.34503,1.83533 -0.54114,2.74292 l -17.28674,4.54236 c -0.59491,1.7287 -1.25751,3.422 -1.97961,5.07745 l 9.66705,15.04938 c -0.95038,1.60333 -1.9483,3.16699 -2.99811,4.69421 l -17.72119,-2.44714 c -1.20386,1.36359 -2.46448,2.67432 -3.77374,3.92963 l 3.15838,17.60199 c -1.49115,1.11786 -3.01971,2.18243 -4.58246,3.19806 l -15.44085,-9.02118 c -1.62921,0.79742 -3.28974,1.53094 -4.98499,2.19592 l -3.79809,17.47754 c -1.79523,0.46039 -3.61054,0.85876 -5.44287,1.19952 l -10.80506,-14.25433 c -1.34405,0.0844 -2.69812,0.12775 -4.05859,0.12775 -0.46137,0 -0.92353,-0.005 -1.38623,-0.0151 l -10.21289,14.67261 c -0.91901,-0.1319 -1.83979,-0.27582 -2.76099,-0.43927 -0.9212,-0.16345 -1.83533,-0.3451 -2.74359,-0.53742 l -4.54169,-17.29046 c -1.72937,-0.59119 -3.42267,-1.25379 -5.07367,-1.97895 l -15.04937,9.667 c -1.60334,-0.95038 -3.17078,-1.94898 -4.69806,-2.99878 l 2.44647,-17.71741 c -1.36286,-1.20758 -2.6698,-2.46759 -3.92511,-3.77686 l -17.60199,3.15845 c -1.11792,-1.49127 -2.18622,-3.02045 -3.20191,-4.58313 l 9.02124,-15.44098 c -0.79742,-1.62909 -1.53094,-3.28973 -2.19598,-4.98492 l -17.47745,-3.7981 c -0.46039,-1.79516 -0.85879,-3.61053 -1.20025,-5.43915 l 14.25436,-10.80505 c -0.10852,-1.80279 -0.14819,-3.62073 -0.11206,-5.44855 l -14.66882,-10.21215 c 0.12817,-0.91968 0.272,-1.84052 0.43548,-2.76172 0.16346,-0.92121 0.34513,-1.83527 0.54123,-2.74292 l 17.28671,-4.54236 c 0.59491,-1.7287 1.25684,-3.41821 1.97895,-5.07367 l -9.66703,-15.04938 c 0.95041,-1.60327 1.94901,-3.17078 2.9982,-4.69421 l 17.72175,2.44336 c 1.20385,-1.36365 2.46386,-2.67054 3.77307,-3.92585 l -3.15845,-17.60199 c 1.49133,-1.11785 3.02051,-2.18621 4.58252,-3.19805 l 15.44165,9.01739 c 1.62909,-0.79742 3.28973,-1.53088 4.98419,-2.19214 l 3.79883,-17.48132 c 1.79517,-0.46033 3.61047,-0.8587 5.44226,-1.19574 l 10.80566,14.25055 c 1.3404,-0.0814 2.69104,-0.12409 4.0484,-0.12409 0.46442,0 0.92988,0.005 1.3957,0.0152 l 10.21289,-14.67261 m -11.49811,122.81678 c 19.85187,0 37.45141,-14.22339 41.04034,-34.45075 4.02594,-22.69061 -11.10388,-44.35211 -33.79815,-48.37872 -2.46698,-0.43775 -4.91809,-0.64899 -7.33924,-0.6488 -19.85193,0.002 -37.45117,14.2229 -41.03955,34.44696 -4.02661,22.69433 11.10315,44.35583 33.79755,48.3825 2.46698,0.43769 4.91791,0.64881 7.33905,0.64881 m 7.28229,-132.51392 -3.1709,4.55554 -5.78284,8.30799 -6.12164,-8.07331 -3.34894,-4.41656 -5.45117,1.00299 c -2.03321,0.37414 -4.06842,0.82135 -6.04914,1.32928 l -5.37982,1.37952 -1.17938,5.42718 -2.15124,9.89936 -8.74018,-5.10394 -4.78296,-2.7931 -4.64862,3.01136 c -1.71533,1.11108 -3.427,2.30554 -5.0874,3.55011 l -4.44067,3.32855 0.9801,5.46252 1.78772,9.96302 -10.03638,-1.38373 -5.49502,-0.75763 -3.14634,4.56836 c -1.14193,1.65814 -2.26165,3.41101 -3.328,5.20978 l -2.83298,4.77911 3.00263,4.67438 5.47574,8.52447 -9.78928,2.57227 -5.34296,1.40393 -1.1668,5.39972 c -0.22584,1.04522 -0.42966,2.07855 -0.60584,3.07135 -0.17578,0.99078 -0.33987,2.03106 -0.48773,3.09198 l -0.76254,5.47192 4.53421,3.15662 8.30902,5.7846 -8.07703,6.1225 -4.43097,3.35871 1.0206,5.46557 c 0.38229,2.04743 0.82956,4.07379 1.32944,6.02289 l 1.37964,5.37958 5.427,1.17938 9.89776,2.15094 -5.10522,8.73822 -2.7995,4.79169 3.0242,4.65301 c 1.12024,1.72364 2.3136,3.4317 3.54685,5.07691 l 3.32861,4.4403 5.46219,-0.9801 9.96118,-1.78741 -1.3855,10.03369 -0.7597,5.50171 4.57702,3.14612 c 1.66608,1.14526 3.41803,2.26367 5.20703,3.32403 l 4.779,2.83277 4.67425,-3.00251 8.52387,-5.47534 2.57202,9.79187 1.41015,5.36847 5.43006,1.14984 c 1.0899,0.23078 2.08288,0.42517 3.0357,0.59424 0.9524,0.16901 1.95166,0.32812 3.05506,0.48645 l 5.4942,0.78839 3.1709,-4.55554 5.78375,-8.30939 6.11993,8.07361 3.35608,4.42737 5.46192,-1.01587 c 2.04535,-0.38043 4.07507,-0.82782 6.03283,-1.3299 l 5.3797,-1.37957 1.17939,-5.42713 2.15094,-9.8977 8.73815,5.10516 4.79145,2.79932 4.65295,-3.02393 c 1.74573,-1.13452 3.45374,-2.3266 5.07654,-3.54321 l 4.44018,-3.32855 -0.98004,-5.4621 -1.78808,-9.96533 10.03503,1.38574 5.50171,0.7597 3.14612,-4.5769 c 1.15265,-1.67688 2.27081,-3.42749 3.32342,-5.20331 l 2.83277,-4.77905 -3.0025,-4.6742 -5.47773,-8.52758 9.79193,-2.57294 5.3429,-1.40393 1.16681,-5.3996 c 0.22552,-1.04352 0.42932,-2.07696 0.60577,-3.07153 0.17633,-0.99365 0.34046,-2.03406 0.48792,-3.09235 l 0.7622,-5.47168 -4.53393,-3.15643 -8.30682,-5.78302 8.07415,-6.1203 4.42749,-3.35608 -1.01593,-5.46204 c -0.38263,-2.0567 -0.83093,-4.08776 -1.33258,-6.03668 l -1.38263,-5.37182 -5.42016,-1.17914 -9.89991,-2.15363 5.10608,-8.7398 2.79926,-4.79126 -3.02374,-4.65296 c -1.12964,-1.73828 -2.32599,-3.44891 -3.55585,-5.08435 l -3.32892,-4.42682 -5.45196,0.97717 -9.96265,1.78559 1.38519,-10.0315 0.75812,-5.49005 -4.56128,-3.14813 c -1.67511,-1.15613 -3.43671,-2.2807 -5.2359,-3.34253 l -4.77338,-2.81714 -4.66394,2.99488 -8.52545,5.47454 -2.57159,-9.79028 -1.41016,-5.36853 -5.43024,-1.14984 c -1.19952,-0.25397 -2.13549,-0.43842 -3.03485,-0.59796 -0.90088,-0.15979 -1.84308,-0.30866 -3.05572,-0.48267 z m -7.28229,123.51392 c -1.91779,0 -3.85803,-0.1717 -5.76679,-0.51038 -17.76995,-3.15295 -29.6615,-20.17664 -26.50824,-37.94861 2.77765,-15.65466 16.31079,-27.01788 32.17878,-27.01928 1.91833,0 3.85742,0.17169 5.76617,0.51037 17.76984,3.15296 29.66168,20.17487 26.50885,37.94483 -2.7782,15.6582 -16.31134,27.02307 -32.17877,27.02307 z"
         id="path25" />
    </g>
    <g
       id="g27">
      <path
         class="d"
         d="m 585.38173,470.21904 c -2.85059,-0.4043 -5.46875,-0.82129 -8.00195,-1.27539 -2.30762,-0.40723 -4.82715,-0.89844 -7.91797,-1.5459 l -2.72364,-0.57031 -12.99707,-49.48194 c -3.3955,-1.20849 -6.82812,-2.54785 -10.25097,-4.00048 l -43.04981,27.66552 -2.38965,-1.41504 c -4.62793,-2.74023 -9.20507,-5.66162 -13.60449,-8.68261 l -2.29004,-1.57276 7.00293,-50.69482 c -2.68847,-2.44629 -5.33984,-5.00049 -7.91894,-7.62891 l -50.3584,9.03565 -1.66455,-2.21436 c -3.17871,-4.22802 -6.29737,-8.69433 -9.26856,-13.27539 l -1.50781,-2.32471 11.9165,-20.4082 0.01,-0.0102 13.87451,-23.75879 c -1.5664,-3.30518 -3.04883,-6.67236 -4.42773,-10.05664 l -50.02393,-10.87354 -0.68701,-2.69531 c -1.30225,-5.10937 -2.4668,-10.3999 -3.4624,-15.72461 l -0.51074,-2.73291 40.79101,-30.92578 c -0.17676,-3.66064 -0.25293,-7.34326 -0.22754,-10.99854 l -41.9624,-29.21044 0.375,-2.73096 c 0.37305,-2.7168 0.7998,-5.41944 1.26904,-8.03272 0.4253,-2.41357 0.93555,-5.01269 1.55762,-7.9331 l 0.57764,-2.70996 49.47168,-12.99756 c 1.22656,-3.41699 2.56396,-6.84375 3.99463,-10.23291 l -27.66993,-43.06543 1.41504,-2.38916 c 2.76953,-4.67725 5.69287,-9.25049 8.68799,-13.59229 l 1.57373,-2.281247 50.69141,6.991207 c 2.42676,-2.67773 4.98047,-5.33252 7.62695,-7.928707 l -9.03809,-50.366699 2.22559,-1.663574 c 4.41699,-3.302246 8.87793,-6.415039 13.25879,-9.252442 l 2.32422,-1.505371 44.18066,25.797852 c 3.31055,-1.573731 6.67969,-3.057129 10.0625,-4.430176 l 4.45215,-20.464355 4.11524,-18.952637 4.47265,1.075683 c 13.14258,3.160645 26.25586,6.95752 38.97754,11.285645 l 1.30469,0.443848 9.63769,12.713379 c 3.14063,-0.151856 6.28809,-0.228516 9.38477,-0.228516 0.53613,0 1.07226,0.002 1.60937,0.0063 l 2.63672,-3.782715 3.34766,1.393554 c 41.20508,17.148926 79.57715,40.36377 114.05176,68.999021 34.22656,28.4292 63.97461,61.66699 88.41699,98.79053 l 2.31641,3.51855 -15.18848,11.50342 -4.15332,3.15625 c 0.17676,3.66113 0.25293,7.34033 0.22754,10.98779 l 41.97265,29.22852 -0.38867,2.7417 c -0.43652,3.08301 -0.83887,5.62598 -1.26465,8.00244 -0.30859,1.76465 -0.65136,3.54785 -1.0166,5.28174 -0.15137,0.77099 -0.32422,1.58496 -0.49707,2.39941 0,0 -0.0625,0.29248 -0.084,0.38135 l -0.63184,2.58936 -3.66699,0.98388 h -0.0244 l -3.57031,0.9336 -42.11523,11.07129 c -1.22852,3.43164 -2.56641,6.86474 -3.9961,10.25341 l 27.66016,43.06787 -1.41797,2.38965 c -2.76269,4.65821 -5.68066,9.22803 -8.66992,13.58155 l -1.57324,2.29052 -50.70801,-7.00195 c -2.42969,2.68311 -4.98047,5.33984 -7.61719,7.93408 l 9.03711,50.35498 -2.21875,1.66455 c -4.1914,3.14453 -8.6543,6.26075 -13.26465,9.26221 l -2.32715,1.51514 -44.18164,-25.81397 c -3.30761,1.5669 -6.6748,3.04932 -10.05664,4.42725 l -10.87304,50.02392 -2.69532,0.68653 c -5.27148,1.34375 -10.57324,2.50976 -15.75586,3.46484 l -2.72656,0.50195 -30.90722,-40.77978 c -3.15625,0.1582 -6.292,0.23828 -9.35352,0.23828 -0.54785,0 -1.0957,-0.002 -1.64453,-0.008 l -29.22363,41.97705 z m 33.29394,-348.73682 c -55.29492,0 -102.44921,39.57764 -112.12109,94.10694 -5.32324,29.98877 1.34961,60.25342 18.79004,85.22021 17.43945,24.9668 43.55859,41.64551 73.54492,46.96338 6.63574,1.17871 13.38574,1.77637 20.06543,1.77637 20.78711,0 41.20899,-5.74365 59.05859,-16.60938 6.8252,-4.14502 13.22168,-9.01318 19.01465,-14.47119 3.81153,-3.58789 7.37305,-7.43457 10.58887,-11.43408 4.93945,-6.10938 9.25488,-12.77393 12.83496,-19.81934 5.05957,-9.96191 8.62988,-20.6582 10.61133,-31.79004 10.97851,-61.89209 -30.44336,-121.18505 -92.33594,-132.17089 -6.62988,-1.17578 -13.37695,-1.77198 -20.05176,-1.77198 z"
         id="path26" />
      <path
         class="e"
         d="m 558.30391,22.553757 c 13.09985,3.149917 25.97003,6.880005 38.57983,11.169922 l 10.25,13.52008 c 3.81757,-0.23159 7.66278,-0.351608 11.52783,-0.3516 1.30854,0 2.61951,0.01376 3.93226,0.0416 l 1.93011,-2.770088 c 82.26996,34.240005 152,92.539999 200.43988,166.109999 l -11.83008,8.96008 -5.03991,3.83002 -1.02002,0.76989 c 0.30993,5.12003 0.42004,10.27002 0.31994,15.46003 l 17.84009,12.41998 11.30005,7.86999 12.52002,8.7201 c -0.37006,2.60992 -0.77002,5.21991 -1.23999,7.8399 -0.30011,1.72009 -0.63007,3.44 -0.99011,5.15003 -0.16004,0.80999 -0.32996,1.60998 -0.5,2.41 -0.0199,0.08 -0.0299,0.14999 -0.0499,0.23007 l -0.52008,0.13992 h -0.01 l -4.13,1.07999 -22.75,5.98001 -21.68,5.69998 c -1.69,4.9101 -3.57,9.7201 -5.61993,14.42011 l 11.07983,17.25 16.37006,25.4899 c -2.69989,4.55002 -5.52997,8.99002 -8.50995,13.33008 l -50.33014,-6.94999 c -3.40991,3.86991 -6.98987,7.58991 -10.7099,11.15992 l 8.97003,49.98001 c -4.24005,3.18008 -8.58001,6.19998 -13.02008,9.09005 L 724.4638,418.36375 701.5639,404.98369 c -4.62012,2.25998 -9.34009,4.34006 -14.15015,6.22998 l -4,18.39007 -4.06994,18.73002 -2.71997,12.51998 c -5.09992,1.29993 -10.25,2.43995 -15.46009,3.39994 l -30.67993,-40.48001 c -3.80505,0.23834 -7.643,0.36569 -11.49396,0.36569 -1.32068,0 -2.64319,-0.015 -3.96594,-0.0456 l -29.01013,41.66989 c -2.61005,-0.37 -5.21991,-0.77997 -7.84009,-1.24997 -2.6098,-0.45993 -5.2099,-0.98001 -7.78998,-1.52002 l -12.8999,-49.10999 c -4.91003,-1.67001 -9.72003,-3.55993 -14.41003,-5.61999 l -42.72998,27.45999 c -4.55994,-2.70001 -9.01001,-5.53992 -13.34998,-8.52008 l 6.94995,-50.30994 c -3.86999,-3.42999 -7.57995,-7.00998 -11.13989,-10.72998 l -28.20007,5.06 -21.78992,3.91 c -3.18018,-4.23001 -6.21008,-8.57992 -9.09009,-13.01993 l 10.23001,-17.52008 0.01,-0.01 15.37,-26.31997 c -2.25998,-4.62003 -4.34,-9.33994 -6.22998,-14.14994 l -49.64002,-10.79007 c -1.30008,-5.1 -2.4299,-10.25 -3.3999,-15.44 l 40.47998,-30.68991 c -0.31006,-5.12009 -0.42008,-10.28009 -0.32007,-15.47009 l -41.65991,-29 c 0.35983,-2.62 0.7699,-5.22992 1.23999,-7.84992 0.45993,-2.61009 0.98001,-5.21008 1.52991,-7.79008 l 49.1,-12.89992 c 1.69,-4.90008 3.57001,-9.7 5.62009,-14.40008 l -27.46008,-42.74001 c 2.70007,-4.55991 5.53991,-9.00999 8.52002,-13.33 l 50.32,6.94 c 3.41999,-3.87999 7,-7.5899 10.71991,-11.149919 L 479.18385,49.51368 c 4.23987,-3.170006 8.57996,-6.209923 13.00995,-9.079918 l 43.86011,25.609916 c 4.61981,-2.270004 9.33984,-4.349922 14.1499,-6.229919 l 3.61011,-16.610085 1.34985,-6.189994 3.14014,-14.459923 m 60.65051,331.495513 c 22.12396,0 43.26581,-6.22674 61.39942,-17.26559 7.08001,-4.29993 13.71008,-9.33991 19.76001,-15.03992 3.92004,-3.69 7.60998,-7.6601 11.01001,-11.89008 5.10998,-6.32 9.58996,-13.22 13.33996,-20.59991 5.16004,-10.1601 8.92993,-21.24008 11.03003,-33.0401 11.42987,-64.43999 -31.53003,-125.95 -95.98004,-137.39 -7.00195,-1.24178 -13.96619,-1.84146 -20.83838,-1.84129 -56.38257,10e-4 -106.36328,40.38231 -116.55157,97.82138 -11.44001,64.45001 31.5299,125.96991 95.97998,137.39984 7.00689,1.24487 13.97387,1.84567 20.85058,1.84567 m -67.49286,-342.397262 -1.95263,8.991837 -3.1402,14.459915 -1.34815,6.182419 -2.6026,11.974441 c -1.98932,0.836518 -3.97003,1.708626 -5.93353,2.612534 l -39.75244,-23.211479 -4.7832,-2.792832 -4.6485,3.011498 c -4.47064,2.896332 -9.01459,6.067505 -13.50562,9.425255 l -4.45086,3.327667 0.9815,5.469917 8.12976,45.307724 c -1.53607,1.544174 -3.03851,3.105942 -4.50018,4.677806 l -45.61151,-6.290614 -5.49057,-0.757248 -3.14734,4.562332 c -3.05432,4.42766 -6.03391,9.08916 -8.85584,13.85492 l -2.82949,4.77841 3.00183,4.672 24.89471,38.74711 c -0.81836,2.00284 -1.60409,4.01529 -2.35345,6.02781 l -44.51633,11.69566 -5.36008,1.40825 -1.15527,5.42016 c -0.633,2.96993 -1.1535,5.62084 -1.59106,8.10442 -0.47477,2.64584 -0.91144,5.40967 -1.29294,8.18718 l -0.75006,5.46158 4.52456,3.14956 37.76871,26.2913 c 0.0104,2.15991 0.0553,4.32568 0.13434,6.4873 l -36.69855,27.823 -4.43106,3.35943 1.02158,5.46582 c 1.01291,5.41941 2.19906,10.80585 3.52566,16.00974 l 1.37399,5.39001 5.43543,1.18149 45.00543,9.78269 c 0.83688,1.98629 1.70798,3.96472 2.60916,5.92584 l -12.38861,21.2146 -2.4e-4,2.1e-4 -0.59616,1.01383 -10.23001,17.52011 -2.79459,4.78616 3.01602,4.64975 c 3.02658,4.66589 6.20499,9.21823 9.44699,13.53049 l 3.32968,4.42883 5.45365,-0.97867 21.78991,-3.91 23.517,-4.21973 c 1.53614,1.52887 3.09449,3.03015 4.66901,4.49817 l -6.3009,45.61139 -0.7605,5.50501 4.58124,3.14584 c 4.48333,3.07858 9.14617,6.0545 13.85907,8.84509 l 4.77893,2.82965 4.67224,-3.00259 38.72748,-24.88782 c 2.01947,0.82813 4.03924,1.61673 6.05029,2.36231 l 11.69183,44.51068 1.41382,5.3826 5.44708,1.14007 c 3.13275,0.65564 5.69757,1.15582 8.07184,1.57428 2.5614,0.45947 5.23248,0.8855 8.13886,1.29749 l 5.48449,0.77746 3.16498,-4.54614 26.29358,-37.76794 c 2.13733,-0.008 4.30676,-0.0542 6.49054,-0.13718 l 27.80682,36.68912 3.34967,4.41967 5.4538,-1.00494 c 5.27759,-0.97241 10.67828,-2.15997 16.05219,-3.52972 l 5.3908,-1.37409 1.18109,-5.43643 2.72004,-12.51999 4.06982,-18.72958 2.9917,-13.75452 c 1.98621,-0.83679 3.96436,-1.70776 5.92566,-2.60898 l 18.79761,10.98316 20.95007,12.24017 4.79535,2.80167 4.65454,-3.02976 c 4.68713,-3.05084 9.23273,-6.22458 13.5105,-9.43298 l 4.43841,-3.32892 -0.98004,-5.46085 -8.13092,-45.30478 c 1.5318,-1.54345 3.03174,-3.10549 4.4931,-4.67923 l 45.61823,6.29935 5.50494,0.76016 3.14557,-4.58123 c 3.04425,-4.43369 6.01526,-9.08735 8.83051,-13.83167 l 2.83624,-4.77969 -3.0033,-4.67649 -16.37011,-25.48992 -8.51636,-13.25895 c 0.81927,-2.00705 1.60645,-4.02633 2.35822,-6.04931 l 17.09393,-4.49423 22.74945,-5.97983 2.99945,-0.78434 h 0.032 l 1.15863,-0.30902 0.52008,-0.13989 5.11121,-1.37509 1.28253,-5.13525 c 0.0331,-0.13288 0.0619,-0.25937 0.0883,-0.38431 l 8.5e-4,-0.003 0.0323,-0.15234 c 0.1753,-0.82495 0.35016,-1.64991 0.51569,-2.48474 0.3717,-1.76892 0.72058,-3.58506 1.03705,-5.39927 0.43005,-2.39706 0.84076,-4.99173 1.28473,-8.12307 l 0.77758,-5.48349 -4.54467,-3.16535 -12.51996,-8.72006 -11.30029,-7.87009 -13.95057,-9.71228 c -0.0105,-2.15667 -0.0553,-4.31948 -0.13427,-6.47897 l 2.28662,-1.73767 11.81854,-8.95132 6.71625,-5.08686 -4.63324,-7.03691 C 807.79365,167.82985 777.74886,134.25984 743.18074,105.54675 708.36073,76.624344 669.60231,53.176506 627.98207,35.854592 l -6.69617,-2.786919 -3.36248,4.82592 c -2.14698,0.0082 -4.31458,0.05215 -6.48475,0.131287 l -7.38299,-9.738457 -1.66467,-2.195747 -2.60859,-0.887414 C 586.92836,20.830261 573.6808,16.994675 560.40797,13.803177 Z m 67.49286,333.397262 c -6.41595,0 -12.90143,-0.57425 -19.27624,-1.70694 -28.80561,-5.10849 -53.8935,-21.12872 -70.64496,-45.10998 -16.75122,-23.98093 -23.16071,-53.05118 -18.04791,-81.85569 9.29034,-52.37707 54.58062,-90.3929 107.69036,-90.39431 6.41297,0 12.89435,0.57299 19.26661,1.70307 59.4483,10.55217 99.23498,67.50467 88.68988,126.95641 -1.90265,10.69052 -5.33222,20.96625 -10.19275,30.53659 -3.4361,6.76209 -7.57941,13.16077 -12.31415,19.0166 -3.1012,3.85825 -6.52088,7.55081 -10.18018,10.99539 -5.56781,5.24585 -11.71148,9.92176 -18.26306,13.90085 -17.15246,10.4415 -36.76568,15.95801 -56.7276,15.95801 z"
         id="path27" />
    </g>
    <g
       id="g29">
      <path
         class="d"
         d="m 307.25331,753.28935 c -0.87256,-0.125 -1.74658,-0.26172 -2.62109,-0.41699 -0.87549,-0.15527 -1.74414,-0.32812 -2.60742,-0.51172 l -2.71241,-0.57617 -4.17578,-15.89746 c -0.11474,-0.0439 -0.22949,-0.0889 -0.34375,-0.13379 l -13.83935,8.88965 -2.38965,-1.41602 c -1.52735,-0.90527 -3.02881,-1.86426 -4.46289,-2.84961 l -2.28907,-1.57324 2.25,-16.29785 c -0.0879,-0.084 -0.17578,-0.16797 -0.26318,-0.25293 l -16.18457,2.90527 -1.66406,-2.22168 c -1.06006,-1.41504 -2.08301,-2.87988 -3.04053,-4.35351 l -1.51221,-2.32617 8.29444,-14.19727 c -0.0493,-0.11133 -0.0986,-0.22266 -0.14698,-0.33398 l -16.07617,-3.49317 -0.68994,-2.68945 c -0.42773,-1.66797 -0.81152,-3.40527 -1.14014,-5.16602 l -0.51074,-2.73242 13.11328,-9.94043 c -0.003,-0.12207 -0.005,-0.24512 -0.008,-0.36816 l -13.48096,-9.38477 0.38086,-2.73535 c 0.12256,-0.87988 0.26026,-1.76074 0.41651,-2.64062 0.15625,-0.87989 0.32959,-1.75293 0.5166,-2.62012 l 0.58203,-2.70117 15.88965,-4.17578 c 0.0439,-0.11329 0.0879,-0.22657 0.13281,-0.33887 l -8.89209,-13.84278 1.41651,-2.38964 c 0.9165,-1.5459 1.87597,-3.04786 2.85205,-4.46387 l 1.57324,-2.28418 16.29443,2.24707 c 0.084,-0.0879 0.16846,-0.17578 0.25342,-0.26367 l -2.9043,-16.18555 2.22168,-1.66406 c 1.43213,-1.07324 2.89893,-2.0957 4.35889,-3.04102 l 2.32373,-1.50488 14.19238,8.28809 c 0.11182,-0.0498 0.22315,-0.0986 0.33448,-0.14747 l 3.49365,-16.07714 2.69092,-0.68946 c 1.7041,-0.43652 3.44677,-0.81933 5.18017,-1.13769 l 2.7251,-0.50098 9.93457,13.10254 c 0.12256,-0.003 0.24463,-0.006 0.3667,-0.008 l 9.39111,-13.49219 2.74707,0.39453 c 0.87256,0.125 1.74707,0.25781 2.62207,0.41309 0.87549,0.15527 1.74317,0.33105 2.60596,0.51465 l 2.71289,0.57519 4.17676,15.89844 c 0.11377,0.0439 0.22754,0.0889 0.34131,0.13379 l 13.83593,-8.88477 2.38623,1.40723 c 1.53321,0.9043 3.03956,1.86621 4.47852,2.8584 l 2.28174,1.57324 -2.24951,16.29102 c 0.0874,0.084 0.17431,0.16796 0.26172,0.25195 l 16.18115,-2.89942 1.66455,2.21387 c 1.05469,1.40332 2.07959,2.86914 3.04541,4.35547 l 1.51221,2.32617 -8.29493,14.19727 c 0.0493,0.11133 0.0986,0.22265 0.14698,0.33398 l 16.07422,3.4961 0.69091,2.68652 c 0.42969,1.66992 0.81397,3.41016 1.1416,5.17285 l 0.50733,2.73047 -13.11035,9.93848 c 0.003,0.12207 0.005,0.24316 0.008,0.36523 l 13.48145,9.38477 -0.38086,2.73535 c -0.12256,0.87988 -0.26026,1.76074 -0.41651,2.64062 -0.15625,0.87989 -0.32959,1.75293 -0.5166,2.62012 l -0.58203,2.70117 -15.88916,4.17578 c -0.0444,0.11426 -0.0889,0.22852 -0.13379,0.34278 l 8.8916,13.84277 -1.4165,2.38965 c -0.8999,1.51758 -1.85791,3.01758 -2.84766,4.45898 l -1.57324,2.29004 -16.29736,-2.25097 c -0.0845,0.0889 -0.16944,0.17675 -0.25489,0.26562 l 2.90381,16.18359 -2.21875,1.66407 c -1.39062,1.04297 -2.85547,2.06543 -4.354,3.04004 l -2.32666,1.51171 -14.19629,-8.29492 c -0.11133,0.0498 -0.22266,0.0986 -0.33399,0.14746 l -3.49365,16.07715 -2.69092,0.68945 c -1.68798,0.43262 -3.42822,0.81543 -5.17334,1.13965 l -2.72949,0.50586 -9.93555,-13.10644 c -0.12304,0.003 -0.24609,0.006 -0.36914,0.008 l -9.39111,13.49316 z m 10.9419,-110.00586 c -15.94922,0 -29.55127,11.41895 -32.34327,27.15235 -1.53466,8.65234 0.39063,17.38379 5.42188,24.58691 5.03174,7.20313 12.56738,12.01465 21.21875,13.54981 1.91553,0.33984 3.86377,0.51171 5.79053,0.51171 15.94921,0 29.55127,-11.41992 32.34375,-27.15527 3.16845,-17.8584 -8.78272,-34.96484 -26.64112,-38.13379 -1.91552,-0.33984 -3.86377,-0.51172 -5.79052,-0.51172 z"
         id="path28" />
      <path
         class="e"
         d="m 328.58556,603.53325 c 0.82351,0.11822 1.6492,0.24377 2.4747,0.3902 0.82544,0.14648 1.64389,0.31268 2.45779,0.48498 l 4.06967,15.49341 c 1.54959,0.52966 3.0669,1.12341 4.54694,1.7699 l 13.48462,-8.65894 c 1.43725,0.84827 2.84179,1.74304 4.20968,2.68714 l -2.19213,15.87591 c 1.22186,1.07874 2.39233,2.21112 3.51779,3.38092 l 15.77185,-2.82678 c 1.00235,1.33289 1.95962,2.70312 2.86969,4.10339 l -8.08356,13.83612 c 0.7146,1.45978 1.37115,2.95118 1.96768,4.4668 l 15.66043,3.40674 c 0.41309,1.60522 0.77005,3.23187 1.07544,4.87384 l -12.77282,9.68201 c 0.0972,1.61547 0.13333,3.24102 0.10095,4.87884 l 13.14425,9.15082 c -0.11483,0.8241 -0.2438,1.64917 -0.39025,2.47467 -0.14646,0.82544 -0.30921,1.64453 -0.48493,2.45782 l -15.49005,4.07026 c -0.53302,1.54901 -1.12677,3.06628 -1.77387,4.54968 l 8.6623,13.48523 c -0.8516,1.43664 -1.74576,2.83783 -2.6865,4.20636 l -15.87933,-2.19281 c -1.0787,1.22186 -2.20831,2.3963 -3.3815,3.52118 l 2.83011,15.77252 c -1.33621,1.00171 -2.70581,1.95557 -4.10617,2.86566 l -13.83603,-8.08356 c -1.45978,0.7146 -2.94785,1.37183 -4.46683,1.96772 l -3.40335,15.66101 c -1.60861,0.41247 -3.23529,0.76947 -4.8772,1.07483 l -9.682,-12.77283 c -1.20401,0.0756 -2.41706,0.1145 -3.63587,0.1145 -0.41372,0 -0.82812,-0.005 -1.24304,-0.0136 l -9.15143,13.14764 c -0.82348,-0.11822 -1.64853,-0.24713 -2.474,-0.39361 -0.82544,-0.14649 -1.64456,-0.30927 -2.45843,-0.48157 l -4.06967,-15.49341 c -1.54959,-0.52966 -3.0669,-1.12341 -4.54636,-1.77325 l -13.48514,8.66229 c -1.43673,-0.85162 -2.84128,-1.7464 -4.20977,-2.68713 l 2.19216,-15.87592 c -1.22125,-1.08209 -2.39233,-2.21112 -3.51715,-3.38434 l -15.77249,2.8302 c -1.00171,-1.33624 -1.95901,-2.70648 -2.86911,-4.10681 l 8.08359,-13.83606 c -0.71457,-1.45977 -1.37183,-2.94781 -1.96771,-4.46685 l -15.66098,-3.40333 c -0.41251,-1.60858 -0.7695,-3.23529 -1.07547,-4.87384 l 12.77279,-9.682 c -0.0972,-1.61548 -0.13272,-3.24439 -0.10037,-4.88227 l -13.14422,-9.15075 c 0.11483,-0.8241 0.24377,-1.64923 0.39022,-2.47467 0.14646,-0.82544 0.30924,-1.64453 0.48496,-2.45789 l 15.49005,-4.07019 c 0.53302,-1.54901 1.12619,-3.06293 1.77322,-4.54639 l -8.66226,-13.48516 c 0.85163,-1.43665 1.74643,-2.84125 2.68656,-4.20636 l 15.87985,2.18945 c 1.0787,-1.22192 2.20779,-2.39295 3.38095,-3.51782 l -2.8302,-15.77253 c 1.33627,-1.0017 2.70654,-1.95898 4.10623,-2.86572 l 13.83673,8.08026 c 1.45975,-0.7146 2.94779,-1.37182 4.46616,-1.96435 l 3.40396,-15.66437 c 1.60861,-0.41254 3.23526,-0.76947 4.87662,-1.07147 l 9.68261,12.76941 c 1.20087,-0.0729 2.41092,-0.11115 3.62696,-0.11115 0.41638,0 0.83368,0.005 1.25128,0.0136 l 9.1514,-13.14764 m -10.30295,110.05176 c 17.78851,0 33.5588,-12.74506 36.77469,-30.87006 3.60754,-20.33227 -9.94974,-39.74237 -30.28531,-43.35046 -2.21057,-0.39222 -4.40695,-0.58155 -6.57648,-0.58136 -17.78857,0.002 -33.55865,12.74463 -36.77402,30.8667 -3.60815,20.33557 9.9491,39.74572 30.28479,43.35382 2.21054,0.39221 4.40683,0.58136 6.57633,0.58136 m 6.08746,-119.74939 -3.17129,4.55609 -4.44632,6.38794 -4.70768,-6.2085 -3.34893,-4.4165 -5.45111,1.00299 c -1.84375,0.33917 -3.68876,0.74463 -5.4838,1.20495 l -5.37967,1.37964 -1.17932,5.42707 -1.65408,7.61181 -6.71949,-3.92401 -4.78308,-2.79321 -4.64874,3.01153 c -1.55569,1.00782 -3.10718,2.09046 -4.61121,3.21796 l -4.44043,3.32861 0.98017,5.46228 1.37445,7.65967 -7.71726,-1.06402 -5.49527,-0.75769 -3.14633,4.56866 c -1.03555,1.50366 -2.05032,3.09235 -3.01623,4.72174 l -2.83292,4.77912 3.00256,4.67431 4.21091,6.55536 -7.52676,1.97778 -5.34326,1.404 -1.1666,5.40002 c -0.20486,0.94836 -0.38974,1.88568 -0.5495,2.78607 -0.15961,0.8996 -0.30847,1.84326 -0.44247,2.80481 l -0.76252,5.47186 4.53418,3.15662 6.38892,4.44782 -6.21167,4.70861 -4.43094,3.35871 1.0206,5.46557 c 0.34634,1.8548 0.75162,3.69092 1.20462,5.4574 l 1.37958,5.37982 5.42718,1.17932 7.61005,1.65375 -3.92471,6.71765 -2.79938,4.79145 3.02399,4.65301 c 1.01516,1.56201 2.09655,3.10992 3.21417,4.60077 l 3.32861,4.44031 5.46222,-0.98011 7.65775,-1.37414 -1.06525,7.71466 -0.75967,5.50153 4.57669,3.14611 c 1.50927,1.03754 3.09698,2.05109 4.71893,3.01252 l 4.77908,2.83288 4.67426,-3.00256 6.55469,-4.21045 1.97766,7.52893 1.41018,5.36877 5.43061,1.14966 c 0.98779,0.20911 1.88723,0.38513 2.74966,0.53827 0.86194,0.15289 1.76709,0.297 2.76749,0.44068 l 5.49472,0.789 3.17129,-4.55609 4.44712,-6.3891 4.70611,6.20849 3.35593,4.42731 5.46182,-1.01575 c 1.85288,-0.34454 3.69235,-0.75 5.46732,-1.2052 l 5.37979,-1.37951 1.17941,-5.42719 1.65378,-7.61011 6.71759,3.92469 4.7915,2.79937 4.65296,-3.02398 c 1.58175,-1.02802 3.12948,-2.10828 4.60025,-3.21082 l 4.44012,-3.32867 -0.98004,-5.46204 -1.37472,-7.66144 7.71575,1.06549 5.50168,0.75971 3.14612,-4.57685 c 1.04447,-1.51934 2.05783,-3.10595 3.01193,-4.71551 l 2.83274,-4.77905 -3.00251,-4.6742 -4.21264,-6.5581 7.5292,-1.97846 5.34317,-1.40399 1.16663,-5.3999 c 0.20468,-0.94745 0.38953,-1.88483 0.54944,-2.78601 0.15985,-0.90088 0.30871,-1.84455 0.44253,-2.80493 l 0.76252,-5.47181 -4.53412,-3.15661 -6.387,-4.44647 6.20911,-4.70667 4.42734,-3.35596 -1.01578,-5.46191 c -0.34637,-1.86231 -0.75269,-3.70306 -1.20767,-5.47113 l -1.38248,-5.37225 -5.4205,-1.1792 -7.61234,-1.65595 3.92563,-6.71924 2.79935,-4.79144 -3.02393,-4.65295 c -1.02423,-1.57605 -2.10861,-3.12653 -3.22299,-4.60834 l -3.32892,-4.4267 -5.45187,0.97711 -7.65936,1.37275 1.06503,-7.71296 0.75809,-5.49011 -4.56137,-3.14807 c -1.51911,-1.0484 -3.11634,-2.06805 -4.74744,-3.03076 l -4.77338,-2.8172 -4.66394,2.99493 -6.55627,4.20996 -1.97733,-7.52771 -1.41025,-5.36889 -5.43063,-1.14954 c -1.08679,-0.2301 -1.93454,-0.39709 -2.74881,-0.54162 -0.81564,-0.14466 -1.6691,-0.27948 -2.76831,-0.43732 z m -6.08746,110.74939 c -1.66379,0 -3.34738,-0.14905 -5.00406,-0.44294 -7.46777,-1.32501 -13.97232,-5.47882 -18.3154,-11.69641 -4.34314,-6.21759 -6.00522,-13.75494 -4.68008,-21.22357 2.40954,-13.58026 14.14874,-23.4378 27.91323,-23.43896 1.66407,0 3.34671,0.14904 5.00339,0.44293 7.46771,1.32501 13.97229,5.47876 18.31558,11.69617 4.34311,6.2171 6.00534,13.75335 4.68045,21.22039 -2.41012,13.58344 -14.14929,23.44239 -27.91311,23.44239 z"
         id="path29" />
    </g>
    <g
       id="g31">
      <path
         class="f"
         d="m 543.93739,745.56572 c -3.7207,-0.36523 -7.43652,-0.89551 -11.09863,-1.58301 l -29.22754,31.88574 -2.8125,-1.0039 c -6.2207,-2.22071 -12.43555,-4.88574 -18.47168,-7.92188 l -2.66894,-1.34277 2.90234,-43.17481 c -3.02734,-2.16894 -5.97168,-4.48242 -8.79297,-6.90917 l -41.26465,13.02832 -1.93506,-2.2754 c -4.34961,-5.11523 -8.4082,-10.52246 -12.0625,-16.07226 l -1.64355,-2.49609 24.07129,-35.93946 c -1.53418,-3.39453 -2.92774,-6.87988 -4.16309,-10.40918 l -42.23095,-9.37988 -0.5293,-2.94824 c -0.63819,-3.55371 -1.13135,-6.8086 -1.50781,-9.9502 -0.37696,-3.13867 -0.667,-6.41504 -0.88721,-10.01562 l -0.18262,-2.98926 38.81592,-19.09863 c 0.36572,-3.71875 0.89551,-7.4375 1.5835,-11.1084 l -31.8877,-29.23047 1.00684,-2.81348 c 2.23828,-6.25683 4.90283,-12.4707 7.91992,-18.46875 l 1.34228,-2.66894 43.17627,2.91308 c 2.1626,-3.01953 4.47608,-5.96582 6.90967,-8.7998 l -13.0293,-41.25781 2.27588,-1.93555 c 5.09571,-4.33203 10.50049,-8.39258 16.06494,-12.06836 l 2.49805,-1.65039 35.94238,24.08301 c 3.36133,-1.52246 6.84766,-2.91602 10.41211,-4.16211 l 9.37598,-42.22168 2.9375,-0.53613 c 3.33594,-0.60938 6.68848,-1.11719 9.96484,-1.50977 3.27832,-0.39355 6.65332,-0.69238 10.0293,-0.8877 l 2.98047,-0.17285 19.09375,38.80664 c 3.75586,0.36719 7.47559,0.89649 11.11035,1.58106 l 29.22949,-31.89942 2.81739,1.0127 c 6.27441,2.25488 12.48632,4.92187 18.46386,7.92773 l 2.66992,1.34278 -2.91503,43.16992 c 3.02636,2.17285 5.97265,4.4873 8.80078,6.91504 l 41.25683,-13.03906 1.93457,2.27636 c 4.34278,5.10742 8.4043,10.51758 12.07227,16.08008 l 1.64648,2.49707 -24.08203,35.92969 c 1.52442,3.37012 2.91797,6.85937 4.16309,10.4209 l 42.21875,9.37695 0.53808,2.93555 c 0.60743,3.31933 1.11621,6.66992 1.50879,9.95605 0.39551,3.29688 0.69434,6.67481 0.88867,10.04004 l 0.17286,2.97949 -38.80567,19.09375 c -0.36719,3.75782 -0.89648,7.47461 -1.58105,11.10157 l 31.89551,29.22656 -1.00879,2.81543 c -2.23731,6.24023 -4.90528,12.45312 -7.92969,18.46679 l -1.34277,2.66895 -43.16797,-2.90332 c -2.17871,3.03418 -4.49414,5.97754 -6.91602,8.79395 l 13.04004,41.26367 -2.27637,1.93554 c -5.12988,4.36133 -10.54199,8.41993 -16.08593,12.06446 l -2.49512,1.64062 -35.9375,-24.07031 c -3.39551,1.53418 -6.87988,2.92773 -10.41016,4.16309 l -9.3789,42.23242 -2.94825,0.52929 c -3.54882,0.63672 -6.80078,1.12891 -9.94043,1.50586 -3.13086,0.37598 -6.40918,0.66602 -10.02441,0.8877 l -2.99023,0.18359 z m 12.5752,-214.71094 c -3.53711,0 -7.12403,0.21485 -10.66113,0.63867 -48.48829,5.81543 -83.20508,49.98926 -77.39063,98.46973 5.33496,44.4834 43.08984,78.02734 87.82031,78.02734 3.53711,0 7.12403,-0.21484 10.66016,-0.63867 23.48535,-2.8164 44.46875,-14.61133 59.08301,-33.21191 14.61425,-18.60059 21.11132,-41.7793 18.29492,-65.2666 -5.33399,-44.47852 -43.08203,-78.01856 -87.80664,-78.01856 z"
         id="path30" />
      <path
         class="e"
         d="m 547.0312,459.13933 18.8946,38.40167 c 5.29547,0.41205 10.51385,1.15057 15.63537,2.2287 l 28.9184,-31.56 c 6.15668,2.21253 12.15643,4.79297 17.96435,7.71369 l -2.88385,42.71637 c 4.33441,2.98107 8.47986,6.23876 12.40137,9.74523 l 40.82312,-12.90234 c 4.21124,4.95258 8.13702,10.17206 11.7439,15.64136 l -23.82849,35.55041 c 2.2586,4.72144 4.2102,9.61707 5.86267,14.66498 l 41.78039,9.27857 c 0.58319,3.18774 1.07642,6.41796 1.46784,9.68151 0.39264,3.27405 0.6759,6.51893 0.86425,9.76453 l -38.40167,18.89459 c -0.41199,5.29554 -1.15063,10.5138 -2.23004,15.62494 l 31.56006,28.91846 c -2.2113,6.16705 -4.79291,12.15637 -7.71368,17.96423 l -42.71509,-2.87335 c -2.98114,4.33441 -6.23877,8.47986 -9.74665,12.39087 l 12.90375,40.83356 c -4.95257,4.21118 -10.17206,8.1372 -15.6427,11.73358 l -35.55957,-23.81677 c -4.71216,2.24676 -9.60669,4.2088 -14.65454,5.86126 l -9.27863,41.78046 c -3.1889,0.57281 -6.41784,1.07635 -9.68145,1.46777 -3.27405,0.39264 -6.52021,0.66559 -9.76441,0.86432 L 546.85585,741.3062 c -5.29559,-0.41199 -10.51514,-1.16107 -15.62494,-2.22992 l -28.91974,31.54956 c -6.16571,-2.20087 -12.15521,-4.78259 -17.96301,-7.70331 l 2.87219,-42.72558 c -4.33319,-2.97065 -8.47864,-6.22822 -12.38971,-9.73603 l -40.83481,12.89319 c -4.21127,-4.95251 -8.13714,-10.172 -11.7322,-15.63214 l 23.81671,-35.55957 c -2.24683,-4.71228 -4.20883,-9.60669 -5.86133,-14.6546 l -41.78037,-9.27863 c -0.57412,-3.19934 -1.07644,-6.41791 -1.46908,-9.69195 -0.39136,-3.26361 -0.66562,-6.52008 -0.86298,-9.75403 l 38.40161,-18.89459 c 0.41202,-5.29548 1.16108,-10.51502 2.2287,-15.63532 l -31.5495,-28.91974 c 2.20206,-6.15533 4.78244,-12.15509 7.70325,-17.96295 l 42.72675,2.88251 c 2.97067,-4.33313 6.22836,-8.47864 9.73492,-12.40009 l -12.89206,-40.8244 c 4.95252,-4.21118 10.17215,-8.13708 15.63095,-11.74268 l 35.56091,23.82721 c 4.71088,-2.25732 9.60657,-4.2088 14.65455,-5.86132 l 9.27862,-41.78043 c 3.198,-0.58444 6.41791,-1.07639 9.6919,-1.46902 3.26361,-0.39136 6.51886,-0.67606 9.75402,-0.86304 m 9.24982,253.35193 c 3.69415,0 7.43665,-0.22034 11.19592,-0.67121 51.02887,-6.11969 87.43012,-52.45379 81.31037,-103.4826 -5.66852,-47.26642 -45.8291,-81.98389 -92.27411,-81.98291 -3.69696,6e-5 -7.43567,0.22015 -11.19806,0.67132 -51.02887,6.11975 -87.4418,52.44464 -81.32205,103.47345 5.66891,47.26947 45.83755,81.99195 92.28793,81.99195 m -3.80975,-262.68143 -5.95948,0.34448 c -3.45935,0.19995 -6.92681,0.50681 -10.30621,0.91208 -3.37384,0.4046 -6.81848,0.92667 -10.23828,1.55161 l -5.87354,1.07339 -1.29443,5.8288 -8.19202,36.88769 c -2.06762,0.76673 -4.10571,1.58087 -6.1073,2.43982 l -31.39904,-21.03857 -4.974,-3.33277 -4.99597,3.29981 c -5.71518,3.7749 -11.26685,7.94549 -16.5008,12.39606 l -4.55111,3.86993 1.79892,5.69666 11.38412,36.04925 c -1.39111,1.6842 -2.74042,3.40247 -4.04257,5.14789 l -37.72312,-2.54498 -5.96167,-0.40223 -2.68463,5.3382 c -3.10019,6.16461 -5.83783,12.54877 -8.13681,18.97504 l -2.01318,5.62744 4.40579,4.03857 27.86292,25.54041 c -0.36307,2.16302 -0.6731,4.33771 -0.92905,6.51642 l -33.90656,16.68292 -5.37487,2.64459 0.3649,5.97913 c 0.22467,3.68127 0.52249,7.04303 0.9103,10.27734 0.38724,3.22882 0.89313,6.56854 1.54654,10.21002 l 1.05826,5.89734 5.84906,1.29895 36.88986,8.19257 c 0.76343,2.05499 1.57828,4.09259 2.44092,6.10351 l -21.03235,31.40235 -3.32586,4.96582 3.28668,4.99182 c 3.75308,5.70019 7.92258,11.25598 12.39276,16.51306 l 3.86969,4.5509 5.6965,-1.79864 36.05408,-11.38373 c 1.67999,1.3894 3.39734,2.73895 5.14459,4.04272 l -2.53595,37.72339 -0.40057,5.96027 5.33679,2.68384 c 6.20001,3.11798 12.58612,5.85632 18.98108,8.13897 l 5.62451,2.0077 4.03546,-4.40241 25.53876,-27.86121 c 2.1579,0.36274 4.33044,0.67267 6.50769,0.92853 l 16.68298,33.90668 2.64527,5.37622 5.98047,-0.36633 c 3.69366,-0.22632 7.0581,-0.52448 10.2857,-0.9115 3.23352,-0.38788 6.57019,-0.89337 10.20105,-1.5456 l 5.89606,-1.05908 1.2987,-5.84796 8.19251,-36.88989 c 2.05505,-0.76337 4.09259,-1.57825 6.10352,-2.44086 l 31.40234,21.03235 4.96197,3.3233 4.9903,-3.28051 c 5.69903,-3.74652 11.26019,-7.91767 16.52887,-12.39765 l 4.55218,-3.87066 -1.80047,-5.69764 -11.39264,-36.05157 c 1.38806,-1.67798 2.73859,-3.39533 4.04608,-5.1452 l 37.71875,2.53729 5.96045,0.401 2.68408,-5.3371 c 3.10486,-6.17401 5.84534,-12.55645 8.14508,-18.97009 l 2.01923,-5.63165 -4.41095,-4.04175 -27.86633,-25.53388 c 0.3612,-2.1477 0.67053,-4.32122 0.92657,-6.5111 l 33.9046,-16.68195 5.35755,-2.63605 -0.34601,-5.96087 c -0.20148,-3.47205 -0.50873,-6.94233 -0.91309,-10.31464 -0.40515,-3.37744 -0.92688,-6.81909 -1.55084,-10.22955 l -1.07422,-5.87213 -5.82764,-1.29419 -36.88763,-8.19202 c -0.76678,-2.06793 -1.58203,-4.10931 -2.44214,-6.11487 l 21.04004,-31.3902 3.33154,-4.97052 -3.29425,-4.99524 c -3.76855,-5.71441 -7.94073,-11.27142 -12.40075,-16.5166 l -3.87091,-4.5523 -5.69776,1.80078 -36.04687,11.39282 c -1.68201,-1.38953 -3.40076,-2.74017 -5.14844,-4.04578 l 2.54651,-37.71844 0.40246,-5.96216 -5.33862,-2.68469 c -6.13873,-3.08704 -12.5191,-5.82666 -18.96399,-8.14279 l -5.63452,-2.02488 -4.04492,4.41437 -25.53546,27.8681 c -2.15223,-0.36145 -4.3288,-0.67095 -6.5199,-0.92706 L 555.10664,455.166 Z m 3.80975,253.68143 c -42.45471,0 -78.28827,-31.84046 -83.35199,-74.0636 -2.6734,-22.29205 3.49548,-44.29102 17.37036,-61.94452 13.87464,-17.6532 33.79358,-28.84766 56.0874,-31.5213 3.35975,-0.4029 6.76685,-0.60718 10.12653,-0.6073 42.44727,-9.2e-4 78.27484,31.83563 83.33807,74.05456 2.67365,22.29383 -3.49359,44.29493 -17.36541,61.9502 -13.87213,17.6557 -33.78864,28.85138 -56.08063,31.52478 -3.35962,0.40295 -6.76593,0.60718 -10.12433,0.60718 z"
         id="path31" />
    </g>
    <g
       id="g33">
      <path
         class="c"
         d="m 214.89784,821.37627 c -1.27099,0.58691 -2.56836,1.1582 -3.88476,1.70703 l -0.53272,2.48633 h -5.01806 l -1.15284,-0.77344 c -15.33545,-10.38379 -30.208,-21.875 -44.20459,-34.15332 l -10.19336,-8.94238 13.51758,1.07324 c 1.64112,0.13086 3.30518,0.19726 4.9458,0.19726 4.89991,0 9.80225,-0.58398 14.57129,-1.73535 2.31641,-0.55762 4.60547,-1.25293 6.80567,-2.0664 l 0.7583,-0.2793 c 20.48486,-7.79785 35.53418,-25.94629 39.36132,-47.54492 2.91944,-16.44825 -0.74023,-33.04688 -10.30419,-46.74024 -9.56543,-13.69531 -23.89209,-22.84472 -40.34082,-25.76367 -3.64161,-0.64648 -7.34571,-0.97363 -11.01026,-0.97363 -24.52148,0 -46.87158,14.45996 -56.93945,36.83886 -0.96875,2.15137 -1.82471,4.39356 -2.54444,6.66309 -0.84521,2.63867 -1.52001,5.36816 -2.00927,8.12695 -0.66309,3.73145 -0.98975,7.5127 -0.97071,11.24121 l 0.0684,13.53223 -8.158688,-10.79687 C 80.67958,700.99834 65.766006,676.8206 53.336318,651.61064 l -1.120605,-2.27246 1.362305,-2.13672 c 0.811523,-1.27344 1.65332,-2.54394 2.572754,-3.88574 l 1.571777,-2.29297 28.867187,3.9834 c 0.946778,-1.02344 1.933594,-2.04981 2.953614,-3.07227 l -5.138672,-28.65332 2.210449,-1.66504 c 2.488281,-1.87402 5.054199,-3.66601 7.626953,-5.32617 l 2.322266,-1.5 25.133304,14.67578 c 1.30224,-0.60254 2.60595,-1.17675 3.90283,-1.71777 l 6.18457,-28.46875 2.69238,-0.68848 c 3.00195,-0.76855 6.04834,-1.43652 9.05518,-1.9873 l 2.72363,-0.49805 17.58838,23.20508 c 1.45557,-0.0566 2.8833,-0.0859 4.2666,-0.0869 l 16.63233,-23.88965 2.74511,0.3916 c 1.69727,0.24219 3.1294,0.45898 4.60303,0.72852 1.4917,0.26171 3.00342,0.56933 4.50586,0.87792 l 2.7373,0.56153 7.40577,28.18359 c 1.32959,0.48828 2.65576,1.00391 3.96875,1.54395 l 24.50146,-15.73242 2.38525,1.40429 c 2.64356,1.55762 5.27491,3.23731 7.82129,4.99219 l 2.28223,1.57422 -3.98389,28.84765 c 1.02442,0.94825 2.05078,1.93458 3.07325,2.95508 l 12.24072,-2.1914 16.4126,-2.94922 1.66552,2.21191 c 1.79346,2.38281 3.53418,4.87012 5.32178,7.60547 l 1.52246,2.33008 -14.70166,25.14453 c 0.58594,1.26563 1.15967,2.56934 1.71729,3.90332 l 13.28027,2.88672 15.19238,3.31055 0.69043,2.68652 c 0.75244,2.92676 1.42383,5.9668 1.99561,9.03613 l 0.50879,2.73145 -23.22315,17.60449 c 0.0176,0.44043 0.0337,0.88086 0.0479,1.32031 l 0.0312,1.20117 c 0.009,0.60157 0.0142,1.17676 0.0151,1.73243 l 13.8501,9.65234 10.01318,6.96875 -0.36767,2.72461 c -0.21729,1.61035 -0.45704,3.12695 -0.73243,4.63574 -0.26416,1.50488 -0.56933,3.05078 -0.90136,4.56543 l -0.58887,2.68945 -28.13281,7.39551 c -0.35889,0.97071 -0.73438,1.94141 -1.12305,2.90137 -0.13135,0.33887 -0.27344,0.69434 -0.42822,1.07226 l 15.74023,24.50684 -1.40527,2.38574 c -1.51074,2.56348 -3.18457,5.18848 -4.97608,7.80078 l -1.57226,2.29297 -28.86865,-3.98437 c -0.97412,1.05371 -1.95996,2.08105 -2.95166,3.07519 l 3.12695,17.46192 h 0.003 l 0.6709,3.70996 1.33642,7.49707 -2.21631,1.66211 c -0.78857,0.59179 -1.58691,1.17187 -2.38574,1.74219 -1.62158,1.17285 -3.38721,2.38085 -5.2251,3.57324 l -2.32519,1.50781 z"
         id="path32" />
      <path
         class="e"
         d="m 186.85254,590.17998 c 1.47,0.20996 2.94993,0.43005 4.42995,0.69995 1.47999,0.26001 2.94995,0.55994 4.41004,0.85998 l 7.2999,27.78003 c 2.77005,0.94995 5.49001,2.01001 8.15004,3.16993 l 18.75,-12.03992 5.42008,-3.47998 c 2.57992,1.5199 5.09994,3.13 7.55004,4.81994 l -3.93005,28.45997 c 2.19003,1.93005 4.28989,3.96008 6.30988,6.06005 l 14.5801,-2.60998 13.68998,-2.46008 c 1.80005,2.39013 3.50998,4.85009 5.14999,7.3601 l -14.5,24.80005 c 1.28995,2.61987 2.46008,5.29993 3.53003,8.01001 l 15.59998,3.38989 12.47998,2.71997 c 0.74002,2.88013 1.38,5.79004 1.92996,8.73999 l -5.91995,4.49 -16.98002,12.87011 c 0.0701,1.19995 0.12,2.40991 0.15995,3.61988 l 0.03,1.17016 c 0.0201,1.30994 0.0201,2.62988 -0.01,3.94995 l 4.47,3.10999 11.33005,7.90002 7.76001,5.3999 c -0.19996,1.47999 -0.42991,2.95008 -0.69996,4.43006 -0.26001,1.47998 -0.55004,2.95007 -0.87011,4.41003 l -27.76999,7.30005 c -0.56986,1.66992 -1.18994,3.32984 -1.84992,4.95996 -0.41998,1.07996 -0.87008,2.13989 -1.33004,3.18994 l 15.52999,24.17994 c -1.51998,2.58007 -3.13,5.09008 -4.81005,7.54003 l -28.46994,-3.92993 c -1.93995,2.18994 -3.95993,4.30005 -6.06006,6.31006 l 4.21005,23.50989 h 0.0101 l 0.84995,4.77002 c -0.76001,0.56994 -1.53,1.13 -2.30005,1.68005 -1.65992,1.19995 -3.34986,2.34998 -5.05997,3.45996 L 215.1126,816.28996 c -2.6101,1.28003 -5.28006,2.44995 -8,3.52002 l -0.27006,1.26001 h -0.01 c -15.30004,-10.36011 -29.91005,-21.66003 -43.75999,-33.81006 1.77745,0.14112 3.5457,0.21051 5.30312,0.21051 5.34159,0 10.57794,-0.64154 15.62683,-1.86041 2.48994,-0.6001 4.93005,-1.34009 7.31004,-2.22009 h 0.01 c 21.67995,-7.94006 38.6599,-26.88001 42.97993,-51.26001 6.47001,-36.44995 -17.83004,-71.25 -54.28999,-77.71997 -3.96426,-0.70374 -7.90501,-1.04328 -11.79545,-1.04328 -26.4047,0 -50.32413,15.66425 -61.04455,39.49335 -1.0399,2.30994 -1.95005,4.68994 -2.72995,7.1499 -0.90005,2.81006 -1.61999,5.70996 -2.15005,8.69995 -0.71994,4.05005 -1.06004,8.08008 -1.03999,12.05005 C 84.492431,698.58 69.772483,674.76994 57.372589,649.61992 c 0.809944,-1.2699 1.639892,-2.5199 2.489997,-3.75989 l 13.069947,1.79993 7.669998,1.05993 7.730003,1.07007 c 1.929947,-2.18994 3.959946,-4.29004 6.059952,-6.31006 L 89.32254,615.20988 c 2.389892,-1.79992 4.849945,-3.52001 7.36,-5.13989 l 20.32994,11.86988 4.46996,2.6101 c 2.6201,-1.28003 5.29004,-2.45996 8.00999,-3.52002 l 6.1001,-28.08007 c 2.88991,-0.74 5.79996,-1.37989 8.75,-1.91993 l 17.35,22.89002 c 2.13981,-0.12592 4.30152,-0.19696 6.46895,-0.19696 0.75988,0 1.52047,0.009 2.28105,0.0269 l 16.41001,-23.56994 m -4.21748,-9.69373 -3.16869,4.55127 -13.58399,19.51093 -14.36737,-18.95502 -3.34542,-4.41364 -5.44768,0.99726 c -3.11943,0.57104 -6.26921,1.2622 -9.36189,2.05414 l -5.3828,1.37829 -1.17952,5.42981 -5.0495,23.2439 -0.19745,-0.11536 -20.33032,-11.86999 -4.773531,-2.78711 -4.64447,2.99725 c -2.663788,1.71906 -5.319794,3.57379 -7.894257,5.5127 l -4.421371,3.32983 0.97705,5.44806 4.196045,23.39715 -2.823257,-0.3908 -7.672051,-1.06025 -13.074157,-1.80047 -5.50737,-0.75849 -3.143524,4.58533 c -0.944687,1.37787 -1.813111,2.68927 -2.654953,4.00922 l -2.725632,4.27337 2.241424,4.54615 c 12.554528,25.46368 27.617844,49.88513 44.771584,72.58606 l 16.31711,21.59362 -0.13669,-27.065 c -0.0175,-3.45819 0.28574,-6.96716 0.90121,-10.42944 0.454,-2.56116 1.07958,-5.09314 1.86005,-7.52985 0.67558,-2.13086 1.4688,-4.20849 2.36557,-6.20062 9.34375,-20.7691 30.08348,-34.18787 52.8378,-34.18787 3.40131,0 6.84062,0.30439 10.22237,0.90479 15.26583,2.70892 28.56147,11.20013 37.43835,23.90948 8.87622,12.70832 12.27255,28.11292 9.56326,43.37604 -3.55474,20.0611 -17.53868,36.91351 -36.57052,44.14203 l -0.67931,0.24951 c -2.03189,0.75135 -4.15063,1.39459 -6.29742,1.91199 -4.426,1.06854 -8.97304,1.60992 -13.5181,1.60992 -1.52306,0 -3.06758,-0.0613 -4.59064,-0.18225 l -27.0341,-2.14697 20.38643,17.88428 c 14.13589,12.40088 29.15799,24.00732 44.64905,34.49676 l 2.28573,1.54773 h 10.03594 l 0.75564,-3.50281 20.51984,11.98444 4.78799,2.79633 4.651,-3.0188 c 1.89563,-1.23047 3.71525,-2.47461 5.40842,-3.69794 0.89591,-0.64008 1.69788,-1.22607 2.45123,-1.79102 l 4.43274,-3.32427 -0.97201,-5.45478 -0.84995,-4.77002 -1.32232,-7.4212 h -0.0167 l -2.01062,-11.22791 23.56842,3.25336 5.5084,0.76038 3.14471,-4.58588 c 1.84921,-2.69666 3.57922,-5.40894 5.14206,-8.06171 l 2.81122,-4.77191 -2.99301,-4.66009 -12.85682,-20.01783 22.99228,-6.04412 5.32422,-1.39954 1.17884,-5.3775 c 0.34375,-1.56781 0.65966,-3.16822 0.93914,-4.75714 0.28534,-1.56678 0.53357,-3.13916 0.75867,-4.80512 l 0.73642,-5.4508 -4.51474,-3.14161 -7.76001,-5.3999 -11.32309,-7.8952 -0.41299,-0.28735 13.03192,-9.87769 5.92221,-4.4917 4.42715,-3.35779 -1.01831,-5.46246 c -0.59057,-3.16779 -1.28387,-6.30695 -2.06064,-9.3302 l -1.3804,-5.37262 -5.41995,-1.18127 -12.48001,-2.71998 -10.77585,-2.34161 11.99881,-20.52215 2.80963,-4.80549 -3.0448,-4.65997 c -1.84311,-2.82086 -3.64056,-5.3891 -5.49505,-7.85156 l -3.33115,-4.42316 -5.44995,0.97937 -13.68994,2.46009 -9.70587,1.73742 3.25317,-23.55823 0.75836,-5.49194 -4.56372,-3.14777 c -2.62915,-1.81347 -5.35168,-3.55151 -8.09186,-5.16577 l -4.77109,-2.81079 -4.65969,2.99182 -5.42005,3.47998 -14.59089,9.36927 -6.04206,-22.99323 -1.41993,-5.40381 -5.4729,-1.12469 c -1.62256,-0.33344 -3.09223,-0.63172 -4.63352,-0.90302 -1.6357,-0.29773 -3.24721,-0.53674 -4.74564,-0.75073 z"
         id="path33" />
    </g>
    <g
       id="g35">
      <path
         class="j"
         d="m 314.32802,598.78154 c -3.58447,-0.42187 -6.83936,-0.89551 -9.94971,-1.44727 -3.11377,-0.55273 -6.33594,-1.22753 -9.85059,-2.06445 l -2.91455,-0.69433 -6.98925,-42.69239 c -3.45313,-1.43066 -6.8545,-3.01855 -10.15918,-4.74121 l -37.23438,22.01172 -2.39892,-1.77832 c -5.31006,-3.93555 -10.48194,-8.29199 -15.37207,-12.94922 l -2.1626,-2.05957 15.32812,-40.4668 c -2.26562,-2.9541 -4.40967,-6.02441 -6.40478,-9.16796 l -43.27051,0.4707 -1.18945,-2.74024 c -2.67676,-6.16406 -4.98828,-12.51757 -6.86914,-18.88378 l -0.84668,-2.86622 33.479,-27.39013 c -0.48047,-3.69385 -0.80127,-7.43311 -0.95703,-11.17041 l -37.68164,-21.25049 0.35107,-2.9751 c 0.42334,-3.58545 0.89746,-6.84277 1.4502,-9.95898 0.55224,-3.11377 1.22705,-6.33252 2.06299,-9.84082 l 0.69433,-2.91407 42.69141,-6.98974 c 1.43115,-3.45215 3.01953,-6.85645 4.74463,-10.16797 l -22.01367,-37.23731 1.78076,-2.39941 c 3.95703,-5.33154 8.31299,-10.50244 12.94726,-15.36914 l 2.06006,-2.16357 40.46485,15.33837 c 2.94628,-2.25927 6.01611,-4.40576 9.16943,-6.41113 l -0.47266,-43.26318 2.73975,-1.18994 c 6.13428,-2.66455 12.48633,-4.97852 18.88037,-6.87793 l 2.87012,-0.85254 27.38867,33.49023 c 3.66113,-0.47949 7.40185,-0.79883 11.17285,-0.95459 l 21.24463,-37.6709 2.96533,0.33985 c 3.36133,0.38525 6.7168,0.87353 9.97412,1.45166 3.26221,0.57861 6.57813,1.27392 9.85547,2.0664 l 2.90088,0.70166 6.98779,42.67969 c 3.48633,1.44336 6.89209,3.03125 10.17139,4.74317 l 37.23975,-22.02491 2.40087,1.78809 c 5.34864,3.98144 10.51709,8.33984 15.36231,12.95361 l 2.16406,2.06006 -15.33789,40.4585 c 2.26465,2.95996 4.41016,6.03076 6.40967,9.1748 l 43.26514,-0.48291 1.19043,2.74072 c 2.66992,6.14893 4.98437,12.50586 6.87695,18.89405 l 0.85058,2.86865 -33.48925,27.37744 c 0.47949,3.66748 0.79882,7.41113 0.9541,11.18115 l 37.67187,21.24512 -0.33984,2.96582 c -0.38477,3.35938 -0.87305,6.71192 -1.4502,9.96387 -0.57812,3.25976 -1.27441,6.5791 -2.06836,9.86426 l -0.70117,2.90234 -42.68017,6.9873 c -1.44385,3.48731 -3.03076,6.88965 -4.74073,10.16309 l 22.02344,37.23633 -1.78515,2.40039 c -3.95899,5.32422 -8.31739,10.49414 -12.95557,15.36523 l -2.05957,2.16309 -40.46045,-15.32813 c -2.96631,2.26954 -6.0376,4.41309 -9.17383,6.40333 l 0.48096,43.27246 -2.74024,1.19043 c -6.17529,2.68164 -12.53369,4.99218 -18.89843,6.86816 l -2.86426,0.84375 -27.38867,-33.47754 c -3.69287,0.48047 -7.43262,0.80078 -11.16992,0.95703 l -21.25049,37.68067 z M 333.1039,346.23467 c -42.94873,0 -79.57569,30.74169 -87.09082,73.09716 -8.53125,48.0835 23.64697,94.14405 71.73047,102.6753 5.15087,0.91406 10.3916,1.37695 15.57666,1.37695 42.9458,0 79.57128,-30.74707 87.08789,-73.10938 4.13232,-23.29101 -1.05176,-46.79638 -14.59815,-66.18603 -13.5459,-19.38965 -33.83301,-32.34424 -57.12402,-36.47656 -5.15283,-0.91407 -10.39502,-1.37744 -15.58203,-1.37744 z"
         id="path34" />
      <path
         class="e"
         d="m 351.56483,275.30376 c 3.22974,0.37045 6.45362,0.83575 9.70038,1.41189 3.23642,0.57425 6.43387,1.24811 9.58368,2.00968 l 6.91525,42.23593 c 4.947,1.93362 9.72538,4.15726 14.31226,6.6777 l 36.84399,-21.79049 c 5.24762,3.90673 10.23819,8.11987 14.9462,12.60281 l -15.17694,40.03329 c 3.28061,4.11234 6.30005,8.43445 9.03287,12.92945 l 42.81088,-0.47788 c 2.58966,5.96289 4.82855,12.09818 6.68976,18.37982 l -33.13394,27.08826 c 0.78854,5.17404 1.23266,10.4256 1.34637,15.73593 l 37.27872,21.02344 c -0.36865,3.21954 -0.83569,6.45361 -1.40991,9.69012 -0.57611,3.24674 -1.24835,6.43381 -2.01166,9.59403 l -42.23584,6.91528 c -1.93369,4.94702 -4.15732,9.72522 -6.67593,14.30188 l 21.79049,36.84406 c -3.90863,5.25787 -8.11975,10.2381 -12.60275,14.9461 L 409.53358,530.2885 c -4.11245,3.28058 -8.43451,6.29999 -12.92776,9.0224 l 0.4762,42.82129 c -5.96296,2.5896 -12.09833,4.82873 -18.37812,6.67944 l -27.1004,-33.12537 c -5.1618,0.77997 -10.41528,1.23438 -15.72556,1.34809 l -21.02349,37.27881 c -3.21769,-0.37891 -6.45356,-0.83576 -9.69007,-1.40998 -3.24673,-0.57611 -6.43207,-1.25854 -9.59399,-2.01153 l -6.91525,-42.23596 c -4.94706,-1.93366 -9.72352,-4.16773 -14.30188,-6.67585 l -36.84232,21.78009 c -5.25967,-3.89819 -10.23999,-8.10955 -14.94788,-12.59246 l 15.16846,-40.04548 c -3.28244,-4.10205 -6.30194,-8.42401 -9.02438,-12.91729 l -42.81937,0.4657 c -2.58969,-5.96283 -4.82875,-12.09821 -6.68132,-18.36762 l 33.12538,-27.10037 c -0.77994,-5.1619 -1.23437,-10.41532 -1.34805,-15.72559 l -37.27882,-21.0235 c 0.38075,-3.22805 0.83575,-6.45367 1.4118,-9.7005 0.57425,-3.23636 1.25856,-6.43191 2.00975,-9.58368 l 42.23593,-6.91519 c 1.93363,-4.94705 4.16763,-9.72342 6.67764,-14.31225 l -21.78007,-36.84226 c 3.89632,-5.24936 8.10945,-10.23993 12.59245,-14.94784 l 40.04361,15.17862 c 4.10208,-3.28238 8.42414,-6.30182 12.91919,-9.03458 l -0.46762,-42.80905 c 5.9628,-2.58963 12.0983,-4.82871 18.36951,-6.69168 l 27.09863,33.1358 c 5.1636,-0.79037 10.41516,-1.23444 15.72556,-1.34811 l 21.02349,-37.27884 m -18.2442,252.58026 c 44.27042,0 83.5149,-31.71692 91.51801,-76.82324 8.9787,-50.60407 -24.76218,-98.90088 -75.3663,-107.87952 -5.50086,-0.97601 -10.96894,-1.44724 -16.36792,-1.4469 -44.26816,0.003 -83.51929,31.70819 -91.52198,76.8114 -8.9786,50.60413 24.77075,98.91309 75.37488,107.89172 5.49777,0.97547 10.96744,1.44654 16.36331,1.44654 m 13.33789,-262.202 -2.93301,5.20075 -18.56152,32.91324 c -2.20087,0.13253 -4.38831,0.31915 -6.55286,0.55905 l -23.92712,-29.25772 -3.79038,-4.63483 -5.73944,1.70502 c -6.56567,1.9505 -13.09,4.32718 -19.39166,7.06393 l -5.47959,2.37976 0.0652,5.97366 0.41293,37.80176 c -1.82055,1.20706 -3.61111,2.45886 -5.36441,3.75037 l -35.35425,-13.40112 -5.58731,-2.11786 -4.12045,4.32718 c -4.75844,4.99725 -9.23375,10.30981 -13.3015,15.79019 l -3.56219,4.79919 3.04156,5.14493 19.23503,32.53717 c -0.97601,1.96375 -1.90512,3.95502 -2.78323,5.96497 l -37.29204,6.10574 -5.91176,0.96793 -1.38881,5.82717 c -0.85537,3.58884 -1.54768,6.89188 -2.11656,10.09797 -0.56807,3.20175 -1.05487,6.54425 -1.48831,10.21862 l -0.70181,5.95035 5.21887,2.94321 32.91519,18.56262 c 0.13304,2.1882 0.32041,4.3747 0.5612,6.54956 l -29.25276,23.93213 -4.62588,3.78448 1.69369,5.73169 c 1.93407,6.54541 4.30851,13.07331 7.05732,19.40253 l 2.37962,5.47919 5.97331,-0.065 37.80628,-0.4112 c 1.20352,1.81775 2.45449,3.60834 3.74728,5.36377 l -13.39255,35.35706 -2.116,5.58636 4.32605,4.11939 c 5.02601,4.78576 10.34031,9.26233 15.79532,13.30536 l 4.79801,3.55596 5.14099,-3.03918 32.53515,-19.23383 c 1.95923,0.97431 3.94782,1.90247 5.95667,2.78016 l 6.1058,37.29211 0.96811,5.91296 5.82865,1.38807 c 3.59848,0.85693 6.90435,1.54974 10.10656,2.11792 3.2078,0.56915 6.54743,1.05535 10.21006,1.48663 l 5.94918,0.7005 2.94257,-5.21777 18.56262,-32.91517 c 2.1882,-0.13305 4.37473,-0.32037 6.54956,-0.56121 l 23.93213,29.2528 3.78156,4.62232 5.72851,-1.68836 c 6.54218,-1.92804 13.07569,-4.30243 19.41886,-7.05712 l 5.48089,-2.38025 -0.0664,-5.97498 -0.42044,-37.80664 c 1.81588,-1.20197 3.60726,-2.45258 5.36694,-3.7467 l 35.35235,13.39257 5.58658,2.1164 4.1196,-4.32636 c 4.76526,-5.00445 9.24265,-10.31463 13.3078,-15.78308 l 3.56928,-4.80139 -3.04554,-5.14947 -19.24023,-32.53193 c 0.97006,-1.95019 1.89758,-3.93933 2.77933,-5.96057 l 37.28982,-6.10547 5.89252,-0.96478 1.40173,-5.80408 c 0.81641,-3.38037 1.53131,-6.79016 2.12476,-10.13452 0.59405,-3.34817 1.09534,-6.79294 1.48993,-10.23861 l 0.6792,-5.93088 -5.19977,-2.93238 -32.91315,-18.56143 c -0.13254,-2.20166 -0.31915,-4.3919 -0.55905,-6.56079 l 29.25644,-23.91827 4.63263,-3.78739 -1.69989,-5.73718 c -1.9447,-6.56369 -4.32135,-13.09363 -7.06384,-19.40823 l -2.38037,-5.48096 -5.97516,0.0667 -37.8021,0.42197 c -1.20541,-1.81842 -2.4573,-3.61038 -3.74994,-5.36759 l 13.40125,-35.34942 2.11822,-5.5875 -4.32754,-4.12075 c -4.97595,-4.73807 -10.28445,-9.21421 -15.77802,-13.30402 l -4.80249,-3.57541 -5.1535,3.04791 -32.5339,19.24143 c -1.95423,-0.97153 -3.94675,-1.90036 -5.96885,-2.78238 l -6.10543,-37.2898 -0.96451,-5.89093 -5.80219,-1.4028 c -3.36761,-0.81427 -6.77469,-1.52862 -10.12643,-2.12332 -3.34525,-0.59363 -6.79294,-1.09549 -10.24713,-1.4917 l -5.93186,-0.68036 z m -13.33789,253.202 c -4.92218,0 -9.89862,-0.44013 -14.79104,-1.30817 -22.1074,-3.92248 -41.36496,-16.22064 -54.22531,-34.62897 -12.86039,-18.40835 -17.78269,-40.72143 -13.8602,-62.82879 7.13287,-40.2012 41.89682,-69.38126 82.66088,-69.38376 4.92518,0 9.90131,0.44025 14.79511,1.30856 22.10739,3.92243 41.36343,16.21845 54.22107,34.62287 12.85763,18.40445 17.77844,40.71533 13.85593,62.82269 -7.1345,40.21051 -41.89655,69.39557 -82.65644,69.39557 z"
         id="path35" />
    </g>
  </g>
  <path
     class="i"
     d="m 512.30393,239.52879 v -0.006 c -0.34629,-5.06081 -0.8367,-10.08696 -1.47153,-15.05542 v -0.006 c -0.32896,-2.52752 -0.68666,-5.04347 -1.0848,-7.54218 -0.90024,-5.68971 -1.98518,-11.3218 -3.26045,-16.87893 -0.64046,-2.83331 -1.33296,-5.63783 -2.08309,-8.43077 v -0.006 c -1.20033,-4.56454 -2.52759,-9.08288 -3.97601,-13.54355 -7.12079,-21.90509 -17.11545,-42.51182 -29.53372,-61.3816 -27.95259,-42.454173 -68.19075,-76.096613 -115.66521,-95.855063 -5.22817,-2.18129 -10.54861,-4.18944 -15.94992,-6.02448 -7.27661,-2.47556 -14.7034,-4.62801 -22.26276,-6.4457202 -19.27956,-4.63956 -39.40722,-7.0978 -60.10631,-7.0978 -141.38467,0 -255.99960388,114.6151632 -255.99960388,255.9999932 0,40.60176 9.45211988,78.99919 26.27918988,113.10327 7.15545,14.51301 15.64971,28.25279 25.32118,41.05188 10.56016,13.98209 22.51099,26.83318 35.66214,38.36855 l 0.006,0.006 h 0.006 c 7.99222,7.01126 16.423024,13.53197 25.252004,19.51035 h 0.006 c 40.92482,27.75067 90.3036,43.9602 143.46776,43.9602 141.38467,0 255.99973,-114.61516 255.99973,-256.00003 0,-5.96098 -0.20202,-11.87004 -0.60593,-17.72719 z M 441.0663,417.04322 c -0.63482,0.73287 -1.27527,1.45997 -1.92164,2.18707 -0.45589,0.51929 -0.92327,1.03296 -1.39065,1.54647 -2.05436,2.27935 -4.15486,4.51263 -6.3015,6.71118 -27.57178,28.26434 -61.95279,49.85779 -100.49443,62.13181 -3.34696,1.06755 -6.7342,2.06584 -10.1447,2.98912 -0.51352,0.13849 -1.0271,0.27698 -1.54647,0.40976 -4.66259,1.23491 -9.38872,2.33127 -14.16099,3.28342 h -0.0288 c -0.006,0 -0.0116,0 -0.0173,0.006 -0.81367,0.16737 -1.63882,0.32889 -2.45827,0.48471 -3.3931,0.64637 -6.80922,1.21765 -10.24846,1.71384 -11.57002,1.69081 -23.40546,2.56217 -35.44292,2.56217 -18.24069,0 -36.01406,-2.00237 -53.10648,-5.80516 -24.03443,-5.33201 -46.73011,-14.21871 -67.51563,-26.08304 h -0.006 c -11.18339,-6.37065 -21.81274,-13.61275 -31.79584,-21.6281 h -0.006 C 85.859026,432.624 69.482146,415.0122 55.927096,395.31151 c -5.60904,-8.14811 -10.73324,-16.64816 -15.33237,-25.47139 -15.55749,-29.8223 -25.12506,-63.26275 -27.10433,-98.72875 -0.25972,-4.58188 -0.3925,-9.20404 -0.3925,-13.85516 0,-134.65635 109.156134,-243.812543 243.812234,-243.812543 19.8104,0 39.07256,2.36592 57.51533,6.82657 61.14491,14.78421 113.29345,52.6161 146.73392,103.789593 3.50271,5.36662 6.80924,10.88329 9.89077,16.53268 3.42191,6.26683 6.57838,12.70681 9.45219,19.2968 0.1039,0.23661 0.20773,0.47319 0.30579,0.70977 12.81647,29.63192 19.91423,62.3165 19.91423,96.65713 0,1.85818 -0.023,3.71629 -0.0634,5.56285 -1.31571,58.94643 -23.56128,112.73394 -59.59266,154.22439 z"
     id="path36"
     style="fill:url(#b);stroke-width:0.564442" />
</svg>
