<?xml version="1.0" encoding="UTF-8"?>
<svg xmlns="http://www.w3.org/2000/svg" xmlns:xlink="http://www.w3.org/1999/xlink" width="128px" height="128px" viewBox="0 0 128 128" version="1.1">
<defs>
<linearGradient id="linear0" gradientUnits="userSpaceOnUse" x1="133.305817" y1="132.374222" x2="774.715271" y2="773.783691" gradientTransform="matrix(0.140945,0,0,0.140153,0.009315,0)">
<stop offset="0" style="stop-color:rgb(73.72549%,50.196078%,74.117647%);stop-opacity:1;"/>
<stop offset="0.0868562" style="stop-color:rgb(73.72549%,58.823529%,78.431373%);stop-opacity:1;"/>
<stop offset="0.23743" style="stop-color:rgb(74.509804%,72.941176%,85.490196%);stop-opacity:1;"/>
<stop offset="0.505587" style="stop-color:rgb(55.294118%,82.745098%,78.039216%);stop-opacity:1;"/>
<stop offset="0.751397" style="stop-color:rgb(50.196078%,69.411765%,82.745098%);stop-opacity:1;"/>
<stop offset="1" style="stop-color:rgb(88.627451%,72.156863%,80.784314%);stop-opacity:1;"/>
</linearGradient>
</defs>
<g id="surface1">
<path style=" stroke:none;fill-rule:nonzero;fill:rgb(13.333334%,13.333334%,13.333334%);fill-opacity:1;" d="M 126.246094 63.609375 C 126.246094 29.742188 98.4375 2.285156 64.132812 2.285156 C 29.828125 2.285156 2.015625 29.742188 2.015625 63.609375 C 2.015625 97.476562 29.828125 124.929688 64.132812 124.929688 C 98.4375 124.929688 126.246094 97.476562 126.246094 63.609375 Z M 126.246094 63.609375 "/>
<path style="fill:none;stroke-width:8;stroke-linecap:butt;stroke-linejoin:miter;stroke:rgb(69.803923%,69.803923%,69.803923%);stroke-opacity:1;stroke-miterlimit:10;" d="M 363.440144 858.634751 L 361.860405 867.86019 " transform="matrix(0.140945,0,0,0.140153,0.009315,0)"/>
<path style="fill:none;stroke-width:8;stroke-linecap:butt;stroke-linejoin:miter;stroke:rgb(69.803923%,69.803923%,69.803923%);stroke-opacity:1;stroke-miterlimit:10;" d="M 254.632164 748.821367 L 363.440144 858.634751 " transform="matrix(0.140945,0,0,0.140153,0.009315,0)"/>
<path style="fill:none;stroke-width:8;stroke-linecap:butt;stroke-linejoin:miter;stroke:rgb(69.803923%,69.803923%,69.803923%);stroke-opacity:1;stroke-miterlimit:10;" d="M 333.203388 720.699107 L 363.440144 858.634751 " transform="matrix(0.140945,0,0,0.140153,0.009315,0)"/>
<path style="fill:none;stroke-width:8;stroke-linecap:butt;stroke-linejoin:miter;stroke:rgb(69.803923%,69.803923%,69.803923%);stroke-opacity:1;stroke-miterlimit:10;" d="M 826.275925 482.816561 L 869.815746 613.951579 " transform="matrix(0.140945,0,0,0.140153,0.009315,0)"/>
<path style="fill:none;stroke-width:8;stroke-linecap:butt;stroke-linejoin:miter;stroke:rgb(69.803923%,69.803923%,69.803923%);stroke-opacity:1;stroke-miterlimit:10;" d="M 444.533407 684.57775 L 363.440144 858.634751 " transform="matrix(0.140945,0,0,0.140153,0.009315,0)"/>
<path style="fill:none;stroke-width:8;stroke-linecap:butt;stroke-linejoin:miter;stroke:rgb(69.803923%,69.803923%,69.803923%);stroke-opacity:1;stroke-miterlimit:10;" d="M 476.571621 801.77706 L 363.440144 858.634751 " transform="matrix(0.140945,0,0,0.140153,0.009315,0)"/>
<path style="fill:none;stroke-width:8;stroke-linecap:butt;stroke-linejoin:miter;stroke:rgb(69.803923%,69.803923%,69.803923%);stroke-opacity:1;stroke-miterlimit:10;" d="M 259.565383 720.225293 L 469.448938 699.990644 " transform="matrix(0.140945,0,0,0.140153,0.009315,0)"/>
<path style="fill:none;stroke-width:8;stroke-linecap:butt;stroke-linejoin:miter;stroke:rgb(69.803923%,69.803923%,69.803923%);stroke-opacity:1;stroke-miterlimit:10;" d="M 355.125729 848.210841 L 360.003519 878.2841 " transform="matrix(0.140945,0,0,0.140153,0.009315,0)"/>
<path style="fill:none;stroke-width:8;stroke-linecap:butt;stroke-linejoin:miter;stroke:rgb(69.803923%,69.803923%,69.803923%);stroke-opacity:1;stroke-miterlimit:10;" d="M 373.500587 853.562153 L 358.95036 878.005386 " transform="matrix(0.140945,0,0,0.140153,0.009315,0)"/>
<path style="fill:none;stroke-width:8;stroke-linecap:butt;stroke-linejoin:miter;stroke:rgb(69.803923%,69.803923%,69.803923%);stroke-opacity:1;stroke-miterlimit:10;" d="M 364.493304 662.865916 L 454.150414 686.946821 " transform="matrix(0.140945,0,0,0.140153,0.009315,0)"/>
<path style="fill:none;stroke-width:8;stroke-linecap:butt;stroke-linejoin:miter;stroke:rgb(69.803923%,69.803923%,69.803923%);stroke-opacity:1;stroke-miterlimit:10;" d="M 773.285386 482.816561 L 773.285386 745.086597 " transform="matrix(0.140945,0,0,0.140153,0.009315,0)"/>
<path style="fill:none;stroke-width:8;stroke-linecap:butt;stroke-linejoin:miter;stroke:rgb(69.803923%,69.803923%,69.803923%);stroke-opacity:1;stroke-miterlimit:10;" d="M 662.897666 594.30223 L 773.285386 745.086597 " transform="matrix(0.140945,0,0,0.140153,0.009315,0)"/>
<path style="fill:none;stroke-width:8;stroke-linecap:butt;stroke-linejoin:miter;stroke:rgb(69.803923%,69.803923%,69.803923%);stroke-opacity:1;stroke-miterlimit:10;" d="M 585.767608 787.729866 L 773.285386 745.086597 " transform="matrix(0.140945,0,0,0.140153,0.009315,0)"/>
<path style="fill:none;stroke-width:8;stroke-linecap:butt;stroke-linejoin:miter;stroke:rgb(69.803923%,69.803923%,69.803923%);stroke-opacity:1;stroke-miterlimit:10;" d="M 799.392649 474.510879 L 656.800428 594.30223 " transform="matrix(0.140945,0,0,0.140153,0.009315,0)"/>
<path style="fill:none;stroke-width:8;stroke-linecap:butt;stroke-linejoin:miter;stroke:rgb(69.803923%,69.803923%,69.803923%);stroke-opacity:1;stroke-miterlimit:10;" d="M 668.828616 415.14476 L 773.285386 745.086597 " transform="matrix(0.140945,0,0,0.140153,0.009315,0)"/>
<path style="fill:none;stroke-width:8;stroke-linecap:butt;stroke-linejoin:miter;stroke:rgb(69.803923%,69.803923%,69.803923%);stroke-opacity:1;stroke-miterlimit:10;" d="M 18.447342 453.88603 L 125.287577 638.785012 " transform="matrix(0.140945,0,0,0.140153,0.009315,0)"/>
<path style="fill:none;stroke-width:8;stroke-linecap:butt;stroke-linejoin:miter;stroke:rgb(69.803923%,69.803923%,69.803923%);stroke-opacity:1;stroke-miterlimit:10;" d="M 215.471268 638.785012 L 264.526318 534.406554 " transform="matrix(0.140945,0,0,0.140153,0.009315,0)"/>
<path style=" stroke:none;fill-rule:nonzero;fill:rgb(73.725492%,50.196081%,74.117649%);fill-opacity:1;" d="M 108 73.574219 C 107.789062 73.546875 107.578125 73.511719 107.367188 73.476562 C 107.164062 73.441406 106.953125 73.398438 106.730469 73.351562 L 106.347656 73.269531 L 105.953125 71.769531 L 105.324219 69.382812 C 105.140625 69.316406 104.960938 69.246094 104.78125 69.171875 L 101.375 71.347656 L 101.039062 71.148438 C 100.664062 70.925781 100.300781 70.695312 99.953125 70.460938 L 99.632812 70.238281 L 100.183594 66.253906 C 100.042969 66.121094 99.902344 65.988281 99.765625 65.851562 L 95.785156 66.5625 L 95.550781 66.25 C 95.296875 65.914062 95.046875 65.5625 94.8125 65.199219 L 94.597656 64.875 L 96.636719 61.398438 C 96.554688 61.222656 96.476562 61.046875 96.402344 60.871094 L 92.449219 60.015625 L 92.351562 59.636719 C 92.246094 59.234375 92.15625 58.8125 92.074219 58.390625 L 92.003906 58.007812 L 95.230469 55.578125 C 95.222656 55.386719 95.21875 55.191406 95.214844 54.996094 L 91.898438 52.703125 L 91.953125 52.320312 C 91.984375 52.105469 92.015625 51.890625 92.054688 51.679688 C 92.089844 51.488281 92.128906 51.28125 92.179688 51.050781 L 92.261719 50.671875 L 96.171875 49.652344 C 96.238281 49.472656 96.308594 49.292969 96.382812 49.113281 L 95.015625 46.996094 L 95.574219 46.660156 C 96.535156 46.082031 97.433594 45.398438 98.25 44.632812 L 98.472656 44.425781 L 99.316406 44.542969 C 99.449219 44.402344 99.582031 44.261719 99.71875 44.125 L 99.5625 43.253906 L 99.746094 43.03125 C 100.441406 42.175781 101.046875 41.242188 101.554688 40.253906 L 101.859375 39.65625 L 104.195312 41.015625 C 104.375 40.933594 104.554688 40.855469 104.730469 40.78125 L 105.589844 36.851562 L 105.96875 36.753906 C 106.382812 36.648438 106.804688 36.554688 107.226562 36.480469 L 107.609375 36.410156 L 110.054688 39.613281 C 110.246094 39.605469 110.441406 39.601562 110.636719 39.601562 L 112.945312 36.304688 L 113.332031 36.359375 C 113.542969 36.386719 113.757812 36.421875 113.972656 36.457031 C 114.175781 36.492188 114.378906 36.535156 114.601562 36.582031 L 114.984375 36.660156 L 116.011719 40.550781 C 116.191406 40.617188 116.375 40.6875 116.554688 40.761719 L 119.027344 39.183594 L 119.125 39.121094 L 119.957031 38.585938 L 120.292969 38.785156 C 120.667969 39.003906 121.035156 39.238281 121.382812 39.476562 L 121.703125 39.695312 L 121.148438 43.679688 C 121.289062 43.808594 121.429688 43.941406 121.570312 44.082031 L 123.929688 43.660156 L 124.101562 44.183594 C 124.457031 45.277344 124.789062 46.394531 125.082031 47.507812 L 125.101562 47.585938 L 125.101562 47.839844 L 125.015625 47.988281 L 124.695312 48.53125 C 124.777344 48.707031 124.855469 48.882812 124.929688 49.0625 L 125.503906 49.183594 L 125.59375 49.574219 C 125.90625 50.925781 126.175781 52.320312 126.398438 53.71875 L 126.460938 54.089844 L 126.105469 54.355469 C 126.113281 54.550781 126.117188 54.742188 126.117188 54.933594 L 126.671875 55.316406 L 126.671875 55.609375 C 126.824219 56.808594 126.945312 58.035156 127.03125 59.261719 L 127.03125 59.792969 L 126.558594 59.917969 L 125.164062 60.28125 C 125.101562 60.445312 125.039062 60.613281 124.96875 60.777344 C 124.964844 60.792969 124.957031 60.808594 124.953125 60.824219 L 127.140625 64.207031 L 126.9375 64.542969 C 126.71875 64.910156 126.488281 65.273438 126.25 65.621094 L 126.027344 65.941406 L 122.015625 65.390625 C 121.886719 65.53125 121.75 65.667969 121.613281 65.808594 L 122.328125 69.765625 L 122.015625 70 C 121.683594 70.25 121.324219 70.496094 120.957031 70.734375 L 120.628906 70.945312 L 117.136719 68.917969 C 116.960938 68.996094 116.785156 69.074219 116.605469 69.152344 L 115.746094 73.082031 L 115.367188 73.179688 C 114.960938 73.28125 114.535156 73.375 114.109375 73.453125 L 113.726562 73.523438 L 111.28125 70.320312 C 111.089844 70.328125 110.894531 70.332031 110.699219 70.332031 L 108.390625 73.632812 Z M 110.65625 46.339844 C 106.449219 46.339844 102.863281 49.332031 102.125 53.460938 C 101.828125 55.128906 102.027344 56.832031 102.699219 58.382812 C 103.863281 61.054688 106.273438 62.953125 109.152344 63.460938 C 109.65625 63.550781 110.171875 63.59375 110.679688 63.59375 C 114.886719 63.59375 118.472656 60.597656 119.207031 56.472656 C 119.996094 52.054688 117.316406 47.832031 112.96875 46.648438 C 112.710938 46.578125 112.445312 46.519531 112.183594 46.472656 C 111.679688 46.382812 111.164062 46.339844 110.65625 46.339844 Z M 110.65625 46.339844 "/>
<path style=" stroke:none;fill-rule:nonzero;fill:rgb(13.333334%,13.333334%,13.333334%);fill-opacity:1;" d="M 113.242188 36.984375 C 113.449219 37.011719 113.652344 37.042969 113.859375 37.078125 C 114.0625 37.113281 114.269531 37.15625 114.472656 37.199219 L 115.425781 40.804688 L 115.484375 41.035156 C 115.871094 41.164062 116.246094 41.3125 116.617188 41.472656 L 118.707031 40.136719 L 119.210938 39.8125 L 119.214844 39.8125 L 119.292969 39.761719 L 119.464844 39.652344 L 119.972656 39.328125 C 120.332031 39.539062 120.679688 39.761719 121.019531 39.996094 L 120.660156 42.59375 L 120.476562 43.925781 C 120.78125 44.191406 121.070312 44.472656 121.351562 44.761719 L 121.421875 44.75 L 123.496094 44.378906 C 123.851562 45.460938 124.175781 46.558594 124.46875 47.667969 L 123.980469 48.5 C 124.15625 48.863281 124.320312 49.230469 124.46875 49.609375 L 124.976562 49.71875 C 125.289062 51.066406 125.554688 52.433594 125.773438 53.816406 L 125.457031 54.054688 C 125.480469 54.453125 125.488281 54.855469 125.480469 55.261719 L 126.039062 55.648438 C 126.195312 56.855469 126.3125 58.078125 126.398438 59.304688 L 126.398438 59.308594 L 124.679688 59.757812 C 124.585938 60.023438 124.488281 60.28125 124.382812 60.539062 C 124.335938 60.65625 124.285156 60.769531 124.238281 60.882812 L 124.410156 61.152344 L 126.394531 64.222656 C 126.183594 64.574219 125.960938 64.921875 125.726562 65.261719 L 124.441406 65.085938 L 123.554688 64.964844 L 121.773438 64.71875 C 121.503906 65.023438 121.222656 65.3125 120.929688 65.589844 L 121.636719 69.496094 C 121.304688 69.742188 120.960938 69.980469 120.613281 70.203125 L 117.167969 68.203125 C 116.804688 68.382812 116.433594 68.542969 116.054688 68.691406 L 115.207031 72.566406 C 114.808594 72.667969 114.402344 72.757812 113.996094 72.832031 L 111.585938 69.671875 C 111.285156 69.691406 110.980469 69.699219 110.675781 69.699219 C 110.574219 69.699219 110.472656 69.699219 110.371094 69.695312 L 109 71.65625 L 108.09375 72.953125 C 107.886719 72.921875 107.679688 72.890625 107.476562 72.855469 C 107.269531 72.816406 107.066406 72.777344 106.863281 72.734375 L 106.566406 71.609375 L 105.851562 68.898438 C 105.464844 68.769531 105.085938 68.621094 104.71875 68.460938 L 101.363281 70.605469 C 101.003906 70.394531 100.65625 70.171875 100.3125 69.9375 L 100.859375 66.007812 C 100.554688 65.742188 100.265625 65.460938 99.984375 65.171875 L 96.691406 65.757812 L 96.058594 65.871094 C 95.808594 65.542969 95.570312 65.203125 95.34375 64.855469 L 96.03125 63.6875 L 97.355469 61.429688 C 97.175781 61.070312 97.015625 60.699219 96.867188 60.324219 L 96.332031 60.210938 L 94.820312 59.882812 L 92.964844 59.484375 C 92.863281 59.085938 92.777344 58.679688 92.699219 58.277344 L 95.878906 55.878906 C 95.855469 55.476562 95.84375 55.078125 95.855469 54.667969 L 92.582031 52.40625 C 92.609375 52.203125 92.640625 51.996094 92.679688 51.792969 C 92.714844 51.585938 92.757812 51.386719 92.800781 51.183594 L 96.65625 50.175781 C 96.789062 49.792969 96.9375 49.417969 97.097656 49.050781 L 95.902344 47.199219 C 96.898438 46.597656 97.835938 45.890625 98.6875 45.09375 L 99.5625 45.214844 C 99.832031 44.910156 100.113281 44.621094 100.402344 44.34375 L 100.238281 43.425781 C 100.957031 42.542969 101.589844 41.574219 102.117188 40.539062 L 104.167969 41.730469 C 104.53125 41.550781 104.898438 41.390625 105.277344 41.242188 L 106.125 37.363281 C 106.527344 37.261719 106.929688 37.175781 107.339844 37.101562 L 109.75 40.261719 C 110.050781 40.242188 110.351562 40.234375 110.65625 40.234375 C 110.757812 40.234375 110.863281 40.234375 110.964844 40.238281 L 113.242188 36.984375 M 110.679688 64.226562 C 115.105469 64.226562 119.03125 61.070312 119.832031 56.582031 C 120.679688 51.835938 117.726562 47.289062 113.136719 46.039062 C 112.863281 45.964844 112.582031 45.902344 112.292969 45.851562 C 111.742188 45.753906 111.195312 45.707031 110.65625 45.707031 C 106.226562 45.707031 102.300781 48.863281 101.5 53.347656 C 101.171875 55.203125 101.417969 57.027344 102.117188 58.632812 C 103.316406 61.394531 105.84375 63.515625 109.039062 64.082031 C 109.589844 64.179688 110.136719 64.226562 110.679688 64.226562 M 112.648438 35.628906 L 112.203125 36.261719 L 110.332031 38.933594 L 108.351562 36.339844 L 107.878906 35.71875 L 107.113281 35.859375 C 106.675781 35.9375 106.238281 36.035156 105.808594 36.144531 L 105.050781 36.335938 L 104.886719 37.097656 L 104.191406 40.28125 L 102.757812 39.449219 L 101.597656 38.777344 L 100.988281 39.96875 C 100.503906 40.917969 99.917969 41.8125 99.253906 42.632812 L 98.886719 43.082031 L 98.988281 43.648438 L 99.027344 43.867188 L 98.859375 43.84375 L 98.257812 43.761719 L 97.816406 44.175781 C 97.03125 44.910156 96.167969 45.566406 95.242188 46.121094 L 94.132812 46.792969 L 94.835938 47.882812 L 95.644531 49.136719 L 92.476562 49.964844 L 91.722656 50.160156 L 91.558594 50.917969 C 91.507812 51.15625 91.464844 51.367188 91.429688 51.570312 C 91.390625 51.789062 91.355469 52.011719 91.324219 52.234375 L 91.21875 53 L 91.855469 53.441406 L 94.546875 55.300781 L 91.933594 57.269531 L 91.308594 57.742188 L 91.453125 58.507812 C 91.535156 58.941406 91.628906 59.375 91.734375 59.792969 L 91.929688 60.550781 L 92.695312 60.714844 L 94.550781 61.117188 L 95.898438 61.40625 L 94.933594 63.050781 L 94.246094 64.21875 L 93.851562 64.890625 L 94.28125 65.542969 C 94.523438 65.917969 94.78125 66.28125 95.042969 66.628906 L 95.511719 67.25 L 96.28125 67.113281 L 96.914062 67 L 99.503906 66.539062 L 99.058594 69.765625 L 98.949219 70.539062 L 99.597656 70.980469 C 99.953125 71.222656 100.328125 71.460938 100.714844 71.6875 L 101.386719 72.085938 L 102.046875 71.667969 L 104.804688 69.90625 L 105.339844 71.929688 L 105.636719 73.054688 L 105.835938 73.804688 L 106.597656 73.96875 C 106.828125 74.015625 107.042969 74.058594 107.253906 74.097656 C 107.472656 74.132812 107.691406 74.167969 107.910156 74.199219 L 108.6875 74.3125 L 109.132812 73.671875 L 110.039062 72.375 L 111.003906 71 L 112.984375 73.59375 L 113.457031 74.214844 L 114.226562 74.074219 C 114.667969 73.992188 115.105469 73.894531 115.523438 73.789062 L 116.28125 73.59375 L 116.449219 72.835938 L 117.144531 69.648438 L 119.972656 71.292969 L 120.648438 71.6875 L 121.304688 71.261719 C 121.683594 71.015625 122.050781 70.761719 122.398438 70.503906 L 123.023438 70.039062 L 122.882812 69.273438 L 122.304688 66.066406 L 123.378906 66.214844 L 124.269531 66.335938 L 125.550781 66.511719 L 126.328125 66.617188 L 126.773438 65.976562 C 127.019531 65.617188 127.257812 65.246094 127.484375 64.863281 L 127.882812 64.195312 L 127.460938 63.539062 L 125.6875 60.796875 L 126.71875 60.527344 L 127.667969 60.28125 L 127.667969 59.265625 L 127.664062 59.21875 C 127.578125 57.996094 127.460938 56.765625 127.308594 55.570312 L 127.308594 54.988281 L 126.792969 54.632812 L 127.144531 54.367188 L 127.027344 53.621094 C 126.800781 52.203125 126.527344 50.796875 126.214844 49.433594 L 126.035156 48.652344 L 125.433594 48.523438 L 125.5625 48.304688 L 125.738281 48.011719 L 125.738281 47.507812 L 125.695312 47.347656 C 125.398438 46.222656 125.066406 45.09375 124.703125 43.988281 L 124.363281 42.941406 L 123.273438 43.136719 L 121.828125 43.394531 L 121.917969 42.765625 L 122.277344 40.167969 L 122.382812 39.398438 L 121.742188 38.957031 C 121.382812 38.710938 121.003906 38.46875 120.617188 38.242188 L 119.945312 37.847656 L 119.285156 38.269531 L 118.78125 38.589844 L 118.734375 38.621094 L 118.527344 38.753906 L 118.019531 39.074219 L 116.53125 40.027344 L 115.699219 36.878906 L 115.5 36.121094 L 114.730469 35.964844 C 114.542969 35.925781 114.308594 35.875 114.074219 35.835938 C 113.863281 35.796875 113.640625 35.761719 113.417969 35.734375 Z M 110.679688 62.964844 C 110.207031 62.964844 109.730469 62.921875 109.261719 62.839844 C 106.59375 62.367188 104.359375 60.609375 103.28125 58.132812 C 102.65625 56.695312 102.472656 55.117188 102.75 53.570312 C 103.433594 49.746094 106.757812 46.96875 110.65625 46.96875 C 111.128906 46.96875 111.605469 47.011719 112.070312 47.09375 C 112.316406 47.136719 112.5625 47.191406 112.800781 47.257812 C 116.828125 48.355469 119.3125 52.269531 118.582031 56.363281 C 117.902344 60.1875 114.578125 62.964844 110.679688 62.964844 Z M 110.679688 62.964844 "/>
<path style=" stroke:none;fill-rule:nonzero;fill:rgb(73.725492%,50.196081%,74.117649%);fill-opacity:1;" d="M 73.726562 124.355469 C 73.589844 124.335938 73.457031 124.316406 73.320312 124.292969 C 73.179688 124.269531 73.046875 124.242188 72.910156 124.210938 L 72.527344 124.132812 L 71.875 121.652344 C 71.832031 121.636719 71.789062 121.621094 71.75 121.605469 L 69.578125 122.992188 L 69.242188 122.792969 C 69.003906 122.652344 68.765625 122.5 68.542969 122.347656 L 68.222656 122.128906 L 68.574219 119.585938 C 68.542969 119.558594 68.511719 119.527344 68.480469 119.496094 L 65.941406 119.949219 L 65.707031 119.636719 C 65.542969 119.417969 65.382812 119.191406 65.230469 118.960938 L 65.019531 118.636719 L 66.320312 116.421875 C 66.300781 116.382812 66.285156 116.339844 66.265625 116.300781 L 63.746094 115.757812 L 63.648438 115.378906 C 63.582031 115.121094 63.519531 114.847656 63.46875 114.574219 L 63.398438 114.191406 L 65.453125 112.644531 C 65.453125 112.597656 65.453125 112.554688 65.449219 112.511719 L 63.335938 111.046875 L 63.390625 110.664062 C 63.410156 110.527344 63.429688 110.390625 63.457031 110.253906 C 63.480469 110.117188 63.507812 109.980469 63.535156 109.847656 L 63.617188 109.46875 L 66.109375 108.816406 C 66.125 108.777344 66.140625 108.734375 66.15625 108.695312 L 64.765625 106.535156 L 64.964844 106.199219 C 65.105469 105.960938 65.257812 105.726562 65.410156 105.507812 L 65.632812 105.1875 L 68.1875 105.535156 C 68.214844 105.503906 68.246094 105.472656 68.277344 105.441406 L 67.824219 102.917969 L 68.136719 102.683594 C 68.355469 102.519531 68.585938 102.359375 68.816406 102.210938 L 69.144531 102 L 71.371094 103.292969 C 71.410156 103.277344 71.453125 103.257812 71.492188 103.242188 L 72.039062 100.734375 L 72.417969 100.636719 C 72.683594 100.570312 72.957031 100.511719 73.230469 100.460938 L 73.613281 100.390625 L 75.171875 102.433594 C 75.214844 102.433594 75.257812 102.429688 75.304688 102.429688 L 76.777344 100.324219 L 77.164062 100.382812 C 77.300781 100.402344 77.4375 100.421875 77.574219 100.445312 C 77.710938 100.46875 77.84375 100.496094 77.980469 100.527344 L 78.363281 100.605469 L 79.019531 103.085938 C 79.058594 103.101562 79.101562 103.117188 79.140625 103.132812 L 81.3125 101.746094 L 81.648438 101.945312 C 81.890625 102.085938 82.125 102.238281 82.347656 102.390625 L 82.667969 102.609375 L 82.316406 105.152344 C 82.347656 105.179688 82.378906 105.210938 82.410156 105.242188 L 84.949219 104.789062 L 85.183594 105.097656 C 85.347656 105.316406 85.507812 105.546875 85.660156 105.777344 L 85.871094 106.101562 L 84.574219 108.316406 C 84.589844 108.355469 84.609375 108.398438 84.625 108.4375 L 87.144531 108.984375 L 87.242188 109.359375 C 87.3125 109.617188 87.371094 109.890625 87.421875 110.164062 L 87.492188 110.546875 L 85.4375 112.097656 C 85.4375 112.140625 85.441406 112.183594 85.441406 112.226562 L 87.554688 113.691406 L 87.5 114.074219 C 87.480469 114.210938 87.460938 114.347656 87.4375 114.484375 C 87.410156 114.621094 87.382812 114.757812 87.355469 114.890625 L 87.273438 115.269531 L 84.78125 115.921875 C 84.765625 115.960938 84.75 116.003906 84.734375 116.042969 L 86.128906 118.203125 L 85.929688 118.539062 C 85.789062 118.773438 85.636719 119.007812 85.484375 119.230469 L 85.261719 119.550781 L 82.703125 119.199219 C 82.675781 119.234375 82.644531 119.265625 82.613281 119.296875 L 83.070312 121.820312 L 82.753906 122.054688 C 82.539062 122.214844 82.308594 122.375 82.074219 122.527344 L 81.746094 122.738281 L 79.519531 121.445312 C 79.480469 121.460938 79.441406 121.480469 79.398438 121.496094 L 78.851562 124.003906 L 78.472656 124.101562 C 78.210938 124.167969 77.9375 124.226562 77.664062 124.277344 L 77.277344 124.347656 L 75.722656 122.304688 C 75.675781 122.304688 75.632812 122.308594 75.589844 122.308594 L 74.117188 124.410156 Z M 75.4375 107.148438 C 72.894531 107.148438 70.722656 108.960938 70.277344 111.457031 C 69.773438 114.289062 71.679688 117.003906 74.527344 117.507812 C 74.835938 117.5625 75.144531 117.589844 75.453125 117.589844 C 77.996094 117.589844 80.167969 115.777344 80.613281 113.28125 C 81.117188 110.449219 79.210938 107.734375 76.363281 107.230469 C 76.058594 107.175781 75.746094 107.148438 75.4375 107.148438 Z M 75.4375 107.148438 "/>
<path style=" stroke:none;fill-rule:nonzero;fill:rgb(13.333334%,13.333334%,13.333334%);fill-opacity:1;" d="M 77.074219 101.007812 C 77.203125 101.023438 77.332031 101.042969 77.460938 101.066406 C 77.59375 101.089844 77.722656 101.117188 77.847656 101.144531 L 78.488281 103.566406 C 78.734375 103.648438 78.972656 103.742188 79.203125 103.84375 L 81.324219 102.488281 C 81.550781 102.621094 81.773438 102.761719 81.988281 102.910156 L 81.644531 105.390625 C 81.835938 105.5625 82.019531 105.738281 82.195312 105.921875 L 84.675781 105.480469 C 84.835938 105.6875 84.984375 105.902344 85.128906 106.121094 L 83.855469 108.285156 C 83.96875 108.511719 84.074219 108.746094 84.167969 108.984375 L 86.628906 109.515625 C 86.695312 109.765625 86.75 110.023438 86.796875 110.277344 L 84.789062 111.792969 C 84.804688 112.046875 84.808594 112.300781 84.804688 112.554688 L 86.871094 113.988281 C 86.855469 114.117188 86.835938 114.246094 86.8125 114.375 C 86.789062 114.503906 86.761719 114.632812 86.734375 114.757812 L 84.296875 115.394531 C 84.214844 115.636719 84.121094 115.875 84.019531 116.105469 L 85.382812 118.214844 C 85.25 118.441406 85.109375 118.660156 84.960938 118.875 L 82.460938 118.53125 C 82.292969 118.722656 82.113281 118.90625 81.929688 119.082031 L 82.375 121.546875 C 82.164062 121.707031 81.949219 121.855469 81.730469 121.996094 L 79.554688 120.734375 C 79.324219 120.84375 79.089844 120.945312 78.851562 121.039062 L 78.316406 123.488281 C 78.0625 123.554688 77.804688 123.609375 77.546875 123.65625 L 76.023438 121.660156 C 75.835938 121.671875 75.644531 121.679688 75.453125 121.679688 C 75.386719 121.679688 75.324219 121.675781 75.257812 121.675781 L 73.816406 123.734375 C 73.6875 123.714844 73.558594 123.695312 73.429688 123.671875 C 73.300781 123.648438 73.171875 123.621094 73.042969 123.59375 L 72.402344 121.171875 C 72.160156 121.089844 71.917969 120.996094 71.6875 120.894531 L 69.566406 122.25 C 69.339844 122.117188 69.117188 121.976562 68.902344 121.828125 L 69.25 119.347656 C 69.054688 119.175781 68.871094 119 68.695312 118.816406 L 66.214844 119.257812 C 66.058594 119.050781 65.90625 118.835938 65.761719 118.617188 L 67.035156 116.453125 C 66.921875 116.226562 66.820312 115.992188 66.726562 115.753906 L 64.261719 115.222656 C 64.195312 114.972656 64.140625 114.714844 64.09375 114.460938 L 66.101562 112.945312 C 66.085938 112.691406 66.082031 112.4375 66.085938 112.183594 L 64.019531 110.75 C 64.035156 110.621094 64.058594 110.492188 64.078125 110.363281 C 64.101562 110.234375 64.128906 110.105469 64.15625 109.980469 L 66.59375 109.34375 C 66.675781 109.101562 66.769531 108.863281 66.871094 108.632812 L 65.507812 106.523438 C 65.644531 106.296875 65.785156 106.078125 65.929688 105.863281 L 68.429688 106.207031 C 68.597656 106.015625 68.777344 105.832031 68.960938 105.65625 L 68.515625 103.191406 C 68.726562 103.03125 68.941406 102.882812 69.160156 102.742188 L 71.339844 104.003906 C 71.566406 103.894531 71.800781 103.789062 72.039062 103.699219 L 72.578125 101.246094 C 72.828125 101.183594 73.085938 101.128906 73.34375 101.082031 L 74.867188 103.078125 C 75.054688 103.066406 75.246094 103.058594 75.4375 103.058594 C 75.503906 103.058594 75.566406 103.0625 75.632812 103.0625 L 77.074219 101.007812 M 75.453125 118.21875 C 78.25 118.21875 80.730469 116.226562 81.238281 113.390625 C 81.804688 110.210938 79.671875 107.175781 76.472656 106.609375 C 76.125 106.550781 75.78125 106.519531 75.4375 106.519531 C 72.640625 106.519531 70.160156 108.511719 69.65625 111.347656 C 69.085938 114.527344 71.21875 117.5625 74.417969 118.128906 C 74.765625 118.191406 75.109375 118.21875 75.453125 118.21875 M 76.480469 99.648438 L 76.03125 100.285156 L 75.21875 101.449219 L 74.355469 100.316406 L 73.882812 99.699219 L 73.113281 99.839844 C 72.828125 99.890625 72.539062 99.953125 72.261719 100.027344 L 71.503906 100.21875 L 71.335938 100.980469 L 71.035156 102.367188 L 69.800781 101.652344 L 69.128906 101.261719 L 68.472656 101.683594 C 68.230469 101.839844 67.988281 102.007812 67.753906 102.179688 L 67.128906 102.648438 L 67.265625 103.414062 L 67.519531 104.808594 L 66.105469 104.613281 L 65.332031 104.507812 L 64.886719 105.148438 C 64.726562 105.382812 64.566406 105.628906 64.417969 105.878906 L 64.019531 106.550781 L 64.441406 107.203125 L 65.214844 108.398438 L 63.832031 108.757812 L 63.082031 108.957031 L 62.917969 109.710938 C 62.882812 109.859375 62.855469 110.003906 62.832031 110.144531 C 62.804688 110.28125 62.78125 110.429688 62.761719 110.578125 L 62.65625 111.34375 L 63.292969 111.785156 L 64.464844 112.597656 L 63.328125 113.453125 L 62.703125 113.925781 L 62.847656 114.691406 C 62.898438 114.976562 62.960938 115.261719 63.03125 115.535156 L 63.226562 116.289062 L 63.992188 116.453125 L 65.386719 116.757812 L 64.667969 117.980469 L 64.273438 118.652344 L 64.699219 119.304688 C 64.859375 119.546875 65.027344 119.785156 65.199219 120.015625 L 65.667969 120.636719 L 66.4375 120.5 L 67.84375 120.25 L 67.648438 121.65625 L 67.539062 122.429688 L 68.183594 122.867188 C 68.421875 123.03125 68.667969 123.1875 68.917969 123.335938 L 69.59375 123.730469 L 70.25 123.3125 L 71.453125 122.542969 L 71.816406 123.917969 L 72.015625 124.667969 L 72.78125 124.828125 C 72.933594 124.863281 73.074219 124.890625 73.207031 124.914062 C 73.339844 124.9375 73.484375 124.957031 73.636719 124.980469 L 74.414062 125.089844 L 74.859375 124.453125 L 75.675781 123.289062 L 76.535156 124.421875 L 77.011719 125.039062 L 77.78125 124.898438 C 78.066406 124.84375 78.355469 124.78125 78.628906 124.710938 L 79.386719 124.519531 L 79.554688 123.757812 L 79.859375 122.371094 L 81.089844 123.085938 L 81.765625 123.476562 L 82.421875 123.054688 C 82.667969 122.894531 82.90625 122.730469 83.136719 122.558594 L 83.761719 122.089844 L 83.625 121.324219 L 83.371094 119.929688 L 84.785156 120.125 L 85.5625 120.230469 L 86.003906 119.589844 C 86.167969 119.355469 86.324219 119.109375 86.472656 118.859375 L 86.871094 118.191406 L 86.449219 117.535156 L 85.675781 116.339844 L 87.058594 115.980469 L 87.8125 115.78125 L 87.976562 115.023438 C 88.007812 114.878906 88.035156 114.734375 88.058594 114.59375 C 88.085938 114.457031 88.109375 114.308594 88.128906 114.160156 L 88.238281 113.394531 L 87.597656 112.953125 L 86.425781 112.140625 L 87.566406 111.285156 L 88.1875 110.8125 L 88.046875 110.046875 C 87.992188 109.757812 87.929688 109.476562 87.859375 109.203125 L 87.664062 108.449219 L 86.898438 108.285156 L 85.503906 107.980469 L 86.222656 106.757812 L 86.617188 106.085938 L 86.191406 105.433594 C 86.03125 105.191406 85.863281 104.949219 85.691406 104.71875 L 85.222656 104.101562 L 84.453125 104.238281 L 83.046875 104.488281 L 83.242188 103.082031 L 83.351562 102.3125 L 82.707031 101.871094 C 82.472656 101.707031 82.222656 101.550781 81.96875 101.402344 L 81.296875 101.007812 L 80.640625 101.425781 L 79.4375 102.195312 L 79.074219 100.824219 L 78.878906 100.070312 L 78.113281 99.910156 C 77.941406 99.875 77.8125 99.847656 77.683594 99.824219 C 77.558594 99.800781 77.425781 99.78125 77.253906 99.757812 Z M 75.453125 116.957031 C 75.183594 116.957031 74.910156 116.933594 74.640625 116.886719 C 72.136719 116.445312 70.460938 114.058594 70.902344 111.566406 C 71.296875 109.375 73.203125 107.78125 75.4375 107.78125 C 75.710938 107.78125 75.984375 107.804688 76.25 107.851562 C 78.757812 108.292969 80.433594 110.679688 79.988281 113.171875 C 79.597656 115.363281 77.6875 116.957031 75.453125 116.957031 Z M 75.453125 116.957031 "/>
<path style=" stroke:none;fill-rule:nonzero;fill:rgb(55.29412%,82.745099%,78.039217%);fill-opacity:1;" d="M 82.515625 65.902344 C 82.113281 65.847656 81.746094 65.789062 81.386719 65.722656 C 81.0625 65.667969 80.707031 65.597656 80.273438 65.507812 L 79.886719 65.425781 L 78.054688 58.492188 C 77.578125 58.324219 77.09375 58.136719 76.613281 57.929688 L 70.542969 61.808594 L 70.207031 61.609375 C 69.554688 61.226562 68.910156 60.816406 68.289062 60.394531 L 67.96875 60.171875 L 68.953125 53.066406 C 68.574219 52.726562 68.203125 52.367188 67.835938 52 L 60.738281 53.265625 L 60.503906 52.953125 C 60.058594 52.363281 59.617188 51.738281 59.199219 51.09375 L 58.988281 50.769531 L 60.664062 47.910156 L 60.667969 47.90625 L 62.621094 44.578125 C 62.402344 44.113281 62.191406 43.640625 62 43.167969 L 54.949219 41.644531 L 54.851562 41.265625 C 54.667969 40.550781 54.503906 39.808594 54.363281 39.0625 L 54.292969 38.679688 L 60.039062 34.34375 C 60.015625 33.832031 60.003906 33.316406 60.007812 32.804688 L 54.09375 28.710938 L 54.148438 28.328125 C 54.199219 27.945312 54.261719 27.566406 54.324219 27.199219 C 54.386719 26.863281 54.457031 26.5 54.546875 26.089844 L 54.625 25.710938 L 61.601562 23.886719 C 61.773438 23.410156 61.960938 22.929688 62.164062 22.453125 L 58.261719 16.417969 L 58.460938 16.082031 C 58.851562 15.425781 59.265625 14.785156 59.6875 14.175781 L 59.910156 13.859375 L 67.054688 14.835938 C 67.394531 14.460938 67.753906 14.089844 68.128906 13.726562 L 66.855469 6.667969 L 67.167969 6.433594 C 67.789062 5.972656 68.417969 5.535156 69.035156 5.136719 L 69.363281 4.925781 L 75.589844 8.542969 C 76.058594 8.320312 76.53125 8.113281 77.007812 7.921875 L 77.636719 5.054688 L 78.21875 2.398438 L 78.847656 2.546875 C 80.699219 2.992188 82.546875 3.523438 84.339844 4.128906 L 84.523438 4.191406 L 85.882812 5.972656 C 86.328125 5.953125 86.769531 5.941406 87.207031 5.941406 C 87.28125 5.941406 87.359375 5.941406 87.433594 5.941406 L 87.804688 5.414062 L 88.277344 5.609375 C 94.085938 8.011719 99.492188 11.265625 104.351562 15.277344 C 109.175781 19.261719 113.367188 23.921875 116.8125 29.125 L 117.140625 29.617188 L 115 31.230469 L 114.414062 31.671875 C 114.4375 32.183594 114.449219 32.699219 114.445312 33.210938 L 120.363281 37.308594 L 120.308594 37.691406 C 120.246094 38.125 120.1875 38.480469 120.128906 38.8125 C 120.085938 39.0625 120.035156 39.3125 119.984375 39.554688 C 119.964844 39.660156 119.941406 39.777344 119.914062 39.890625 C 119.914062 39.890625 119.90625 39.929688 119.902344 39.945312 L 119.816406 40.304688 L 119.296875 40.445312 L 119.292969 40.445312 L 118.792969 40.574219 L 112.855469 42.125 C 112.683594 42.609375 112.492188 43.089844 112.292969 43.5625 L 116.191406 49.601562 L 115.992188 49.933594 C 115.601562 50.585938 115.191406 51.226562 114.769531 51.839844 L 114.546875 52.160156 L 107.398438 51.179688 C 107.058594 51.554688 106.699219 51.925781 106.328125 52.289062 L 107.601562 59.347656 L 107.289062 59.582031 C 106.695312 60.019531 106.066406 60.457031 105.417969 60.878906 L 105.089844 61.089844 L 98.863281 57.472656 C 98.394531 57.691406 97.921875 57.902344 97.445312 58.09375 L 95.914062 65.105469 L 95.53125 65.199219 C 94.789062 65.390625 94.042969 65.550781 93.3125 65.6875 L 92.925781 65.757812 L 88.570312 60.042969 C 88.125 60.0625 87.683594 60.074219 87.253906 60.074219 C 87.175781 60.074219 87.097656 60.074219 87.019531 60.074219 L 82.902344 65.957031 Z M 87.207031 17.027344 C 79.414062 17.027344 72.769531 22.574219 71.40625 30.214844 C 70.65625 34.417969 71.597656 38.660156 74.054688 42.160156 C 76.511719 45.660156 80.195312 47.996094 84.417969 48.742188 C 85.355469 48.90625 86.304688 48.988281 87.246094 48.988281 C 90.179688 48.988281 93.054688 48.183594 95.570312 46.664062 C 96.535156 46.082031 97.433594 45.398438 98.25 44.632812 C 98.789062 44.132812 99.292969 43.59375 99.746094 43.03125 C 100.441406 42.175781 101.046875 41.242188 101.554688 40.253906 C 102.265625 38.859375 102.769531 37.359375 103.050781 35.796875 C 104.597656 27.125 98.757812 18.8125 90.035156 17.273438 C 89.101562 17.109375 88.148438 17.027344 87.207031 17.027344 Z M 87.207031 17.027344 "/>
<path style=" stroke:none;fill-rule:nonzero;fill:rgb(13.333334%,13.333334%,13.333334%);fill-opacity:1;" d="M 78.699219 3.160156 C 80.546875 3.601562 82.359375 4.125 84.136719 4.726562 L 85.582031 6.621094 C 86.121094 6.589844 86.660156 6.570312 87.207031 6.570312 C 87.390625 6.570312 87.574219 6.574219 87.761719 6.578125 L 88.03125 6.191406 C 99.628906 10.988281 109.457031 19.160156 116.285156 29.46875 L 114.617188 30.726562 L 113.90625 31.261719 L 113.761719 31.371094 C 113.804688 32.089844 113.820312 32.808594 113.808594 33.539062 L 116.320312 35.277344 L 117.914062 36.382812 L 119.679688 37.601562 C 119.628906 37.96875 119.570312 38.335938 119.503906 38.703125 C 119.460938 38.941406 119.414062 39.183594 119.363281 39.425781 C 119.34375 39.539062 119.320312 39.648438 119.292969 39.761719 C 119.292969 39.773438 119.289062 39.78125 119.289062 39.792969 L 119.214844 39.8125 L 119.210938 39.8125 L 118.628906 39.964844 L 115.425781 40.804688 L 112.367188 41.601562 C 112.128906 42.289062 111.863281 42.964844 111.578125 43.621094 L 113.136719 46.039062 L 115.445312 49.613281 C 115.066406 50.25 114.664062 50.875 114.246094 51.480469 L 107.152344 50.507812 C 106.671875 51.050781 106.167969 51.570312 105.640625 52.070312 L 106.90625 59.078125 C 106.308594 59.523438 105.699219 59.945312 105.070312 60.351562 L 102.117188 58.632812 L 98.890625 56.757812 C 98.238281 57.078125 97.574219 57.367188 96.898438 57.632812 L 96.332031 60.210938 L 95.757812 62.835938 L 95.375 64.589844 C 94.65625 64.773438 93.929688 64.933594 93.195312 65.066406 L 88.871094 59.394531 C 88.335938 59.425781 87.796875 59.445312 87.253906 59.445312 C 87.066406 59.445312 86.878906 59.441406 86.695312 59.4375 L 82.605469 65.277344 C 82.238281 65.226562 81.871094 65.167969 81.5 65.101562 C 81.132812 65.039062 80.765625 64.964844 80.402344 64.890625 L 78.582031 58.007812 C 77.890625 57.773438 77.214844 57.507812 76.554688 57.21875 L 70.53125 61.066406 C 69.886719 60.6875 69.261719 60.292969 68.648438 59.875 L 69.628906 52.824219 C 69.082031 52.34375 68.558594 51.839844 68.058594 51.320312 L 64.082031 52.027344 L 61.011719 52.574219 C 60.5625 51.984375 60.136719 51.375 59.730469 50.75 L 61.171875 48.296875 L 61.175781 48.292969 L 63.339844 44.605469 C 63.023438 43.957031 62.730469 43.296875 62.460938 42.621094 L 55.464844 41.109375 C 55.28125 40.394531 55.125 39.671875 54.988281 38.945312 L 60.691406 34.644531 C 60.648438 33.925781 60.632812 33.203125 60.648438 32.476562 L 54.777344 28.414062 C 54.824219 28.046875 54.882812 27.679688 54.949219 27.3125 C 55.015625 26.945312 55.089844 26.582031 55.164062 26.21875 L 62.085938 24.414062 C 62.324219 23.726562 62.589844 23.054688 62.878906 22.394531 L 59.007812 16.402344 C 59.386719 15.765625 59.789062 15.140625 60.207031 14.535156 L 67.300781 15.507812 C 67.785156 14.964844 68.289062 14.445312 68.8125 13.945312 L 67.546875 6.941406 C 68.144531 6.496094 68.757812 6.070312 69.382812 5.667969 L 75.5625 9.257812 C 76.214844 8.9375 76.878906 8.648438 77.558594 8.382812 L 78.066406 6.054688 L 78.257812 5.1875 L 78.699219 3.160156 M 87.246094 49.621094 C 90.367188 49.621094 93.347656 48.75 95.902344 47.199219 C 96.898438 46.597656 97.835938 45.890625 98.6875 45.09375 C 99.238281 44.574219 99.757812 44.019531 100.238281 43.425781 C 100.957031 42.542969 101.589844 41.574219 102.117188 40.539062 C 102.847656 39.117188 103.378906 37.5625 103.671875 35.910156 C 105.285156 26.878906 99.230469 18.257812 90.144531 16.652344 C 89.160156 16.480469 88.175781 16.394531 87.207031 16.394531 C 79.261719 16.394531 72.21875 22.054688 70.78125 30.105469 C 69.167969 39.136719 75.226562 47.761719 84.308594 49.363281 C 85.296875 49.535156 86.277344 49.621094 87.246094 49.621094 M 77.734375 1.632812 L 77.460938 2.894531 L 77.015625 4.917969 L 76.828125 5.785156 L 76.460938 7.464844 C 76.179688 7.582031 75.902344 7.703125 75.625 7.832031 L 70.019531 4.578125 L 69.347656 4.1875 L 68.691406 4.609375 C 68.0625 5.015625 67.421875 5.457031 66.789062 5.929688 L 66.160156 6.394531 L 66.300781 7.164062 L 67.445312 13.511719 C 67.230469 13.730469 67.015625 13.949219 66.8125 14.167969 L 60.382812 13.285156 L 59.609375 13.179688 L 59.164062 13.820312 C 58.734375 14.441406 58.3125 15.09375 57.917969 15.761719 L 57.519531 16.429688 L 57.941406 17.085938 L 61.449219 22.515625 C 61.335938 22.796875 61.222656 23.078125 61.117188 23.359375 L 54.84375 25 L 54.089844 25.199219 L 53.925781 25.957031 C 53.835938 26.375 53.761719 26.746094 53.699219 27.09375 C 53.632812 27.464844 53.574219 27.851562 53.519531 28.242188 L 53.414062 29.007812 L 54.050781 29.449219 L 59.375 33.132812 C 59.375 33.433594 59.382812 33.738281 59.394531 34.042969 L 54.21875 37.941406 L 53.597656 38.410156 L 53.738281 39.179688 C 53.882812 39.9375 54.050781 40.691406 54.238281 41.421875 L 54.429688 42.175781 L 55.195312 42.34375 L 61.539062 43.714844 C 61.65625 43.992188 61.78125 44.269531 61.90625 44.542969 L 60.160156 47.515625 L 60.078125 47.660156 L 58.636719 50.113281 L 58.242188 50.785156 L 58.667969 51.4375 C 59.09375 52.089844 59.542969 52.730469 60 53.332031 L 60.46875 53.953125 L 61.234375 53.816406 L 64.308594 53.269531 L 67.621094 52.679688 C 67.839844 52.890625 68.058594 53.101562 68.28125 53.308594 L 67.390625 59.699219 L 67.285156 60.472656 L 67.929688 60.914062 C 68.5625 61.34375 69.21875 61.761719 69.882812 62.152344 L 70.558594 62.550781 L 71.214844 62.128906 L 76.675781 58.640625 C 76.960938 58.757812 77.242188 58.867188 77.527344 58.972656 L 79.175781 65.210938 L 79.375 65.964844 L 80.140625 66.125 C 80.582031 66.214844 80.945312 66.285156 81.28125 66.34375 C 81.640625 66.410156 82.015625 66.46875 82.425781 66.527344 L 83.199219 66.636719 L 83.644531 66 L 87.351562 60.707031 C 87.652344 60.703125 87.960938 60.699219 88.265625 60.6875 L 92.1875 65.828125 L 92.65625 66.449219 L 93.425781 66.308594 C 94.171875 66.171875 94.933594 66.003906 95.6875 65.8125 L 96.449219 65.621094 L 96.617188 64.859375 L 97 63.101562 L 97.574219 60.476562 L 97.996094 58.550781 C 98.273438 58.433594 98.554688 58.3125 98.828125 58.183594 L 101.480469 59.722656 L 104.433594 61.4375 L 105.109375 61.832031 L 105.761719 61.40625 C 106.425781 60.980469 107.066406 60.535156 107.667969 60.085938 L 108.292969 59.617188 L 108.15625 58.851562 L 107.007812 52.503906 C 107.226562 52.289062 107.4375 52.070312 107.640625 51.847656 L 114.070312 52.730469 L 114.847656 52.835938 L 115.292969 52.195312 C 115.71875 51.574219 116.140625 50.921875 116.535156 50.257812 L 116.9375 49.585938 L 116.511719 48.929688 L 114.207031 45.359375 L 113.003906 43.5 C 113.121094 43.21875 113.230469 42.9375 113.335938 42.652344 L 115.746094 42.023438 L 118.953125 41.183594 L 119.375 41.074219 L 119.378906 41.074219 L 119.542969 41.03125 L 119.617188 41.011719 L 120.335938 40.820312 L 120.519531 40.101562 C 120.523438 40.082031 120.527344 40.0625 120.53125 40.046875 L 120.535156 40.023438 C 120.558594 39.910156 120.585938 39.792969 120.609375 39.675781 C 120.660156 39.429688 120.710938 39.171875 120.753906 38.917969 C 120.816406 38.582031 120.871094 38.21875 120.933594 37.78125 L 121.042969 37.011719 L 120.402344 36.570312 L 118.640625 35.347656 L 117.046875 34.242188 L 115.082031 32.882812 C 115.078125 32.578125 115.074219 32.277344 115.0625 31.972656 L 115.382812 31.730469 L 117.050781 30.476562 L 117.996094 29.761719 L 117.34375 28.777344 C 113.863281 23.523438 109.628906 18.816406 104.757812 14.792969 C 99.847656 10.738281 94.386719 7.453125 88.519531 5.023438 L 87.578125 4.632812 L 87.101562 5.3125 C 86.800781 5.3125 86.496094 5.316406 86.1875 5.328125 L 85.148438 3.964844 L 84.914062 3.65625 L 84.546875 3.53125 C 82.734375 2.917969 80.867188 2.382812 78.996094 1.933594 Z M 87.246094 48.359375 C 86.34375 48.359375 85.429688 48.277344 84.53125 48.121094 C 80.472656 47.40625 76.933594 45.160156 74.574219 41.796875 C 72.210938 38.4375 71.308594 34.363281 72.03125 30.324219 C 73.339844 22.984375 79.722656 17.65625 87.207031 17.65625 C 88.113281 17.65625 89.027344 17.738281 89.925781 17.894531 C 98.304688 19.375 103.910156 27.355469 102.425781 35.6875 C 102.15625 37.1875 101.671875 38.628906 100.988281 39.96875 C 100.503906 40.917969 99.917969 41.8125 99.253906 42.632812 C 98.816406 43.175781 98.332031 43.691406 97.816406 44.175781 C 97.03125 44.910156 96.167969 45.566406 95.242188 46.121094 C 92.824219 47.585938 90.0625 48.359375 87.246094 48.359375 Z M 87.246094 48.359375 "/>
<path style=" stroke:none;fill-rule:nonzero;fill:rgb(55.29412%,82.745099%,78.039217%);fill-opacity:1;" d="M 43.316406 105.574219 C 43.191406 105.558594 43.070312 105.539062 42.945312 105.515625 C 42.824219 105.496094 42.699219 105.472656 42.578125 105.445312 L 42.195312 105.363281 L 41.605469 103.136719 C 41.589844 103.128906 41.574219 103.125 41.558594 103.117188 L 39.609375 104.363281 L 39.273438 104.164062 C 39.054688 104.039062 38.84375 103.902344 38.640625 103.765625 L 38.320312 103.546875 L 38.636719 101.261719 C 38.625 101.25 38.613281 101.238281 38.601562 101.226562 L 36.320312 101.632812 L 36.085938 101.320312 C 35.933594 101.125 35.789062 100.917969 35.65625 100.710938 L 35.441406 100.386719 L 36.613281 98.394531 C 36.605469 98.378906 36.597656 98.363281 36.589844 98.347656 L 34.324219 97.859375 L 34.226562 97.480469 C 34.167969 97.25 34.113281 97.003906 34.066406 96.757812 L 33.996094 96.375 L 35.84375 94.980469 C 35.84375 94.964844 35.84375 94.949219 35.84375 94.929688 L 33.941406 93.613281 L 33.996094 93.230469 C 34.011719 93.109375 34.03125 92.984375 34.054688 92.863281 C 34.078125 92.738281 34.101562 92.617188 34.128906 92.496094 L 34.210938 92.117188 L 36.449219 91.53125 C 36.457031 91.515625 36.460938 91.5 36.46875 91.484375 L 35.214844 89.542969 L 35.414062 89.207031 C 35.542969 88.992188 35.679688 88.78125 35.816406 88.582031 L 36.039062 88.261719 L 38.335938 88.578125 C 38.347656 88.566406 38.359375 88.550781 38.371094 88.539062 L 37.960938 86.273438 L 38.273438 86.039062 C 38.476562 85.886719 38.683594 85.746094 38.886719 85.613281 L 39.214844 85.402344 L 41.214844 86.5625 C 41.230469 86.554688 41.246094 86.550781 41.261719 86.542969 L 41.753906 84.289062 L 42.136719 84.191406 C 42.375 84.132812 42.621094 84.078125 42.863281 84.03125 L 43.25 83.964844 L 44.648438 85.800781 C 44.667969 85.800781 44.683594 85.796875 44.699219 85.796875 L 46.023438 83.90625 L 46.410156 83.960938 C 46.535156 83.980469 46.65625 84 46.78125 84.019531 C 46.90625 84.042969 47.027344 84.066406 47.148438 84.09375 L 47.53125 84.171875 L 48.121094 86.402344 C 48.136719 86.40625 48.152344 86.414062 48.167969 86.421875 L 50.117188 85.175781 L 50.453125 85.371094 C 50.671875 85.5 50.882812 85.632812 51.085938 85.773438 L 51.40625 85.992188 L 51.089844 88.277344 C 51.101562 88.289062 51.113281 88.300781 51.128906 88.3125 L 53.40625 87.90625 L 53.640625 88.214844 C 53.789062 88.414062 53.933594 88.617188 54.070312 88.824219 L 54.285156 89.152344 L 53.117188 91.140625 C 53.121094 91.15625 53.128906 91.171875 53.136719 91.1875 L 55.402344 91.679688 L 55.5 92.054688 C 55.558594 92.289062 55.613281 92.53125 55.660156 92.78125 L 55.730469 93.164062 L 53.882812 94.554688 C 53.882812 94.574219 53.882812 94.589844 53.886719 94.605469 L 55.785156 95.921875 L 55.730469 96.304688 C 55.714844 96.429688 55.695312 96.550781 55.671875 96.675781 C 55.652344 96.800781 55.625 96.921875 55.601562 97.042969 L 55.519531 97.421875 L 53.277344 98.007812 C 53.273438 98.023438 53.265625 98.039062 53.257812 98.054688 L 54.511719 99.996094 L 54.3125 100.328125 C 54.1875 100.542969 54.050781 100.753906 53.910156 100.953125 L 53.691406 101.277344 L 51.394531 100.960938 C 51.382812 100.972656 51.367188 100.984375 51.355469 100.996094 L 51.765625 103.265625 L 51.453125 103.5 C 51.257812 103.644531 51.050781 103.789062 50.839844 103.925781 L 50.511719 104.136719 L 48.511719 102.972656 C 48.496094 102.980469 48.480469 102.988281 48.464844 102.996094 L 47.972656 105.25 L 47.59375 105.34375 C 47.355469 105.40625 47.109375 105.460938 46.863281 105.503906 L 46.476562 105.574219 L 45.078125 103.738281 C 45.0625 103.738281 45.042969 103.738281 45.027344 103.738281 L 43.703125 105.628906 Z M 44.855469 90.15625 C 42.609375 90.15625 40.691406 91.757812 40.296875 93.964844 C 40.082031 95.175781 40.355469 96.398438 41.0625 97.410156 C 41.773438 98.417969 42.835938 99.09375 44.054688 99.308594 C 44.324219 99.355469 44.597656 99.378906 44.871094 99.378906 C 47.117188 99.378906 49.035156 97.78125 49.429688 95.574219 C 49.875 93.070312 48.191406 90.671875 45.671875 90.230469 C 45.402344 90.183594 45.128906 90.15625 44.855469 90.15625 Z M 44.855469 90.15625 "/>
<path style=" stroke:none;fill-rule:nonzero;fill:rgb(13.333334%,13.333334%,13.333334%);fill-opacity:1;" d="M 46.320312 84.585938 C 46.4375 84.601562 46.554688 84.621094 46.671875 84.640625 C 46.785156 84.660156 46.902344 84.683594 47.015625 84.710938 L 47.589844 86.878906 C 47.808594 86.953125 48.023438 87.039062 48.230469 87.128906 L 50.132812 85.914062 C 50.335938 86.035156 50.53125 86.160156 50.726562 86.292969 L 50.417969 88.515625 C 50.589844 88.667969 50.753906 88.828125 50.914062 88.992188 L 53.136719 88.59375 C 53.277344 88.78125 53.410156 88.972656 53.539062 89.167969 L 52.398438 91.109375 C 52.5 91.3125 52.59375 91.523438 52.675781 91.734375 L 54.886719 92.210938 C 54.941406 92.4375 54.992188 92.664062 55.035156 92.894531 L 53.234375 94.253906 C 53.25 94.480469 53.253906 94.707031 53.25 94.9375 L 55.101562 96.21875 C 55.085938 96.335938 55.070312 96.449219 55.046875 96.566406 C 55.027344 96.679688 55.003906 96.796875 54.980469 96.910156 L 52.796875 97.480469 C 52.722656 97.699219 52.636719 97.910156 52.546875 98.117188 L 53.765625 100.007812 C 53.648438 100.210938 53.519531 100.40625 53.390625 100.597656 L 51.152344 100.289062 C 51 100.460938 50.839844 100.625 50.675781 100.785156 L 51.074219 102.996094 C 50.882812 103.136719 50.691406 103.269531 50.496094 103.394531 L 48.542969 102.261719 C 48.339844 102.363281 48.128906 102.457031 47.914062 102.539062 L 47.433594 104.734375 C 47.207031 104.792969 46.980469 104.839844 46.746094 104.882812 L 45.382812 103.09375 C 45.214844 103.105469 45.042969 103.109375 44.871094 103.109375 C 44.8125 103.109375 44.753906 103.109375 44.695312 103.109375 L 43.40625 104.949219 C 43.289062 104.933594 43.171875 104.917969 43.054688 104.894531 C 42.941406 104.875 42.824219 104.851562 42.710938 104.828125 L 42.136719 102.65625 C 41.917969 102.582031 41.703125 102.5 41.496094 102.410156 L 39.59375 103.621094 C 39.390625 103.503906 39.195312 103.378906 39 103.246094 L 39.3125 101.019531 C 39.136719 100.871094 38.972656 100.710938 38.816406 100.546875 L 36.59375 100.941406 C 36.449219 100.757812 36.316406 100.5625 36.1875 100.367188 L 37.328125 98.429688 C 37.226562 98.222656 37.132812 98.015625 37.050781 97.800781 L 34.84375 97.324219 C 34.785156 97.101562 34.734375 96.871094 34.691406 96.640625 L 36.492188 95.285156 C 36.476562 95.058594 36.472656 94.832031 36.476562 94.601562 L 34.625 93.320312 C 34.640625 93.203125 34.660156 93.085938 34.679688 92.972656 C 34.699219 92.855469 34.722656 92.742188 34.746094 92.628906 L 36.929688 92.058594 C 37.003906 91.839844 37.089844 91.628906 37.179688 91.417969 L 35.960938 89.53125 C 36.078125 89.328125 36.207031 89.132812 36.339844 88.941406 L 38.578125 89.246094 C 38.730469 89.074219 38.886719 88.910156 39.054688 88.753906 L 38.652344 86.542969 C 38.84375 86.402344 39.035156 86.269531 39.234375 86.140625 L 41.183594 87.273438 C 41.390625 87.175781 41.597656 87.082031 41.8125 87 L 42.292969 84.804688 C 42.519531 84.746094 42.75 84.695312 42.980469 84.652344 L 44.34375 86.441406 C 44.511719 86.433594 44.683594 86.425781 44.855469 86.425781 C 44.914062 86.425781 44.972656 86.429688 45.03125 86.429688 L 46.320312 84.585938 M 44.871094 100.011719 C 47.375 100.011719 49.597656 98.222656 50.054688 95.683594 C 50.5625 92.835938 48.652344 90.113281 45.785156 89.609375 C 45.472656 89.554688 45.164062 89.527344 44.855469 89.527344 C 42.351562 89.527344 40.128906 91.3125 39.675781 93.851562 C 39.164062 96.703125 41.078125 99.421875 43.941406 99.929688 C 44.253906 99.984375 44.5625 100.011719 44.871094 100.011719 M 45.726562 83.226562 L 45.28125 83.867188 L 44.652344 84.761719 L 43.992188 83.890625 L 43.519531 83.273438 L 42.75 83.414062 C 42.492188 83.460938 42.230469 83.515625 41.976562 83.582031 L 41.21875 83.773438 L 41.054688 84.535156 L 40.820312 85.601562 L 39.871094 85.050781 L 39.199219 84.660156 L 38.542969 85.082031 C 38.324219 85.222656 38.105469 85.375 37.894531 85.535156 L 37.265625 86 L 37.40625 86.765625 L 37.597656 87.839844 L 36.511719 87.691406 L 35.738281 87.585938 L 35.292969 88.226562 C 35.148438 88.433594 35.003906 88.65625 34.867188 88.886719 L 34.46875 89.554688 L 34.890625 90.210938 L 35.484375 91.128906 L 34.425781 91.40625 L 33.671875 91.605469 L 33.507812 92.359375 C 33.480469 92.492188 33.453125 92.625 33.429688 92.75 C 33.40625 92.878906 33.386719 93.011719 33.367188 93.144531 L 33.261719 93.910156 L 33.898438 94.355469 L 34.800781 94.976562 L 33.925781 95.636719 L 33.300781 96.109375 L 33.445312 96.875 C 33.492188 97.132812 33.550781 97.390625 33.613281 97.640625 L 33.808594 98.394531 L 34.574219 98.558594 L 35.644531 98.789062 L 35.09375 99.730469 L 34.699219 100.402344 L 35.125 101.054688 C 35.265625 101.273438 35.417969 101.492188 35.578125 101.699219 L 36.046875 102.320312 L 36.816406 102.183594 L 37.894531 101.992188 L 37.746094 103.074219 L 37.636719 103.84375 L 38.28125 104.285156 C 38.496094 104.429688 38.71875 104.574219 38.949219 104.707031 L 39.621094 105.105469 L 40.28125 104.683594 L 41.203125 104.09375 L 41.484375 105.148438 L 41.683594 105.902344 L 42.449219 106.0625 C 42.585938 106.089844 42.714844 106.117188 42.835938 106.136719 C 42.957031 106.160156 43.082031 106.179688 43.226562 106.199219 L 44 106.308594 L 44.445312 105.671875 L 45.074219 104.777344 L 45.738281 105.644531 L 46.210938 106.265625 L 46.980469 106.125 C 47.242188 106.078125 47.5 106.019531 47.75 105.957031 L 48.507812 105.761719 L 48.675781 105 L 48.90625 103.933594 L 49.855469 104.484375 L 50.53125 104.878906 L 51.183594 104.453125 C 51.410156 104.308594 51.625 104.15625 51.832031 104.003906 L 52.460938 103.539062 L 52.320312 102.773438 L 52.128906 101.699219 L 53.214844 101.847656 L 53.992188 101.953125 L 54.433594 101.3125 C 54.582031 101.097656 54.722656 100.875 54.859375 100.652344 L 55.257812 99.980469 L 54.835938 99.328125 L 54.242188 98.40625 L 55.300781 98.128906 L 56.054688 97.933594 L 56.21875 97.175781 C 56.25 97.042969 56.273438 96.914062 56.296875 96.785156 C 56.320312 96.660156 56.339844 96.527344 56.359375 96.394531 L 56.46875 95.625 L 55.828125 95.183594 L 54.925781 94.558594 L 55.804688 93.902344 L 56.425781 93.429688 L 56.285156 92.664062 C 56.234375 92.402344 56.175781 92.144531 56.113281 91.898438 L 55.917969 91.144531 L 55.15625 90.980469 L 54.082031 90.746094 L 54.636719 89.804688 L 55.03125 89.132812 L 54.601562 88.480469 C 54.457031 88.261719 54.304688 88.042969 54.148438 87.835938 L 53.679688 87.214844 L 52.910156 87.351562 L 51.832031 87.546875 L 51.980469 86.464844 L 52.089844 85.695312 L 51.445312 85.253906 C 51.230469 85.105469 51.007812 84.964844 50.777344 84.828125 L 50.105469 84.433594 L 49.445312 84.855469 L 48.523438 85.445312 L 48.242188 84.390625 L 48.046875 83.636719 L 47.28125 83.476562 C 47.125 83.441406 47.007812 83.417969 46.890625 83.398438 C 46.777344 83.378906 46.65625 83.359375 46.503906 83.339844 Z M 44.871094 98.75 C 44.636719 98.75 44.398438 98.726562 44.164062 98.6875 C 43.113281 98.5 42.195312 97.917969 41.582031 97.046875 C 40.972656 96.175781 40.738281 95.121094 40.921875 94.074219 C 41.261719 92.171875 42.917969 90.789062 44.859375 90.789062 C 45.09375 90.789062 45.328125 90.808594 45.5625 90.851562 C 46.613281 91.035156 47.53125 91.617188 48.144531 92.488281 C 48.757812 93.359375 48.992188 94.417969 48.804688 95.464844 C 48.464844 97.367188 46.808594 98.75 44.871094 98.75 Z M 44.871094 98.75 "/>
<path style=" stroke:none;fill-rule:nonzero;fill:rgb(88.627452%,72.156864%,80.784315%);fill-opacity:1;" d="M 76.675781 104.492188 C 76.148438 104.441406 75.625 104.367188 75.109375 104.269531 L 70.992188 108.738281 L 70.59375 108.597656 C 69.71875 108.289062 68.839844 107.914062 67.992188 107.488281 L 67.613281 107.300781 L 68.023438 101.25 C 67.597656 100.945312 67.183594 100.621094 66.785156 100.28125 L 60.96875 102.105469 L 60.695312 101.789062 C 60.082031 101.070312 59.511719 100.3125 58.996094 99.535156 L 58.765625 99.1875 L 62.15625 94.148438 C 61.941406 93.671875 61.742188 93.183594 61.570312 92.691406 L 55.617188 91.375 L 55.542969 90.960938 C 55.453125 90.464844 55.382812 90.007812 55.332031 89.566406 C 55.277344 89.128906 55.238281 88.667969 55.207031 88.164062 L 55.179688 87.746094 L 60.652344 85.070312 C 60.703125 84.546875 60.777344 84.027344 60.875 83.511719 L 56.378906 79.414062 L 56.519531 79.019531 C 56.835938 78.144531 57.210938 77.273438 57.636719 76.433594 L 57.828125 76.058594 L 63.914062 76.464844 C 64.21875 76.042969 64.542969 75.628906 64.886719 75.234375 L 63.050781 69.449219 L 63.371094 69.179688 C 64.089844 68.570312 64.851562 68.003906 65.632812 67.488281 L 65.988281 67.257812 L 71.050781 70.632812 C 71.527344 70.417969 72.019531 70.222656 72.519531 70.046875 L 73.839844 64.132812 L 74.253906 64.054688 C 74.726562 63.96875 75.199219 63.898438 75.660156 63.84375 C 76.121094 63.789062 76.597656 63.746094 77.074219 63.71875 L 77.492188 63.695312 L 80.183594 69.132812 C 80.714844 69.1875 81.238281 69.261719 81.75 69.355469 L 85.871094 64.886719 L 86.269531 65.027344 C 87.152344 65.34375 88.027344 65.71875 88.871094 66.136719 L 89.246094 66.328125 L 88.835938 72.375 C 89.261719 72.679688 89.675781 73.003906 90.074219 73.347656 L 95.890625 71.519531 L 96.164062 71.835938 C 96.777344 72.554688 97.347656 73.3125 97.867188 74.089844 L 98.097656 74.441406 L 94.703125 79.476562 C 94.917969 79.949219 95.113281 80.4375 95.289062 80.9375 L 101.242188 82.25 L 101.316406 82.664062 C 101.402344 83.128906 101.472656 83.597656 101.527344 84.058594 C 101.585938 84.519531 101.625 84.992188 101.652344 85.464844 L 101.679688 85.882812 L 96.210938 88.558594 C 96.15625 89.085938 96.082031 89.605469 95.984375 90.113281 L 100.480469 94.210938 L 100.339844 94.605469 C 100.023438 95.480469 99.648438 96.351562 99.222656 97.195312 L 99.03125 97.566406 L 92.949219 97.160156 C 92.640625 97.585938 92.316406 98 91.972656 98.394531 L 93.8125 104.175781 L 93.492188 104.449219 C 92.769531 105.058594 92.003906 105.628906 91.222656 106.140625 L 90.871094 106.367188 L 85.804688 102.996094 C 85.328125 103.210938 84.835938 103.40625 84.339844 103.578125 L 83.015625 109.496094 L 82.601562 109.570312 C 82.101562 109.660156 81.644531 109.730469 81.199219 109.78125 C 80.757812 109.835938 80.296875 109.875 79.789062 109.90625 L 79.367188 109.933594 Z M 78.445312 74.402344 C 77.949219 74.402344 77.441406 74.429688 76.945312 74.488281 C 70.109375 75.304688 65.21875 81.496094 66.035156 88.289062 C 66.789062 94.527344 72.109375 99.226562 78.414062 99.226562 C 78.914062 99.226562 79.417969 99.195312 79.917969 99.136719 C 83.226562 98.742188 86.183594 97.089844 88.246094 94.484375 C 90.304688 91.875 91.21875 88.625 90.824219 85.335938 C 90.070312 79.101562 84.75 74.402344 78.445312 74.402344 Z M 78.445312 74.402344 "/>
<path style=" stroke:none;fill-rule:nonzero;fill:rgb(13.333334%,13.333334%,13.333334%);fill-opacity:1;" d="M 77.109375 64.347656 L 79.773438 69.730469 C 80.519531 69.789062 81.253906 69.894531 81.976562 70.042969 L 86.054688 65.621094 C 86.921875 65.929688 87.765625 66.292969 88.585938 66.703125 L 88.179688 72.6875 C 88.789062 73.105469 89.375 73.5625 89.925781 74.054688 L 95.679688 72.246094 C 96.273438 72.941406 96.828125 73.671875 97.335938 74.4375 L 93.976562 79.421875 C 94.296875 80.082031 94.570312 80.769531 94.804688 81.476562 L 100.691406 82.777344 C 100.773438 83.222656 100.84375 83.675781 100.898438 84.132812 C 100.953125 84.59375 100.996094 85.046875 101.019531 85.503906 L 95.609375 88.148438 C 95.550781 88.890625 95.445312 89.625 95.292969 90.339844 L 99.742188 94.394531 C 99.429688 95.257812 99.066406 96.097656 98.65625 96.910156 L 92.636719 96.507812 C 92.214844 97.117188 91.753906 97.695312 91.261719 98.246094 L 93.078125 103.96875 C 92.382812 104.558594 91.644531 105.109375 90.875 105.613281 L 85.863281 102.273438 C 85.199219 102.589844 84.507812 102.863281 83.796875 103.09375 L 82.488281 108.953125 C 82.039062 109.03125 81.585938 109.101562 81.125 109.15625 C 80.664062 109.210938 80.207031 109.25 79.75 109.277344 L 77.085938 103.894531 C 76.339844 103.839844 75.605469 103.734375 74.882812 103.582031 L 70.808594 108.003906 C 69.9375 107.695312 69.09375 107.335938 68.277344 106.925781 L 68.679688 100.9375 C 68.070312 100.519531 67.484375 100.066406 66.933594 99.574219 L 61.179688 101.378906 C 60.585938 100.6875 60.03125 99.953125 59.523438 99.1875 L 62.882812 94.207031 C 62.566406 93.542969 62.289062 92.859375 62.054688 92.152344 L 56.167969 90.851562 C 56.085938 90.402344 56.015625 89.953125 55.960938 89.492188 C 55.90625 89.035156 55.867188 88.578125 55.839844 88.125 L 61.25 85.476562 C 61.308594 84.734375 61.414062 84.003906 61.566406 83.285156 L 57.117188 79.234375 C 57.429688 78.371094 57.792969 77.53125 58.203125 76.714844 L 64.226562 77.121094 C 64.644531 76.511719 65.105469 75.929688 65.597656 75.382812 L 63.78125 69.660156 C 64.480469 69.070312 65.214844 68.519531 65.984375 68.015625 L 70.996094 71.351562 C 71.660156 71.039062 72.351562 70.761719 73.0625 70.53125 L 74.371094 64.675781 C 74.820312 64.59375 75.273438 64.527344 75.734375 64.46875 C 76.195312 64.414062 76.65625 64.375 77.109375 64.347656 M 78.414062 99.859375 C 78.933594 99.859375 79.460938 99.828125 79.992188 99.761719 C 87.183594 98.90625 92.316406 92.410156 91.453125 85.261719 C 90.652344 78.636719 84.992188 73.769531 78.445312 73.769531 C 77.925781 73.769531 77.398438 73.800781 76.867188 73.863281 C 69.675781 74.722656 64.542969 81.214844 65.40625 88.367188 C 66.207031 94.992188 71.867188 99.859375 78.414062 99.859375 M 77.878906 63.042969 L 77.039062 63.089844 C 76.550781 63.117188 76.0625 63.160156 75.585938 63.21875 C 75.109375 63.273438 74.625 63.347656 74.140625 63.4375 L 73.3125 63.585938 L 73.132812 64.402344 L 71.976562 69.574219 C 71.683594 69.679688 71.398438 69.792969 71.117188 69.914062 L 66.691406 66.964844 L 65.988281 66.5 L 65.285156 66.960938 C 64.480469 67.492188 63.699219 68.074219 62.960938 68.699219 L 62.316406 69.242188 L 62.570312 70.039062 L 64.175781 75.09375 C 63.980469 75.328125 63.789062 75.570312 63.605469 75.8125 L 58.289062 75.457031 L 57.449219 75.402344 L 57.070312 76.148438 C 56.632812 77.011719 56.25 77.90625 55.925781 78.808594 L 55.640625 79.597656 L 56.261719 80.164062 L 60.1875 83.742188 C 60.136719 84.046875 60.09375 84.351562 60.058594 84.65625 L 55.277344 86.992188 L 54.519531 87.363281 L 54.574219 88.203125 C 54.605469 88.71875 54.644531 89.191406 54.699219 89.644531 C 54.753906 90.09375 54.828125 90.5625 54.917969 91.074219 L 55.066406 91.898438 L 55.890625 92.082031 L 61.089844 93.230469 C 61.199219 93.519531 61.3125 93.804688 61.4375 94.085938 L 58.472656 98.488281 L 58.003906 99.183594 L 58.464844 99.882812 C 58.996094 100.679688 59.582031 101.460938 60.210938 102.195312 L 60.757812 102.835938 L 61.5625 102.582031 L 66.640625 100.988281 C 66.878906 101.183594 67.121094 101.371094 67.367188 101.554688 L 67.011719 106.839844 L 66.953125 107.675781 L 67.707031 108.050781 C 68.578125 108.488281 69.480469 108.875 70.382812 109.191406 L 71.175781 109.472656 L 71.742188 108.859375 L 75.34375 104.953125 C 75.644531 105.003906 75.953125 105.046875 76.257812 105.082031 L 78.609375 109.835938 L 78.984375 110.589844 L 79.828125 110.535156 C 80.347656 110.503906 80.820312 110.464844 81.277344 110.410156 C 81.730469 110.355469 82.203125 110.285156 82.714844 110.191406 L 83.546875 110.042969 L 83.726562 109.226562 L 84.882812 104.054688 C 85.171875 103.949219 85.460938 103.832031 85.742188 103.710938 L 90.167969 106.660156 L 90.867188 107.125 L 91.570312 106.667969 C 92.375 106.140625 93.160156 105.554688 93.902344 104.929688 L 94.542969 104.386719 L 94.289062 103.585938 L 92.683594 98.535156 C 92.878906 98.300781 93.070312 98.058594 93.253906 97.8125 L 98.570312 98.167969 L 99.410156 98.226562 L 99.789062 97.476562 C 100.226562 96.613281 100.613281 95.71875 100.9375 94.820312 L 101.222656 94.03125 L 100.597656 93.464844 L 96.671875 89.882812 C 96.722656 89.582031 96.765625 89.277344 96.800781 88.972656 L 101.582031 86.632812 L 102.335938 86.265625 L 102.289062 85.429688 C 102.257812 84.941406 102.214844 84.457031 102.160156 83.984375 C 102.101562 83.511719 102.027344 83.027344 101.941406 82.550781 L 101.789062 81.726562 L 100.96875 81.546875 L 95.769531 80.398438 C 95.660156 80.105469 95.546875 79.820312 95.425781 79.539062 L 98.390625 75.140625 L 98.859375 74.445312 L 98.394531 73.742188 C 97.863281 72.941406 97.277344 72.164062 96.648438 71.429688 L 96.101562 70.792969 L 95.296875 71.042969 L 90.21875 72.640625 C 89.980469 72.445312 89.738281 72.257812 89.492188 72.074219 L 89.851562 66.785156 L 89.90625 65.953125 L 89.15625 65.574219 C 88.289062 65.140625 87.390625 64.757812 86.480469 64.433594 L 85.6875 64.148438 L 85.117188 64.769531 L 81.519531 68.675781 C 81.214844 68.625 80.910156 68.582031 80.601562 68.542969 L 78.25 63.792969 Z M 78.414062 98.597656 C 72.429688 98.597656 67.378906 94.132812 66.667969 88.214844 C 66.289062 85.089844 67.160156 82.007812 69.113281 79.535156 C 71.070312 77.058594 73.878906 75.492188 77.019531 75.117188 C 77.492188 75.058594 77.972656 75.03125 78.445312 75.03125 C 84.429688 75.03125 89.480469 79.492188 90.191406 85.410156 C 90.570312 88.535156 89.699219 91.617188 87.746094 94.09375 C 85.789062 96.566406 82.984375 98.136719 79.839844 98.511719 C 79.367188 98.566406 78.886719 98.597656 78.414062 98.597656 Z M 78.414062 98.597656 "/>
<path style=" stroke:none;fill-rule:nonzero;fill:rgb(50.196081%,69.411767%,82.745099%);fill-opacity:1;" d="M 30.296875 115.117188 C 30.117188 115.199219 29.9375 115.28125 29.75 115.355469 L 29.675781 115.707031 L 28.96875 115.707031 L 28.804688 115.597656 C 26.644531 114.140625 24.546875 112.53125 22.574219 110.8125 L 21.136719 109.558594 L 23.042969 109.707031 C 23.273438 109.726562 23.507812 109.734375 23.742188 109.734375 C 24.429688 109.734375 25.121094 109.652344 25.792969 109.492188 C 26.121094 109.414062 26.445312 109.316406 26.753906 109.203125 L 26.859375 109.164062 C 29.746094 108.070312 31.867188 105.527344 32.410156 102.5 C 32.820312 100.195312 32.304688 97.867188 30.957031 95.949219 C 29.609375 94.03125 27.589844 92.746094 25.269531 92.339844 C 24.757812 92.246094 24.234375 92.203125 23.71875 92.203125 C 20.261719 92.203125 17.113281 94.226562 15.691406 97.363281 C 15.558594 97.667969 15.4375 97.980469 15.335938 98.296875 C 15.214844 98.667969 15.121094 99.050781 15.050781 99.4375 C 14.957031 99.960938 14.910156 100.492188 14.914062 101.011719 L 14.925781 102.910156 L 13.773438 101.398438 C 11.378906 98.246094 9.277344 94.859375 7.527344 91.324219 L 7.367188 91.007812 L 7.5625 90.707031 C 7.675781 90.527344 7.792969 90.351562 7.921875 90.164062 L 8.144531 89.839844 L 12.214844 90.398438 C 12.347656 90.253906 12.484375 90.113281 12.628906 89.96875 L 11.90625 85.953125 L 12.21875 85.71875 C 12.566406 85.457031 12.929688 85.207031 13.292969 84.972656 L 13.621094 84.761719 L 17.160156 86.820312 C 17.34375 86.734375 17.527344 86.65625 17.710938 86.578125 L 18.582031 82.589844 L 18.964844 82.492188 C 19.386719 82.382812 19.816406 82.292969 20.238281 82.214844 L 20.625 82.144531 L 23.101562 85.394531 C 23.308594 85.386719 23.507812 85.382812 23.703125 85.382812 L 26.046875 82.035156 L 26.433594 82.089844 C 26.675781 82.125 26.875 82.15625 27.082031 82.191406 C 27.292969 82.230469 27.507812 82.273438 27.71875 82.316406 L 28.105469 82.394531 L 29.148438 86.34375 C 29.335938 86.414062 29.523438 86.484375 29.707031 86.5625 L 33.160156 84.355469 L 33.496094 84.554688 C 33.871094 84.769531 34.242188 85.007812 34.601562 85.253906 L 34.921875 85.472656 L 34.359375 89.515625 C 34.503906 89.648438 34.648438 89.789062 34.792969 89.929688 L 36.519531 89.625 L 38.832031 89.210938 L 39.066406 89.519531 C 39.320312 89.855469 39.5625 90.203125 39.816406 90.585938 L 40.03125 90.914062 L 37.957031 94.4375 C 38.042969 94.613281 38.121094 94.796875 38.199219 94.984375 L 40.074219 95.386719 L 42.214844 95.851562 L 42.3125 96.230469 C 42.417969 96.640625 42.511719 97.066406 42.59375 97.496094 L 42.664062 97.878906 L 39.390625 100.34375 C 39.394531 100.40625 39.394531 100.46875 39.398438 100.53125 L 39.402344 100.699219 C 39.402344 100.78125 39.402344 100.863281 39.40625 100.941406 L 41.355469 102.292969 L 42.769531 103.269531 L 42.714844 103.652344 C 42.683594 103.878906 42.652344 104.089844 42.613281 104.300781 C 42.574219 104.511719 42.53125 104.730469 42.484375 104.941406 L 42.402344 105.320312 L 38.4375 106.355469 C 38.386719 106.492188 38.332031 106.628906 38.277344 106.761719 C 38.261719 106.808594 38.242188 106.859375 38.21875 106.914062 L 40.4375 110.347656 L 40.238281 110.683594 C 40.027344 111.042969 39.789062 111.410156 39.539062 111.773438 L 39.316406 112.097656 L 35.246094 111.539062 C 35.109375 111.6875 34.972656 111.828125 34.832031 111.96875 L 35.273438 114.417969 L 35.367188 114.9375 L 35.554688 115.988281 L 35.242188 116.21875 C 35.132812 116.304688 35.019531 116.382812 34.90625 116.464844 C 34.679688 116.628906 34.429688 116.796875 34.171875 116.964844 L 33.84375 117.175781 Z M 30.296875 115.117188 "/>
<path style=" stroke:none;fill-rule:nonzero;fill:rgb(13.333334%,13.333334%,13.333334%);fill-opacity:1;" d="M 26.34375 82.714844 C 26.550781 82.746094 26.761719 82.777344 26.96875 82.8125 C 27.179688 82.851562 27.386719 82.890625 27.589844 82.933594 L 28.621094 86.828125 C 29.011719 86.960938 29.394531 87.109375 29.769531 87.273438 L 32.410156 85.585938 L 33.175781 85.097656 C 33.539062 85.308594 33.894531 85.535156 34.238281 85.773438 L 33.6875 89.761719 C 33.996094 90.03125 34.289062 90.316406 34.574219 90.609375 L 36.628906 90.246094 L 38.558594 89.898438 C 38.8125 90.234375 39.054688 90.578125 39.285156 90.929688 L 37.242188 94.40625 C 37.421875 94.773438 37.589844 95.148438 37.738281 95.53125 L 39.9375 96.003906 L 41.695312 96.386719 C 41.800781 96.789062 41.890625 97.195312 41.96875 97.609375 L 41.132812 98.238281 L 38.742188 100.042969 C 38.75 100.210938 38.757812 100.382812 38.765625 100.550781 L 38.769531 100.714844 C 38.769531 100.898438 38.769531 101.082031 38.765625 101.269531 L 39.398438 101.703125 L 40.992188 102.8125 L 42.085938 103.570312 C 42.058594 103.777344 42.027344 103.980469 41.988281 104.1875 C 41.953125 104.398438 41.910156 104.601562 41.867188 104.808594 L 37.953125 105.832031 C 37.871094 106.066406 37.785156 106.296875 37.691406 106.527344 C 37.632812 106.675781 37.570312 106.824219 37.503906 106.972656 L 39.691406 110.363281 C 39.476562 110.722656 39.25 111.074219 39.015625 111.417969 L 35.003906 110.867188 C 34.730469 111.175781 34.445312 111.46875 34.148438 111.753906 L 34.742188 115.046875 L 34.863281 115.714844 C 34.753906 115.796875 34.648438 115.875 34.539062 115.949219 C 34.304688 116.121094 34.066406 116.28125 33.824219 116.4375 L 30.328125 114.40625 C 29.960938 114.585938 29.585938 114.75 29.199219 114.898438 L 29.164062 115.074219 L 29.160156 115.074219 C 27.003906 113.625 24.945312 112.039062 22.992188 110.335938 C 23.242188 110.355469 23.492188 110.367188 23.742188 110.367188 C 24.492188 110.367188 25.230469 110.277344 25.945312 110.105469 C 26.292969 110.019531 26.636719 109.917969 26.972656 109.792969 L 26.976562 109.792969 C 30.03125 108.679688 32.425781 106.027344 33.03125 102.609375 C 33.945312 97.5 30.519531 92.625 25.382812 91.71875 C 24.824219 91.617188 24.265625 91.570312 23.71875 91.570312 C 19.996094 91.570312 16.625 93.765625 15.113281 97.105469 C 14.96875 97.429688 14.839844 97.761719 14.730469 98.109375 C 14.601562 98.503906 14.5 98.910156 14.425781 99.328125 C 14.324219 99.894531 14.277344 100.460938 14.28125 101.015625 C 11.917969 97.90625 9.84375 94.570312 8.09375 91.046875 C 8.210938 90.867188 8.328125 90.691406 8.445312 90.519531 L 10.289062 90.769531 L 11.371094 90.917969 L 12.460938 91.070312 C 12.730469 90.761719 13.015625 90.46875 13.3125 90.183594 L 12.597656 86.222656 C 12.9375 85.972656 13.28125 85.730469 13.636719 85.503906 L 16.5 87.167969 L 17.132812 87.53125 C 17.5 87.351562 17.878906 87.1875 18.261719 87.039062 L 19.121094 83.101562 C 19.527344 83 19.9375 82.910156 20.355469 82.835938 L 22.800781 86.042969 C 23.101562 86.023438 23.40625 86.015625 23.710938 86.015625 C 23.816406 86.015625 23.925781 86.015625 24.03125 86.019531 L 26.34375 82.714844 M 25.75 81.355469 L 25.304688 81.996094 L 23.390625 84.730469 L 21.363281 82.074219 L 20.894531 81.453125 L 20.125 81.59375 C 19.6875 81.671875 19.242188 81.769531 18.804688 81.882812 L 18.046875 82.074219 L 17.878906 82.835938 L 17.167969 86.09375 L 17.140625 86.078125 L 14.277344 84.414062 L 13.601562 84.023438 L 12.949219 84.441406 C 12.574219 84.683594 12.199219 84.945312 11.835938 85.214844 L 11.210938 85.683594 L 11.351562 86.445312 L 11.941406 89.726562 L 11.542969 89.671875 L 10.460938 89.523438 L 8.621094 89.269531 L 7.84375 89.164062 L 7.402344 89.804688 C 7.265625 90 7.144531 90.183594 7.027344 90.367188 L 6.640625 90.964844 L 6.957031 91.605469 C 8.726562 95.171875 10.851562 98.59375 13.269531 101.777344 L 15.566406 104.804688 L 15.550781 101.011719 C 15.546875 100.523438 15.589844 100.035156 15.675781 99.546875 C 15.738281 99.1875 15.828125 98.835938 15.9375 98.492188 C 16.035156 98.195312 16.144531 97.902344 16.269531 97.625 C 17.589844 94.714844 20.511719 92.832031 23.71875 92.832031 C 24.199219 92.832031 24.683594 92.875 25.160156 92.960938 C 27.3125 93.339844 29.183594 94.527344 30.4375 96.308594 C 31.6875 98.089844 32.164062 100.25 31.785156 102.390625 C 31.28125 105.199219 29.3125 107.5625 26.628906 108.574219 L 26.535156 108.609375 C 26.246094 108.714844 25.949219 108.804688 25.644531 108.878906 C 25.023438 109.027344 24.382812 109.105469 23.742188 109.105469 C 23.527344 109.105469 23.308594 109.097656 23.09375 109.078125 L 19.285156 108.777344 L 22.15625 111.285156 C 24.148438 113.023438 26.265625 114.648438 28.449219 116.121094 L 28.773438 116.335938 L 30.1875 116.335938 L 30.292969 115.84375 L 33.183594 117.523438 L 33.859375 117.917969 L 34.515625 117.492188 C 34.78125 117.320312 35.039062 117.148438 35.277344 116.976562 C 35.40625 116.886719 35.515625 116.804688 35.625 116.726562 L 36.25 116.257812 L 36.113281 115.496094 L 35.992188 114.824219 L 35.804688 113.785156 L 35.519531 112.210938 L 38.839844 112.667969 L 39.617188 112.773438 L 40.0625 112.132812 C 40.320312 111.753906 40.566406 111.375 40.785156 111.003906 L 41.183594 110.332031 L 40.761719 109.679688 L 38.949219 106.875 L 42.1875 106.027344 L 42.9375 105.832031 L 43.105469 105.078125 C 43.152344 104.859375 43.199219 104.632812 43.238281 104.410156 C 43.277344 104.191406 43.3125 103.972656 43.34375 103.738281 L 43.449219 102.972656 L 42.8125 102.53125 L 41.71875 101.777344 L 40.121094 100.667969 L 40.0625 100.628906 L 41.902344 99.246094 L 42.734375 98.617188 L 43.359375 98.144531 L 43.214844 97.378906 C 43.132812 96.933594 43.035156 96.496094 42.925781 96.070312 L 42.730469 95.320312 L 41.96875 95.152344 L 40.207031 94.773438 L 38.6875 94.445312 L 40.378906 91.566406 L 40.777344 90.894531 L 40.347656 90.242188 C 40.085938 89.84375 39.835938 89.484375 39.574219 89.140625 L 39.101562 88.519531 L 38.335938 88.65625 L 36.40625 89.003906 L 35.039062 89.246094 L 35.496094 85.945312 L 35.601562 85.175781 L 34.960938 84.734375 C 34.589844 84.480469 34.207031 84.234375 33.820312 84.007812 L 33.148438 83.617188 L 32.488281 84.035156 L 31.726562 84.523438 L 29.667969 85.835938 L 28.816406 82.613281 L 28.617188 81.855469 L 27.847656 81.699219 C 27.617188 81.652344 27.410156 81.609375 27.195312 81.570312 C 26.964844 81.53125 26.734375 81.496094 26.523438 81.464844 Z M 25.75 81.355469 "/>
<path style=" stroke:none;fill-rule:nonzero;fill:rgb(74.509805%,72.941178%,85.490197%);fill-opacity:1;" d="M 44.3125 83.921875 C 43.808594 83.863281 43.347656 83.796875 42.910156 83.71875 C 42.472656 83.640625 42.015625 83.546875 41.523438 83.429688 L 41.109375 83.332031 L 40.125 77.347656 C 39.640625 77.148438 39.160156 76.925781 38.695312 76.683594 L 33.445312 79.769531 L 33.109375 79.519531 C 32.359375 78.96875 31.628906 78.355469 30.941406 77.703125 L 30.636719 77.414062 L 32.796875 71.742188 C 32.476562 71.328125 32.175781 70.898438 31.894531 70.460938 L 25.796875 70.523438 L 25.628906 70.140625 C 25.25 69.277344 24.925781 68.386719 24.660156 67.496094 L 24.539062 67.09375 L 29.257812 63.253906 C 29.191406 62.734375 29.144531 62.210938 29.125 61.6875 L 23.8125 58.710938 L 23.863281 58.292969 C 23.921875 57.789062 23.988281 57.335938 24.066406 56.898438 C 24.144531 56.460938 24.238281 56.011719 24.355469 55.519531 L 24.457031 55.109375 L 30.472656 54.128906 C 30.675781 53.644531 30.898438 53.167969 31.140625 52.703125 L 28.039062 47.484375 L 28.289062 47.148438 C 28.847656 46.402344 29.460938 45.679688 30.113281 44.996094 L 30.40625 44.691406 L 36.109375 46.84375 C 36.523438 46.527344 36.957031 46.226562 37.398438 45.945312 L 37.332031 39.878906 L 37.71875 39.714844 C 38.585938 39.339844 39.480469 39.015625 40.382812 38.75 L 40.785156 38.628906 L 44.644531 43.324219 C 45.160156 43.257812 45.6875 43.210938 46.21875 43.191406 L 49.214844 37.910156 L 49.632812 37.957031 C 50.105469 38.011719 50.578125 38.082031 51.039062 38.160156 C 51.5 38.242188 51.964844 38.339844 52.425781 38.449219 L 52.835938 38.550781 L 53.820312 44.53125 C 54.3125 44.734375 54.792969 44.957031 55.253906 45.195312 L 60.503906 42.109375 L 60.84375 42.359375 C 61.597656 42.917969 62.324219 43.527344 63.007812 44.175781 L 63.3125 44.464844 L 61.152344 50.132812 C 61.46875 50.550781 61.773438 50.980469 62.054688 51.421875 L 68.152344 51.351562 L 68.320312 51.738281 C 68.695312 52.597656 69.023438 53.488281 69.289062 54.382812 L 69.410156 54.785156 L 64.6875 58.625 C 64.757812 59.136719 64.800781 59.664062 64.824219 60.191406 L 70.132812 63.167969 L 70.085938 63.582031 C 70.03125 64.054688 69.960938 64.523438 69.878906 64.980469 C 69.800781 65.4375 69.699219 65.902344 69.589844 66.363281 L 69.492188 66.769531 L 63.476562 67.75 C 63.269531 68.238281 63.046875 68.714844 62.804688 69.171875 L 65.910156 74.390625 L 65.660156 74.726562 C 65.101562 75.476562 64.488281 76.199219 63.832031 76.882812 L 63.542969 77.183594 L 57.839844 75.035156 C 57.421875 75.355469 56.988281 75.65625 56.546875 75.933594 L 56.613281 82 L 56.230469 82.164062 C 55.359375 82.542969 54.460938 82.867188 53.566406 83.128906 L 53.160156 83.246094 L 49.300781 78.554688 C 48.78125 78.621094 48.253906 78.667969 47.726562 78.6875 L 44.730469 83.96875 Z M 46.957031 48.527344 C 40.90625 48.527344 35.742188 52.835938 34.683594 58.769531 C 33.480469 65.507812 38.015625 71.964844 44.792969 73.160156 C 45.519531 73.289062 46.257812 73.355469 46.988281 73.355469 C 53.042969 73.355469 58.203125 69.042969 59.265625 63.105469 C 59.847656 59.84375 59.117188 56.546875 57.207031 53.832031 C 55.296875 51.113281 52.4375 49.296875 49.15625 48.71875 C 48.429688 48.589844 47.691406 48.527344 46.957031 48.527344 Z M 46.957031 48.527344 "/>
<path style=" stroke:none;fill-rule:nonzero;fill:rgb(13.333334%,13.333334%,13.333334%);fill-opacity:1;" d="M 49.5625 38.585938 C 50.015625 38.636719 50.46875 38.703125 50.929688 38.78125 C 51.382812 38.863281 51.835938 38.957031 52.277344 39.0625 L 53.253906 44.984375 C 53.949219 45.253906 54.625 45.566406 55.269531 45.917969 L 60.464844 42.867188 C 61.203125 43.414062 61.90625 44.003906 62.570312 44.632812 L 60.429688 50.242188 C 60.894531 50.820312 61.320312 51.425781 61.703125 52.054688 L 67.738281 51.988281 C 68.101562 52.824219 68.417969 53.683594 68.679688 54.5625 L 64.011719 58.359375 C 64.121094 59.085938 64.183594 59.820312 64.199219 60.566406 L 69.453125 63.511719 C 69.402344 63.964844 69.335938 64.417969 69.257812 64.871094 C 69.175781 65.324219 69.082031 65.773438 68.972656 66.214844 L 63.019531 67.183594 C 62.746094 67.878906 62.433594 68.546875 62.078125 69.1875 L 65.148438 74.351562 C 64.597656 75.089844 64.003906 75.785156 63.375 76.445312 L 57.730469 74.320312 C 57.152344 74.78125 56.542969 75.203125 55.910156 75.585938 L 55.976562 81.585938 C 55.136719 81.949219 54.269531 82.265625 53.386719 82.523438 L 49.566406 77.878906 C 48.839844 77.988281 48.097656 78.054688 47.351562 78.070312 L 44.386719 83.292969 C 43.933594 83.242188 43.476562 83.175781 43.019531 83.097656 C 42.5625 83.015625 42.113281 82.921875 41.667969 82.816406 L 40.695312 76.894531 C 39.996094 76.625 39.324219 76.3125 38.679688 75.960938 L 33.484375 79.011719 C 32.742188 78.464844 32.042969 77.875 31.378906 77.246094 L 33.515625 71.636719 C 33.054688 71.058594 32.628906 70.453125 32.246094 69.824219 L 26.210938 69.890625 C 25.84375 69.054688 25.527344 68.195312 25.265625 67.316406 L 29.9375 63.515625 C 29.828125 62.792969 29.761719 62.058594 29.746094 61.3125 L 24.492188 58.367188 C 24.546875 57.914062 24.609375 57.460938 24.691406 57.007812 C 24.773438 56.554688 24.867188 56.105469 24.972656 55.664062 L 30.925781 54.695312 C 31.199219 54 31.515625 53.332031 31.867188 52.6875 L 28.796875 47.527344 C 29.347656 46.789062 29.941406 46.089844 30.574219 45.429688 L 36.21875 47.558594 C 36.796875 47.097656 37.40625 46.675781 38.039062 46.292969 L 37.972656 40.292969 C 38.8125 39.929688 39.675781 39.613281 40.5625 39.355469 L 44.382812 44 C 45.109375 43.886719 45.847656 43.824219 46.597656 43.808594 L 49.5625 38.585938 M 46.988281 73.984375 C 53.230469 73.984375 58.761719 69.539062 59.886719 63.21875 C 61.152344 56.125 56.398438 49.355469 49.265625 48.097656 C 48.492188 47.960938 47.71875 47.894531 46.957031 47.894531 C 40.71875 47.894531 35.1875 52.339844 34.058594 58.660156 C 32.792969 65.753906 37.550781 72.523438 44.683594 73.78125 C 45.457031 73.917969 46.230469 73.984375 46.988281 73.984375 M 48.867188 37.234375 L 48.457031 37.964844 L 45.839844 42.578125 C 45.53125 42.597656 45.222656 42.621094 44.914062 42.65625 L 41.542969 38.554688 L 41.007812 37.90625 L 40.199219 38.144531 C 39.273438 38.417969 38.355469 38.75 37.46875 39.136719 L 36.695312 39.46875 L 36.703125 40.304688 L 36.761719 45.605469 C 36.503906 45.773438 36.253906 45.949219 36.007812 46.128906 L 31.023438 44.25 L 30.234375 43.953125 L 29.65625 44.5625 C 28.984375 45.261719 28.351562 46.003906 27.78125 46.773438 L 27.277344 47.445312 L 27.707031 48.167969 L 30.417969 52.726562 C 30.28125 53.003906 30.148438 53.28125 30.027344 53.5625 L 24.769531 54.417969 L 23.9375 54.554688 L 23.742188 55.371094 C 23.621094 55.875 23.523438 56.335938 23.441406 56.785156 C 23.363281 57.234375 23.292969 57.703125 23.230469 58.21875 L 23.132812 59.054688 L 23.867188 59.464844 L 28.507812 62.066406 C 28.527344 62.375 28.554688 62.679688 28.585938 62.984375 L 24.464844 66.339844 L 23.8125 66.871094 L 24.050781 67.671875 C 24.324219 68.589844 24.660156 69.503906 25.046875 70.390625 L 25.382812 71.160156 L 26.222656 71.152344 L 31.550781 71.09375 C 31.722656 71.347656 31.898438 71.597656 32.078125 71.84375 L 30.191406 76.800781 L 29.894531 77.582031 L 30.503906 78.160156 C 31.210938 78.832031 31.960938 79.460938 32.730469 80.027344 L 33.40625 80.523438 L 34.128906 80.097656 L 38.714844 77.402344 C 38.992188 77.539062 39.273438 77.667969 39.554688 77.792969 L 40.417969 83.019531 L 40.554688 83.847656 L 41.375 84.042969 C 41.882812 84.164062 42.347656 84.257812 42.800781 84.339844 C 43.25 84.417969 43.722656 84.488281 44.238281 84.546875 L 45.078125 84.644531 L 45.492188 83.914062 L 48.109375 79.300781 C 48.417969 79.28125 48.722656 79.257812 49.03125 79.222656 L 52.402344 83.320312 L 52.9375 83.96875 L 53.746094 83.734375 C 54.667969 83.464844 55.585938 83.128906 56.480469 82.746094 L 57.253906 82.410156 L 57.246094 81.574219 L 57.183594 76.273438 C 57.441406 76.105469 57.695312 75.929688 57.941406 75.75 L 62.925781 77.625 L 63.710938 77.921875 L 64.292969 77.316406 C 64.964844 76.617188 65.59375 75.871094 66.167969 75.105469 L 66.671875 74.433594 L 66.242188 73.710938 L 63.53125 69.152344 C 63.667969 68.878906 63.796875 68.597656 63.921875 68.316406 L 69.175781 67.460938 L 70.007812 67.324219 L 70.207031 66.511719 C 70.320312 66.039062 70.421875 65.558594 70.503906 65.089844 C 70.589844 64.621094 70.660156 64.136719 70.714844 63.65625 L 70.8125 62.824219 L 70.078125 62.414062 L 65.4375 59.8125 C 65.421875 59.503906 65.394531 59.195312 65.359375 58.890625 L 69.484375 55.539062 L 70.136719 55.007812 L 69.898438 54.207031 C 69.625 53.285156 69.289062 52.371094 68.902344 51.484375 L 68.566406 50.71875 L 67.722656 50.726562 L 62.394531 50.785156 C 62.226562 50.53125 62.050781 50.28125 61.867188 50.035156 L 63.757812 45.078125 L 64.054688 44.296875 L 63.445312 43.71875 C 62.742188 43.054688 61.996094 42.425781 61.222656 41.855469 L 60.542969 41.351562 L 59.816406 41.78125 L 55.230469 44.476562 C 54.957031 44.339844 54.675781 44.210938 54.390625 44.085938 L 53.53125 38.859375 L 53.394531 38.035156 L 52.578125 37.839844 C 52.101562 37.722656 51.621094 37.625 51.148438 37.539062 C 50.679688 37.457031 50.191406 37.386719 49.707031 37.332031 Z M 46.988281 72.722656 C 46.296875 72.722656 45.59375 72.660156 44.90625 72.539062 C 41.789062 71.988281 39.074219 70.265625 37.261719 67.6875 C 35.449219 65.105469 34.753906 61.980469 35.308594 58.878906 C 36.3125 53.246094 41.214844 49.15625 46.957031 49.15625 C 47.652344 49.15625 48.355469 49.21875 49.042969 49.339844 C 52.160156 49.890625 54.875 51.613281 56.6875 54.191406 C 58.5 56.773438 59.191406 59.898438 58.640625 62.996094 C 57.632812 68.632812 52.734375 72.722656 46.988281 72.722656 Z M 46.988281 72.722656 "/>
<path style=" stroke:none;fill-rule:nonzero;fill:url(#linear0);" d="M 127.839844 59.101562 C 127.753906 57.847656 127.628906 56.597656 127.472656 55.367188 C 127.390625 54.738281 127.300781 54.113281 127.199219 53.496094 C 126.976562 52.082031 126.703125 50.6875 126.386719 49.308594 C 126.226562 48.605469 126.050781 47.910156 125.863281 47.214844 C 125.566406 46.082031 125.234375 44.960938 124.871094 43.855469 C 123.089844 38.421875 120.59375 33.3125 117.488281 28.628906 C 110.5 18.101562 100.441406 9.753906 88.578125 4.855469 C 87.269531 4.3125 85.9375 3.816406 84.589844 3.359375 C 82.769531 2.746094 80.914062 2.210938 79.023438 1.761719 C 74.207031 0.609375 69.175781 0 64 0 C 28.660156 0 0.0078125 28.429688 0.0078125 63.5 C 0.0078125 73.570312 2.371094 83.09375 6.578125 91.554688 C 8.367188 95.15625 10.488281 98.5625 12.90625 101.738281 C 15.546875 105.207031 18.535156 108.394531 21.820312 111.253906 L 21.824219 111.257812 C 23.824219 112.996094 25.929688 114.613281 28.136719 116.097656 C 38.367188 122.980469 50.710938 127 64 127 C 99.339844 127 127.992188 98.570312 127.992188 63.5 C 127.992188 62.019531 127.941406 60.554688 127.839844 59.101562 Z M 110.03125 103.132812 C 109.875 103.316406 109.714844 103.496094 109.550781 103.675781 C 109.4375 103.804688 109.320312 103.933594 109.203125 104.0625 C 108.691406 104.625 108.164062 105.179688 107.628906 105.726562 C 100.738281 112.738281 92.144531 118.09375 82.507812 121.136719 C 81.671875 121.402344 80.824219 121.648438 79.972656 121.878906 C 79.84375 121.914062 79.714844 121.945312 79.585938 121.980469 C 78.421875 122.285156 77.238281 122.558594 76.046875 122.792969 L 76.039062 122.792969 C 76.039062 122.792969 76.035156 122.792969 76.035156 122.796875 C 75.832031 122.835938 75.625 122.878906 75.421875 122.917969 C 74.574219 123.078125 73.71875 123.21875 72.859375 123.339844 C 69.96875 123.761719 67.007812 123.976562 64 123.976562 C 59.441406 123.976562 54.996094 123.480469 50.726562 122.535156 C 44.71875 121.214844 39.042969 119.011719 33.847656 116.066406 C 31.050781 114.488281 28.394531 112.691406 25.898438 110.703125 C 21.242188 107 17.148438 102.632812 13.761719 97.746094 C 12.359375 95.722656 11.078125 93.613281 9.929688 91.425781 C 6.039062 84.027344 3.648438 75.734375 3.152344 66.9375 C 3.089844 65.800781 3.054688 64.652344 3.054688 63.5 C 3.054688 30.097656 30.339844 3.023438 64 3.023438 C 68.953125 3.023438 73.765625 3.609375 78.375 4.714844 C 93.660156 8.382812 106.695312 17.769531 115.054688 30.460938 C 115.929688 31.792969 116.757812 33.160156 117.527344 34.5625 C 118.382812 36.117188 119.171875 37.714844 119.890625 39.347656 C 119.914062 39.40625 119.941406 39.464844 119.964844 39.523438 C 123.171875 46.875 124.945312 54.980469 124.945312 63.5 C 124.945312 63.960938 124.9375 64.421875 124.929688 64.878906 C 124.597656 79.5 119.039062 92.84375 110.03125 103.132812 Z M 110.03125 103.132812 "/>
</g>
</svg>
